<?xml version="1.0" encoding="utf-8"?>
<!-- Generator: Adobe Illustrator 27.5.0, SVG Export Plug-In . SVG Version: 6.00 Build 0)  -->
<svg version="1.1" xmlns="http://www.w3.org/2000/svg" xmlns:xlink="http://www.w3.org/1999/xlink" x="0px" y="0px"
	 viewBox="0 0 750 500" style="enable-background:new 0 0 750 500;" xml:space="preserve">
<g id="BACKGROUND">
	<rect style="fill:#6FD1C9;" width="750" height="500"/>
</g>
<g id="OBJECTS">
	<g>
		<defs>
			<rect id="SVGID_1_" width="750" height="500"/>
		</defs>
		<clipPath id="SVGID_00000048461242189863842820000003635582569191212191_">
			<use xlink:href="#SVGID_1_"  style="overflow:visible;"/>
		</clipPath>
		<g style="clip-path:url(#SVGID_00000048461242189863842820000003635582569191212191_);">
			<polygon style="fill:#2570B0;" points="112.308,82.362 27.959,-1.987 25.01,-1.987 109.36,82.362 			"/>
			<polygon style="fill:#2570B0;" points="101.981,82.362 17.632,-1.987 14.683,-1.987 99.033,82.362 			"/>
			<polygon style="fill:#2570B0;" points="81.327,82.362 -3.022,-1.987 -5.971,-1.987 78.379,82.362 			"/>
			<polygon style="fill:#2570B0;" points="91.654,82.362 7.305,-1.987 4.356,-1.987 88.706,82.362 			"/>
		</g>
		<g style="clip-path:url(#SVGID_00000048461242189863842820000003635582569191212191_);">
			<g>
				<path style="fill:#2570B0;" d="M40.36,43.58v-5.402h65.471c24.989,0,45.319-20.33,45.319-45.32h5.402
					c0,27.968-22.754,50.722-50.722,50.722H40.36z"/>
			</g>
			<g>
				<path style="fill:#2570B0;" d="M40.36,27.682v-5.402h66.251c16.223,0,29.421-13.198,29.421-29.421h5.402
					c0,19.202-15.622,34.824-34.824,34.824H40.36z"/>
			</g>
		</g>
		<g style="clip-path:url(#SVGID_00000048461242189863842820000003635582569191212191_);">
			<g>
				<path style="fill:#0E4E7E;" d="M609.938,277.951h5.007v-78.512c0-23.161,18.843-42.004,42.004-42.004v-5.007
					c-25.922,0-47.011,21.089-47.011,47.011V277.951z"/>
			</g>
			<g>
				<path style="fill:#0E4E7E;" d="M624.673,277.951h5.007v-79.235c0-15.036,12.233-27.269,27.269-27.269v-5.007
					c-17.797,0-32.276,14.479-32.276,32.276V277.951z"/>
			</g>
		</g>
		<path style="clip-path:url(#SVGID_00000048461242189863842820000003635582569191212191_);fill:#F0E8A8;" d="M418.36,417.701
			v34.513c26.392,0,47.787,21.395,47.787,47.787h34.513C500.659,454.547,463.813,417.701,418.36,417.701z"/>
		<g style="clip-path:url(#SVGID_00000048461242189863842820000003635582569191212191_);">
			<g>
				<path style="fill:#0E4E7E;" d="M560.807,453.034v5.379H456.425c-24.88,0-45.121,20.241-45.121,45.122h-5.379
					c0-27.846,22.654-50.5,50.5-50.5H560.807z"/>
			</g>
			<g>
				<path style="fill:#0E4E7E;" d="M560.807,468.862v5.379H455.649c-16.152,0-29.293,13.141-29.293,29.293h-5.379
					c0-19.118,15.554-34.672,34.672-34.672H560.807z"/>
			</g>
		</g>
		<g style="clip-path:url(#SVGID_00000048461242189863842820000003635582569191212191_);">
			<polygon style="fill:#2570B0;" points="719.44,422.474 730.754,422.474 696.283,388.003 696.283,399.317 			"/>
			<polygon style="fill:#2570B0;" points="696.283,369.2 696.283,380.514 738.243,422.474 749.557,422.474 			"/>
			<polygon style="fill:#2570B0;" points="696.283,350.398 696.283,361.711 757.046,422.474 768.36,422.474 			"/>
			<polygon style="fill:#2570B0;" points="772.104,362.321 772.104,346.653 756.437,346.653 			"/>
			<polygon style="fill:#2570B0;" points="711.341,346.653 700.028,346.653 772.104,418.729 772.104,407.416 			"/>
			<polygon style="fill:#2570B0;" points="696.283,406.807 696.283,422.474 711.951,422.474 			"/>
			<polygon style="fill:#2570B0;" points="748.947,346.653 737.633,346.653 772.104,381.124 772.104,369.81 			"/>
			<polygon style="fill:#2570B0;" points="730.144,346.653 718.831,346.653 772.104,399.926 772.104,388.613 			"/>
		</g>
		<g style="clip-path:url(#SVGID_00000048461242189863842820000003635582569191212191_);">
			<polygon style="fill:#2570B0;" points="678.213,500 582.053,409.055 578.202,409.055 674.362,500 			"/>
			<polygon style="fill:#2570B0;" points="664.724,500 568.564,409.055 564.713,409.055 660.872,500 			"/>
			<polygon style="fill:#2570B0;" points="637.747,500 541.587,409.055 537.735,409.055 633.895,500 			"/>
			<polygon style="fill:#2570B0;" points="651.235,500 555.076,409.055 551.224,409.055 647.384,500 			"/>
		</g>
		<g style="clip-path:url(#SVGID_00000048461242189863842820000003635582569191212191_);">
			<polygon style="fill:#F0E8A8;" points="794.612,143.372 698.452,52.426 694.601,52.426 790.761,143.372 			"/>
			<polygon style="fill:#F0E8A8;" points="781.123,143.372 684.963,52.426 681.112,52.426 777.272,143.372 			"/>
			<polygon style="fill:#F0E8A8;" points="754.146,143.372 657.986,52.426 654.134,52.426 750.294,143.372 			"/>
			<polygon style="fill:#F0E8A8;" points="767.634,143.372 671.475,52.426 667.623,52.426 763.783,143.372 			"/>
		</g>
		<g style="clip-path:url(#SVGID_00000048461242189863842820000003635582569191212191_);">
			<g>
				<path style="fill:#F6F2CF;" d="M-6.075,215.899c-1.032,0-1.868-0.836-1.868-1.868c0-1.032,0.836-1.868,1.868-1.868
					s1.868,0.836,1.868,1.868C-4.207,215.063-5.043,215.899-6.075,215.899z"/>
				<path style="fill:#F6F2CF;" d="M-6.075,226.926c-1.032,0-1.868-0.836-1.868-1.868c0-1.032,0.836-1.868,1.868-1.868
					s1.868,0.836,1.868,1.868C-4.207,226.09-5.043,226.926-6.075,226.926z"/>
				<path style="fill:#F6F2CF;" d="M-6.075,237.954c-1.032,0-1.868-0.836-1.868-1.868c0-1.032,0.836-1.868,1.868-1.868
					s1.868,0.836,1.868,1.868C-4.207,237.117-5.043,237.954-6.075,237.954z"/>
				<path style="fill:#F6F2CF;" d="M-6.075,248.981c-1.032,0-1.868-0.836-1.868-1.868c0-1.032,0.836-1.868,1.868-1.868
					s1.868,0.836,1.868,1.868C-4.207,248.145-5.043,248.981-6.075,248.981z"/>
				<path style="fill:#F6F2CF;" d="M-6.075,260.009c-1.032,0-1.868-0.836-1.868-1.868s0.836-1.868,1.868-1.868
					s1.868,0.836,1.868,1.868S-5.043,260.009-6.075,260.009z"/>
				<path style="fill:#F6F2CF;" d="M-6.075,271.036c-1.032,0-1.868-0.836-1.868-1.868c0-1.032,0.836-1.868,1.868-1.868
					s1.868,0.836,1.868,1.868C-4.207,270.2-5.043,271.036-6.075,271.036z"/>
				<path style="fill:#F6F2CF;" d="M-6.075,282.063c-1.032,0-1.868-0.836-1.868-1.868c0-1.032,0.836-1.868,1.868-1.868
					s1.868,0.836,1.868,1.868C-4.207,281.227-5.043,282.063-6.075,282.063z"/>
				<path style="fill:#F6F2CF;" d="M-6.075,293.091c-1.032,0-1.868-0.836-1.868-1.868c0-1.032,0.836-1.868,1.868-1.868
					s1.868,0.836,1.868,1.868C-4.207,292.254-5.043,293.091-6.075,293.091z"/>
			</g>
			<g>
				<path style="fill:#F6F2CF;" d="M0.736,221.413c-1.032,0-1.868-0.836-1.868-1.868c0-1.032,0.836-1.868,1.868-1.868
					c1.032,0,1.868,0.836,1.868,1.868C2.604,220.577,1.768,221.413,0.736,221.413z"/>
				<path style="fill:#F6F2CF;" d="M0.736,232.44c-1.032,0-1.868-0.836-1.868-1.868c0-1.032,0.836-1.868,1.868-1.868
					c1.032,0,1.868,0.836,1.868,1.868C2.604,231.604,1.768,232.44,0.736,232.44z"/>
				<path style="fill:#F6F2CF;" d="M0.736,243.468c-1.032,0-1.868-0.836-1.868-1.868c0-1.032,0.836-1.868,1.868-1.868
					c1.032,0,1.868,0.836,1.868,1.868C2.604,242.631,1.768,243.468,0.736,243.468z"/>
				<path style="fill:#F6F2CF;" d="M0.736,254.495c-1.032,0-1.868-0.836-1.868-1.868c0-1.032,0.836-1.868,1.868-1.868
					c1.032,0,1.868,0.836,1.868,1.868C2.604,253.659,1.768,254.495,0.736,254.495z"/>
				<path style="fill:#F6F2CF;" d="M0.736,265.522c-1.032,0-1.868-0.836-1.868-1.868c0-1.032,0.836-1.868,1.868-1.868
					c1.032,0,1.868,0.836,1.868,1.868C2.604,264.686,1.768,265.522,0.736,265.522z"/>
				<path style="fill:#F6F2CF;" d="M0.736,276.55c-1.032,0-1.868-0.836-1.868-1.868c0-1.032,0.836-1.868,1.868-1.868
					c1.032,0,1.868,0.836,1.868,1.868C2.604,275.713,1.768,276.55,0.736,276.55z"/>
				<path style="fill:#F6F2CF;" d="M0.736,287.577c-1.032,0-1.868-0.836-1.868-1.868c0-1.032,0.836-1.868,1.868-1.868
					c1.032,0,1.868,0.836,1.868,1.868C2.604,286.741,1.768,287.577,0.736,287.577z"/>
			</g>
			<g>
				<path style="fill:#F6F2CF;" d="M7.547,226.926c-1.032,0-1.868-0.836-1.868-1.868c0-1.032,0.836-1.868,1.868-1.868
					s1.868,0.836,1.868,1.868C9.415,226.09,8.579,226.926,7.547,226.926z"/>
				<path style="fill:#F6F2CF;" d="M7.547,237.954c-1.032,0-1.868-0.836-1.868-1.868c0-1.032,0.836-1.868,1.868-1.868
					s1.868,0.836,1.868,1.868C9.415,237.117,8.579,237.954,7.547,237.954z"/>
				<path style="fill:#F6F2CF;" d="M7.547,248.981c-1.032,0-1.868-0.836-1.868-1.868c0-1.032,0.836-1.868,1.868-1.868
					s1.868,0.836,1.868,1.868C9.415,248.145,8.579,248.981,7.547,248.981z"/>
				<path style="fill:#F6F2CF;" d="M7.547,260.009c-1.032,0-1.868-0.836-1.868-1.868s0.836-1.868,1.868-1.868
					s1.868,0.836,1.868,1.868S8.579,260.009,7.547,260.009z"/>
				<path style="fill:#F6F2CF;" d="M7.547,271.036c-1.032,0-1.868-0.836-1.868-1.868c0-1.032,0.836-1.868,1.868-1.868
					s1.868,0.836,1.868,1.868C9.415,270.2,8.579,271.036,7.547,271.036z"/>
				<path style="fill:#F6F2CF;" d="M7.547,282.063c-1.032,0-1.868-0.836-1.868-1.868c0-1.032,0.836-1.868,1.868-1.868
					s1.868,0.836,1.868,1.868C9.415,281.227,8.579,282.063,7.547,282.063z"/>
			</g>
			<g>
				<path style="fill:#F6F2CF;" d="M14.358,232.44c-1.032,0-1.868-0.836-1.868-1.868c0-1.032,0.836-1.868,1.868-1.868
					s1.868,0.836,1.868,1.868C16.226,231.604,15.39,232.44,14.358,232.44z"/>
				<path style="fill:#F6F2CF;" d="M14.358,243.468c-1.032,0-1.868-0.836-1.868-1.868c0-1.032,0.836-1.868,1.868-1.868
					s1.868,0.836,1.868,1.868C16.226,242.631,15.39,243.468,14.358,243.468z"/>
				<path style="fill:#F6F2CF;" d="M14.358,254.495c-1.032,0-1.868-0.836-1.868-1.868c0-1.032,0.836-1.868,1.868-1.868
					s1.868,0.836,1.868,1.868C16.226,253.659,15.39,254.495,14.358,254.495z"/>
				<path style="fill:#F6F2CF;" d="M14.358,265.522c-1.032,0-1.868-0.836-1.868-1.868c0-1.032,0.836-1.868,1.868-1.868
					s1.868,0.836,1.868,1.868C16.226,264.686,15.39,265.522,14.358,265.522z"/>
				<path style="fill:#F6F2CF;" d="M14.358,276.55c-1.032,0-1.868-0.836-1.868-1.868c0-1.032,0.836-1.868,1.868-1.868
					s1.868,0.836,1.868,1.868C16.226,275.713,15.39,276.55,14.358,276.55z"/>
			</g>
			<g>
				<path style="fill:#F6F2CF;" d="M21.169,237.954c-1.032,0-1.868-0.836-1.868-1.868c0-1.032,0.836-1.868,1.868-1.868
					c1.032,0,1.868,0.836,1.868,1.868C23.038,237.117,22.201,237.954,21.169,237.954z"/>
				<path style="fill:#F6F2CF;" d="M21.169,248.981c-1.032,0-1.868-0.836-1.868-1.868c0-1.032,0.836-1.868,1.868-1.868
					c1.032,0,1.868,0.836,1.868,1.868C23.038,248.145,22.201,248.981,21.169,248.981z"/>
				<path style="fill:#F6F2CF;" d="M21.169,260.009c-1.032,0-1.868-0.836-1.868-1.868s0.836-1.868,1.868-1.868
					c1.032,0,1.868,0.836,1.868,1.868S22.201,260.009,21.169,260.009z"/>
				<path style="fill:#F6F2CF;" d="M21.169,271.036c-1.032,0-1.868-0.836-1.868-1.868c0-1.032,0.836-1.868,1.868-1.868
					c1.032,0,1.868,0.836,1.868,1.868C23.038,270.2,22.201,271.036,21.169,271.036z"/>
			</g>
			<g>
				<path style="fill:#F6F2CF;" d="M27.98,243.468c-1.032,0-1.868-0.836-1.868-1.868c0-1.032,0.836-1.868,1.868-1.868
					c1.032,0,1.868,0.836,1.868,1.868C29.848,242.631,29.012,243.468,27.98,243.468z"/>
				<path style="fill:#F6F2CF;" d="M27.98,254.495c-1.032,0-1.868-0.836-1.868-1.868c0-1.032,0.836-1.868,1.868-1.868
					c1.032,0,1.868,0.836,1.868,1.868C29.848,253.659,29.012,254.495,27.98,254.495z"/>
				<path style="fill:#F6F2CF;" d="M27.98,265.522c-1.032,0-1.868-0.836-1.868-1.868c0-1.032,0.836-1.868,1.868-1.868
					c1.032,0,1.868,0.836,1.868,1.868C29.848,264.686,29.012,265.522,27.98,265.522z"/>
			</g>
			<g>
				<path style="fill:#F6F2CF;" d="M34.792,248.981c-1.032,0-1.868-0.836-1.868-1.868c0-1.032,0.836-1.868,1.868-1.868
					s1.868,0.836,1.868,1.868C36.66,248.145,35.823,248.981,34.792,248.981z"/>
				<path style="fill:#F6F2CF;" d="M34.792,260.009c-1.032,0-1.868-0.836-1.868-1.868s0.836-1.868,1.868-1.868
					s1.868,0.836,1.868,1.868S35.823,260.009,34.792,260.009z"/>
			</g>
			<g>
				<path style="fill:#F6F2CF;" d="M41.603,254.495c-1.032,0-1.868-0.836-1.868-1.868c0-1.032,0.836-1.868,1.868-1.868
					c1.032,0,1.868,0.836,1.868,1.868C43.471,253.659,42.634,254.495,41.603,254.495z"/>
			</g>
		</g>
		<path style="clip-path:url(#SVGID_00000048461242189863842820000003635582569191212191_);fill:#0E4E7E;" d="M333.485,533.887
			V520.93c-19.068,0-34.525-16.177-34.525-36.131s15.457-36.131,34.525-36.131h43.535V435.71h-43.535
			c-25.905,0-46.906,21.978-46.906,49.089C286.579,511.909,307.579,533.887,333.485,533.887z"/>
		<g style="clip-path:url(#SVGID_00000048461242189863842820000003635582569191212191_);">
			<path style="fill:#2570B0;" d="M759.063,239.968v-19.042c-29.327,0-53.101-23.774-53.101-53.101
				c0-29.327,23.774-53.101,53.101-53.101V95.682c-39.843,0-72.143,32.3-72.143,72.143
				C686.92,207.668,719.22,239.968,759.063,239.968z"/>
			<path style="fill:#F6F2CF;" d="M724.275,167.825c0,18.85,15.281,34.132,34.131,34.132v-68.263
				C739.556,133.693,724.275,148.975,724.275,167.825z"/>
		</g>
		<path style="clip-path:url(#SVGID_00000048461242189863842820000003635582569191212191_);fill:#0E4E7E;" d="M197.423-17.571
			h22.277c0,17.036,13.81,30.846,30.846,30.846v22.277C221.207,35.552,197.423,11.768,197.423-17.571z"/>
		<path style="clip-path:url(#SVGID_00000048461242189863842820000003635582569191212191_);fill:#0E4E7E;" d="M79.596-6.405H45.78
			c0,25.858-20.962,46.821-46.821,46.821v33.815C43.493,74.231,79.596,38.129,79.596-6.405z"/>
		<path style="clip-path:url(#SVGID_00000048461242189863842820000003635582569191212191_);fill:#0E4E7E;" d="M754.36,313.932
			V280.72c-25.397,0-45.985-20.588-45.985-45.985h-33.211C675.164,278.474,710.621,313.932,754.36,313.932z"/>
		<path style="clip-path:url(#SVGID_00000048461242189863842820000003635582569191212191_);fill:#F6F2CF;" d="M613.164,510.903
			h29.143c0-22.286,18.066-40.352,40.352-40.352v-29.143C644.278,441.408,613.164,472.522,613.164,510.903z"/>
		<g style="clip-path:url(#SVGID_00000048461242189863842820000003635582569191212191_);">
			<path style="fill:#F6F2CF;" d="M533.234,426.929l-32.618,32.618c9.007,9.007,23.611,9.007,32.618,0
				S542.242,435.937,533.234,426.929z"/>
			<path style="fill:#0E4E7E;" d="M500.616,426.929c9.007-9.007,23.611-9.007,32.618,0l-32.618,32.618
				C491.609,450.54,491.609,435.937,500.616,426.929z"/>
		</g>
		<g style="clip-path:url(#SVGID_00000048461242189863842820000003635582569191212191_);">
			<g>
				<circle style="fill:#F6F2CF;" cx="250.164" cy="-27.471" r="7.931"/>
				<circle style="fill:#F6F2CF;" cx="283.33" cy="-27.471" r="7.931"/>
				<path style="fill:#F6F2CF;" d="M324.426-27.471c0,4.38-3.551,7.931-7.931,7.931c-4.38,0-7.931-3.551-7.931-7.931
					s3.551-7.931,7.931-7.931C320.875-35.402,324.426-31.851,324.426-27.471z"/>
				<circle style="fill:#F6F2CF;" cx="349.661" cy="-27.471" r="7.931"/>
			</g>
			<g>
				<circle style="fill:#F6F2CF;" cx="250.164" cy="0.408" r="7.931"/>
				<circle style="fill:#F6F2CF;" cx="283.33" cy="0.408" r="7.931"/>
				<path style="fill:#F6F2CF;" d="M324.426,0.408c0,4.38-3.551,7.931-7.931,7.931c-4.38,0-7.931-3.551-7.931-7.931
					s3.551-7.931,7.931-7.931C320.875-7.523,324.426-3.973,324.426,0.408z"/>
				<circle style="fill:#F6F2CF;" cx="349.661" cy="0.408" r="7.931"/>
			</g>
		</g>
		<g style="clip-path:url(#SVGID_00000048461242189863842820000003635582569191212191_);">
			<g>
				<circle style="fill:#F0E8A8;" cx="11.858" cy="11.186" r="5.236"/>
				<circle style="fill:#F0E8A8;" cx="33.756" cy="11.186" r="5.236"/>
				<path style="fill:#F0E8A8;" d="M60.889,11.186c0,2.892-2.344,5.236-5.236,5.236s-5.236-2.344-5.236-5.236
					s2.344-5.236,5.236-5.236S60.889,8.294,60.889,11.186z"/>
				<circle style="fill:#F0E8A8;" cx="77.55" cy="11.186" r="5.236"/>
			</g>
			<g>
				<circle style="fill:#F0E8A8;" cx="11.858" cy="29.592" r="5.236"/>
				<circle style="fill:#F0E8A8;" cx="33.756" cy="29.592" r="5.236"/>
				<path style="fill:#F0E8A8;" d="M60.889,29.592c0,2.892-2.344,5.236-5.236,5.236s-5.236-2.344-5.236-5.236
					s2.344-5.236,5.236-5.236S60.889,26.7,60.889,29.592z"/>
				<circle style="fill:#F0E8A8;" cx="77.55" cy="29.592" r="5.236"/>
			</g>
		</g>
		<g style="clip-path:url(#SVGID_00000048461242189863842820000003635582569191212191_);">
			<g>
				<path style="fill:#F6F2CF;" d="M643.557,31.07c0,2.15-1.743,3.893-3.893,3.893c-2.15,0-3.893-1.743-3.893-3.893
					c0-2.15,1.743-3.893,3.893-3.893C641.814,27.177,643.557,28.92,643.557,31.07z"/>
				<path style="fill:#F6F2CF;" d="M659.836,31.07c0,2.15-1.743,3.893-3.893,3.893c-2.15,0-3.893-1.743-3.893-3.893
					c0-2.15,1.743-3.893,3.893-3.893C658.093,27.177,659.836,28.92,659.836,31.07z"/>
				<path style="fill:#F6F2CF;" d="M676.116,31.07c0,2.15-1.743,3.893-3.893,3.893c-2.15,0-3.893-1.743-3.893-3.893
					c0-2.15,1.743-3.893,3.893-3.893C674.373,27.177,676.116,28.92,676.116,31.07z"/>
				<path style="fill:#F6F2CF;" d="M692.395,31.07c0,2.15-1.743,3.893-3.893,3.893c-2.15,0-3.893-1.743-3.893-3.893
					c0-2.15,1.743-3.893,3.893-3.893C690.652,27.177,692.395,28.92,692.395,31.07z"/>
			</g>
			<g>
				<path style="fill:#F6F2CF;" d="M643.557,44.754c0,2.15-1.743,3.893-3.893,3.893c-2.15,0-3.893-1.743-3.893-3.893
					c0-2.15,1.743-3.893,3.893-3.893C641.814,40.861,643.557,42.604,643.557,44.754z"/>
				<path style="fill:#F6F2CF;" d="M659.836,44.754c0,2.15-1.743,3.893-3.893,3.893c-2.15,0-3.893-1.743-3.893-3.893
					c0-2.15,1.743-3.893,3.893-3.893C658.093,40.861,659.836,42.604,659.836,44.754z"/>
				<path style="fill:#F6F2CF;" d="M676.116,44.754c0,2.15-1.743,3.893-3.893,3.893c-2.15,0-3.893-1.743-3.893-3.893
					c0-2.15,1.743-3.893,3.893-3.893C674.373,40.861,676.116,42.604,676.116,44.754z"/>
				<path style="fill:#F6F2CF;" d="M692.395,44.754c0,2.15-1.743,3.893-3.893,3.893c-2.15,0-3.893-1.743-3.893-3.893
					c0-2.15,1.743-3.893,3.893-3.893C690.652,40.861,692.395,42.604,692.395,44.754z"/>
			</g>
		</g>
		<g style="clip-path:url(#SVGID_00000048461242189863842820000003635582569191212191_);">
			<g>
				<path style="fill:#F6F2CF;" d="M261.858,462.617c0,1.947-1.578,3.525-3.525,3.525c-1.947,0-3.524-1.578-3.524-3.525
					c0-1.947,1.578-3.525,3.524-3.525C260.28,459.093,261.858,460.671,261.858,462.617z"/>
				<circle style="fill:#F6F2CF;" cx="273.073" cy="462.617" r="3.525"/>
				<path style="fill:#F6F2CF;" d="M291.336,462.617c0,1.947-1.578,3.525-3.525,3.525c-1.947,0-3.525-1.578-3.525-3.525
					c0-1.947,1.578-3.525,3.525-3.525C289.758,459.093,291.336,460.671,291.336,462.617z"/>
				<path style="fill:#F6F2CF;" d="M306.076,462.617c0,1.947-1.578,3.525-3.525,3.525c-1.947,0-3.525-1.578-3.525-3.525
					c0-1.947,1.578-3.525,3.525-3.525C304.498,459.093,306.076,460.671,306.076,462.617z"/>
			</g>
			<g>
				<path style="fill:#F6F2CF;" d="M261.858,475.007c0,1.947-1.578,3.525-3.525,3.525c-1.947,0-3.524-1.578-3.524-3.525
					c0-1.947,1.578-3.525,3.524-3.525C260.28,471.482,261.858,473.06,261.858,475.007z"/>
				<circle style="fill:#F6F2CF;" cx="273.073" cy="475.007" r="3.525"/>
				<path style="fill:#F6F2CF;" d="M291.336,475.007c0,1.947-1.578,3.525-3.525,3.525c-1.947,0-3.525-1.578-3.525-3.525
					c0-1.947,1.578-3.525,3.525-3.525C289.758,471.482,291.336,473.06,291.336,475.007z"/>
				<path style="fill:#F6F2CF;" d="M306.076,475.007c0,1.947-1.578,3.525-3.525,3.525c-1.947,0-3.525-1.578-3.525-3.525
					c0-1.947,1.578-3.525,3.525-3.525C304.498,471.482,306.076,473.06,306.076,475.007z"/>
			</g>
		</g>
		<g style="clip-path:url(#SVGID_00000048461242189863842820000003635582569191212191_);">
			<g>
				<path style="fill:#0E4E7E;" d="M664.458,406.324c2.889,0,5.232,2.342,5.232,5.232s-2.342,5.232-5.232,5.232
					c-2.89,0-5.232-2.342-5.232-5.232S661.568,406.324,664.458,406.324z"/>
				<path style="fill:#0E4E7E;" d="M664.458,384.446c2.889,0,5.232,2.342,5.232,5.232c0,2.889-2.342,5.232-5.232,5.232
					c-2.89,0-5.232-2.342-5.232-5.232C659.226,386.788,661.568,384.446,664.458,384.446z"/>
				<path style="fill:#0E4E7E;" d="M664.458,362.568c2.889,0,5.232,2.342,5.232,5.232c0,2.889-2.342,5.232-5.232,5.232
					c-2.89,0-5.232-2.342-5.232-5.232C659.226,364.91,661.568,362.568,664.458,362.568z"/>
				<path style="fill:#0E4E7E;" d="M664.458,340.689c2.889,0,5.232,2.342,5.232,5.232c0,2.889-2.342,5.232-5.232,5.232
					c-2.89,0-5.232-2.342-5.232-5.232C659.226,343.031,661.568,340.689,664.458,340.689z"/>
			</g>
			<g>
				<circle style="fill:#0E4E7E;" cx="682.848" cy="411.556" r="5.232"/>
				<circle style="fill:#0E4E7E;" cx="682.848" cy="389.678" r="5.232"/>
				<path style="fill:#0E4E7E;" d="M682.848,362.568c2.889,0,5.232,2.342,5.232,5.232c0,2.889-2.342,5.232-5.232,5.232
					s-5.232-2.342-5.232-5.232C677.617,364.91,679.959,362.568,682.848,362.568z"/>
				<circle style="fill:#0E4E7E;" cx="682.848" cy="345.921" r="5.232"/>
			</g>
		</g>
		<g style="clip-path:url(#SVGID_00000048461242189863842820000003635582569191212191_);">
			<polygon style="fill:#F0E8A8;" points="-44.069,148.475 -38.578,142.621 38.553,142.621 44.043,148.475 			"/>
			<polygon style="fill:#F0E8A8;" points="-6.163,108.059 -0.013,101.502 6.137,108.059 			"/>
			<polygon style="fill:#F0E8A8;" points="29.076,132.517 34.567,138.371 -34.592,138.371 -29.102,132.517 			"/>
			<polygon style="fill:#F0E8A8;" points="48.029,152.725 54.179,159.282 -54.205,159.282 -48.055,152.725 			"/>
			<polygon style="fill:#F0E8A8;" points="10.123,112.309 15.614,118.163 -15.639,118.163 -10.149,112.309 			"/>
			<polygon style="fill:#F0E8A8;" points="19.6,122.413 25.09,128.267 -25.116,128.267 -19.626,122.413 			"/>
		</g>
		<g style="clip-path:url(#SVGID_00000048461242189863842820000003635582569191212191_);">
			<polygon style="fill:#F0E8A8;" points="780.859,272.703 776.959,263.886 722.155,263.886 718.254,272.703 			"/>
			<polygon style="fill:#F0E8A8;" points="753.927,211.833 749.557,201.956 745.187,211.833 			"/>
			<polygon style="fill:#F0E8A8;" points="728.888,248.669 724.987,257.485 774.126,257.485 770.225,248.669 			"/>
			<polygon style="fill:#F0E8A8;" points="715.422,279.104 711.052,288.98 788.062,288.98 783.692,279.104 			"/>
			<polygon style="fill:#F0E8A8;" points="742.355,218.234 738.454,227.05 760.66,227.05 756.759,218.234 			"/>
			<polygon style="fill:#F0E8A8;" points="735.621,233.451 731.72,242.268 767.393,242.268 763.492,233.451 			"/>
		</g>
		<g style="clip-path:url(#SVGID_00000048461242189863842820000003635582569191212191_);">
			<polygon style="fill:#0E4E7E;" points="701.878,167.825 646.847,112.794 646.847,167.825 			"/>
			<polygon style="fill:#2570B0;" points="701.878,167.825 646.847,167.825 646.847,222.855 			"/>
			<polygon style="fill:#F0E8A8;" points="676.835,167.825 646.847,137.837 646.847,197.812 			"/>
		</g>
		<g style="clip-path:url(#SVGID_00000048461242189863842820000003635582569191212191_);">
			<polygon style="fill:#0E4E7E;" points="58.688,214.624 21.657,177.592 21.657,194.445 41.836,214.624 			"/>
			<polygon style="fill:#2570B0;" points="58.688,214.624 41.836,214.624 21.657,234.803 21.657,251.655 			"/>
		</g>
		<g style="clip-path:url(#SVGID_00000048461242189863842820000003635582569191212191_);">
			<polygon style="fill:#0E4E7E;" points="716.122,55.03 751.653,90.562 751.653,74.392 732.292,55.03 			"/>
			<polygon style="fill:#2570B0;" points="716.122,55.03 732.292,55.03 751.653,35.669 751.653,19.499 			"/>
		</g>
		<g style="clip-path:url(#SVGID_00000048461242189863842820000003635582569191212191_);">
			<g>
				<path style="fill:#F0E8A8;" d="M737.36,436.384h-7.775v-69.636c0-35.965-29.26-65.224-65.225-65.224v-7.775
					c40.252,0,73,32.747,73,73V436.384z"/>
			</g>
			<g>
				<path style="fill:#F0E8A8;" d="M714.479,436.384h-7.775v-70.758c0-23.348-18.995-42.344-42.344-42.344v-7.775
					c27.636,0,50.119,22.483,50.119,50.119V436.384z"/>
			</g>
		</g>
		<g style="clip-path:url(#SVGID_00000048461242189863842820000003635582569191212191_);">
			<polygon style="fill:#0E4E7E;" points="53.451,126.672 57.907,126.672 44.33,113.095 44.33,117.551 			"/>
			<polygon style="fill:#0E4E7E;" points="44.33,105.689 44.33,110.145 60.857,126.672 65.313,126.672 			"/>
			<polygon style="fill:#0E4E7E;" points="44.33,98.284 44.33,102.739 68.263,126.672 72.719,126.672 			"/>
			<polygon style="fill:#0E4E7E;" points="74.194,102.98 74.194,96.809 68.023,96.809 			"/>
			<polygon style="fill:#0E4E7E;" points="50.261,96.809 45.805,96.809 74.194,125.197 74.194,120.741 			"/>
			<polygon style="fill:#0E4E7E;" points="44.33,120.501 44.33,126.672 50.501,126.672 			"/>
			<polygon style="fill:#0E4E7E;" points="65.073,96.809 60.617,96.809 74.194,110.385 74.194,105.929 			"/>
			<polygon style="fill:#0E4E7E;" points="57.667,96.809 53.211,96.809 74.194,117.791 74.194,113.335 			"/>
		</g>
		<g style="clip-path:url(#SVGID_00000048461242189863842820000003635582569191212191_);">
			<g>
				<rect x="609.938" y="283.471" style="fill:#F6F2CF;" width="19.095" height="8.755"/>
				<rect x="634.898" y="283.471" style="fill:#F6F2CF;" width="19.095" height="8.755"/>
			</g>
			<g>
				<rect x="609.938" y="299.97" style="fill:#F6F2CF;" width="19.095" height="8.755"/>
				<rect x="634.898" y="299.97" style="fill:#F6F2CF;" width="19.095" height="8.755"/>
			</g>
			<g>
				<rect x="609.938" y="316.469" style="fill:#F6F2CF;" width="19.095" height="8.755"/>
				<rect x="634.898" y="316.469" style="fill:#F6F2CF;" width="19.095" height="8.755"/>
			</g>
			<g>
				<rect x="609.938" y="332.967" style="fill:#F6F2CF;" width="19.095" height="8.755"/>
				<rect x="634.898" y="332.967" style="fill:#F6F2CF;" width="19.095" height="8.755"/>
			</g>
			<g>
				<rect x="609.938" y="349.466" style="fill:#F6F2CF;" width="19.095" height="8.755"/>
				<rect x="634.898" y="349.466" style="fill:#F6F2CF;" width="19.095" height="8.755"/>
			</g>
		</g>
		<g style="clip-path:url(#SVGID_00000048461242189863842820000003635582569191212191_);">
			<g>
				<rect x="312.928" y="487.587" style="fill:#F0E8A8;" width="10.084" height="14.616"/>
				<rect x="312.928" y="468.482" style="fill:#F0E8A8;" width="10.084" height="14.616"/>
			</g>
			<g>
				<rect x="331.932" y="487.587" style="fill:#F0E8A8;" width="10.084" height="14.616"/>
				<rect x="331.932" y="468.482" style="fill:#F0E8A8;" width="10.084" height="14.616"/>
			</g>
			<g>
				<rect x="350.935" y="487.587" style="fill:#F0E8A8;" width="10.084" height="14.616"/>
				<rect x="350.935" y="468.482" style="fill:#F0E8A8;" width="10.084" height="14.616"/>
			</g>
			<g>
				<rect x="369.939" y="487.587" style="fill:#F0E8A8;" width="10.084" height="14.616"/>
				<rect x="369.939" y="468.482" style="fill:#F0E8A8;" width="10.084" height="14.616"/>
			</g>
			<g>
				<rect x="388.943" y="487.587" style="fill:#F0E8A8;" width="10.084" height="14.616"/>
				<rect x="388.943" y="468.482" style="fill:#F0E8A8;" width="10.084" height="14.616"/>
			</g>
		</g>
		<polygon style="clip-path:url(#SVGID_00000048461242189863842820000003635582569191212191_);fill:#F6F2CF;" points="
			101.584,50.849 97.374,50.849 97.374,46.64 96.05,46.64 96.05,50.849 91.84,50.849 91.84,52.174 96.05,52.174 96.05,56.383 
			97.374,56.383 97.374,52.174 101.584,52.174 		"/>
		<polygon style="clip-path:url(#SVGID_00000048461242189863842820000003635582569191212191_);fill:#F6F2CF;" points="
			117.311,50.849 113.102,50.849 113.102,46.64 111.777,46.64 111.777,50.849 107.568,50.849 107.568,52.174 111.777,52.174 
			111.777,56.383 113.102,56.383 113.102,52.174 117.311,52.174 		"/>
		<polygon style="clip-path:url(#SVGID_00000048461242189863842820000003635582569191212191_);fill:#F6F2CF;" points="
			133.039,50.849 128.829,50.849 128.829,46.64 127.505,46.64 127.505,50.849 123.295,50.849 123.295,52.174 127.505,52.174 
			127.505,56.383 128.829,56.383 128.829,52.174 133.039,52.174 		"/>
		<polygon style="clip-path:url(#SVGID_00000048461242189863842820000003635582569191212191_);fill:#F6F2CF;" points="
			148.766,50.849 144.557,50.849 144.557,46.64 143.232,46.64 143.232,50.849 139.022,50.849 139.022,52.174 143.232,52.174 
			143.232,56.383 144.557,56.383 144.557,52.174 148.766,52.174 		"/>
		<polygon style="clip-path:url(#SVGID_00000048461242189863842820000003635582569191212191_);fill:#0E4E7E;" points="
			668.984,435.357 654.628,435.357 654.628,421.001 650.111,421.001 650.111,435.357 635.756,435.357 635.756,439.874 
			650.111,439.874 650.111,454.229 654.628,454.229 654.628,439.874 668.984,439.874 		"/>
		<g style="clip-path:url(#SVGID_00000048461242189863842820000003635582569191212191_);">
			<polygon style="fill:#0E4E7E;" points="112.482,32.14 88.98,8.638 112.482,8.638 			"/>
			<polygon style="fill:#F6F2CF;" points="112.482,32.14 88.98,32.14 88.98,8.638 			"/>
		</g>
		<g style="clip-path:url(#SVGID_00000048461242189863842820000003635582569191212191_);">
			<polygon style="fill:#2570B0;" points="733.693,323.853 733.693,302.257 744.491,313.055 			"/>
			<polygon style="fill:#F6F2CF;" points="722.896,313.055 733.693,323.853 733.693,302.257 			"/>
		</g>
		<g style="clip-path:url(#SVGID_00000048461242189863842820000003635582569191212191_);">
			<polygon style="fill:#0E4E7E;" points="686.719,227.72 686.719,201.755 699.702,214.737 			"/>
			<polygon style="fill:#F0E8A8;" points="673.737,214.737 686.719,227.72 686.719,201.755 			"/>
		</g>
		<g style="clip-path:url(#SVGID_00000048461242189863842820000003635582569191212191_);">
			<polygon style="fill:#0E4E7E;" points="756,506 678.988,428.988 756,428.988 			"/>
			<polygon style="fill:#2570B0;" points="756,506 678.988,506 678.988,428.988 			"/>
		</g>
		<g style="clip-path:url(#SVGID_00000048461242189863842820000003635582569191212191_);">
			<g>
				<polygon style="fill:#0E4E7E;" points="409.625,463.694 365.677,417.701 409.625,417.701 				"/>
				<polygon style="fill:#2570B0;" points="409.625,463.694 365.677,463.694 365.677,417.701 				"/>
			</g>
			<rect x="377.052" y="429.605" style="fill:#F6F2CF;" width="21.197" height="22.184"/>
		</g>
		<g style="clip-path:url(#SVGID_00000048461242189863842820000003635582569191212191_);">
			<g>
				<polygon style="fill:#0E4E7E;" points="202.262,44.16 202.262,14.962 216.861,29.561 				"/>
				<polygon style="fill:#2570B0;" points="202.262,44.16 187.663,29.561 202.262,14.962 				"/>
			</g>
			
				<rect x="197.283" y="24.582" transform="matrix(0.7071 -0.7071 0.7071 0.7071 38.3383 151.6793)" style="fill:#F6F2CF;" width="9.958" height="9.958"/>
		</g>
		<g style="clip-path:url(#SVGID_00000048461242189863842820000003635582569191212191_);">
			<g>
				<polygon style="fill:#0E4E7E;" points="47.262,191.16 47.262,165.962 59.861,178.561 				"/>
				<polygon style="fill:#2570B0;" points="47.262,191.16 34.663,178.561 47.262,165.962 				"/>
			</g>
			
				<rect x="42.965" y="174.264" transform="matrix(0.7071 -0.7071 0.7071 0.7071 -112.4191 85.7189)" style="fill:#F0E8A8;" width="8.594" height="8.594"/>
		</g>
		<g style="clip-path:url(#SVGID_00000048461242189863842820000003635582569191212191_);">
			<g>
				<polygon style="fill:#0E4E7E;" points="165.612,43.763 165.612,-48.179 211.583,-2.208 				"/>
				<polygon style="fill:#2570B0;" points="165.612,43.763 119.641,-2.208 165.612,-48.179 				"/>
			</g>
			
				<rect x="149.934" y="-17.886" transform="matrix(0.7071 -0.7071 0.7071 0.7071 50.0678 116.4587)" style="fill:#F0E8A8;" width="31.357" height="31.357"/>
		</g>
		<g style="clip-path:url(#SVGID_00000048461242189863842820000003635582569191212191_);">
			<g>
				<polygon style="fill:#0E4E7E;" points="29.972,123.356 29.972,42.23 70.535,82.793 				"/>
				<polygon style="fill:#2570B0;" points="29.972,123.356 -10.591,82.793 29.972,42.23 				"/>
			</g>
			
				<rect x="16.138" y="68.959" transform="matrix(0.7071 -0.7071 0.7071 0.7071 -49.7648 45.4427)" style="fill:#F6F2CF;" width="27.668" height="27.668"/>
		</g>
		<g style="clip-path:url(#SVGID_00000048461242189863842820000003635582569191212191_);">
			<g>
				<polygon style="fill:#0E4E7E;" points="708.039,46.783 708.039,-47.826 755.343,-0.521 				"/>
				<polygon style="fill:#2570B0;" points="708.039,46.783 660.734,-0.521 708.039,-47.826 				"/>
			</g>
			
				<rect x="691.905" y="-16.655" transform="matrix(0.7071 -0.7071 0.7071 0.7071 207.7474 500.5049)" style="fill:#F0E8A8;" width="32.267" height="32.267"/>
		</g>
		<g style="clip-path:url(#SVGID_00000048461242189863842820000003635582569191212191_);">
			<g>
				<polygon style="fill:#0E4E7E;" points="681.305,134.349 681.305,91.428 702.766,112.888 				"/>
				<polygon style="fill:#2570B0;" points="681.305,134.349 659.844,112.888 681.305,91.428 				"/>
			</g>
			
				<rect x="673.986" y="105.569" transform="matrix(0.7071 -0.7071 0.7071 0.7071 119.7232 514.8165)" style="fill:#F6F2CF;" width="14.639" height="14.639"/>
		</g>
		<g style="clip-path:url(#SVGID_00000048461242189863842820000003635582569191212191_);">
			<g>
				<polygon style="fill:#0E4E7E;" points="664.724,286.832 664.724,238.771 640.694,262.802 				"/>
				<polygon style="fill:#2570B0;" points="664.724,286.832 688.754,262.802 664.724,238.771 				"/>
			</g>
			
				<rect x="656.528" y="254.606" transform="matrix(0.7071 -0.7071 0.7071 0.7071 8.8643 547.0034)" style="fill:#F6F2CF;" width="16.391" height="16.391"/>
		</g>
		<g style="clip-path:url(#SVGID_00000048461242189863842820000003635582569191212191_);">
			<g>
				<polygon style="fill:#0E4E7E;" points="562.615,558.435 562.615,444.494 619.586,501.464 				"/>
				<polygon style="fill:#2570B0;" points="562.615,558.435 505.644,501.464 562.615,444.494 				"/>
			</g>
			
				<rect x="543.185" y="482.034" transform="matrix(0.7071 -0.7071 0.7071 0.7071 -189.8025 544.7059)" style="fill:#F0E8A8;" width="38.86" height="38.86"/>
		</g>
		<g style="clip-path:url(#SVGID_00000048461242189863842820000003635582569191212191_);">
			<polygon style="fill:#0E4E7E;" points="640.628,60.257 640.628,73.768 653.216,86.356 640.628,98.944 640.628,112.454 
				666.727,86.356 			"/>
			<polygon style="fill:#F0E8A8;" points="628.04,86.356 640.628,73.768 640.628,60.257 614.529,86.356 640.628,112.454 
				640.628,98.944 			"/>
		</g>
		<g style="clip-path:url(#SVGID_00000048461242189863842820000003635582569191212191_);">
			<polygon style="fill:#F0E8A8;" points="622.909,367.382 622.909,384.524 638.88,400.494 622.909,416.464 622.909,433.606 
				656.021,400.494 			"/>
			<polygon style="fill:#0E4E7E;" points="606.939,400.494 622.909,384.524 622.909,367.382 589.798,400.494 622.909,433.606 
				622.909,416.464 			"/>
		</g>
		
			<rect x="648.148" y="-12.412" transform="matrix(0.7071 -0.7071 0.7071 0.7071 193.6882 466.5635)" style="clip-path:url(#SVGID_00000048461242189863842820000003635582569191212191_);fill:#F6F2CF;" width="23.781" height="23.781"/>
		<g style="clip-path:url(#SVGID_00000048461242189863842820000003635582569191212191_);">
			<path style="fill:#0E4E7E;" d="M0,156.261v7.493c11.54,0,20.896,9.355,20.896,20.896S11.54,205.546,0,205.546v7.493
				c15.679,0,28.389-12.71,28.389-28.389S15.679,156.261,0,156.261z"/>
			<path style="fill:#F6F2CF;" d="M10.421,184.65c0-5.733-4.648-10.381-10.381-10.381v20.762
				C5.774,195.031,10.421,190.383,10.421,184.65z"/>
		</g>
		<g style="clip-path:url(#SVGID_00000048461242189863842820000003635582569191212191_);">
			<g>
				<path style="fill:#0E4E7E;" d="M18.25,326.858h-2.073v-76.973c0-9.587-7.8-17.387-17.387-17.387v-2.073
					c10.73,0,19.459,8.729,19.459,19.459V326.858z"/>
			</g>
			<g>
				<path style="fill:#0E4E7E;" d="M12.151,326.858h-2.073v-77.272c0-6.224-5.063-11.287-11.287-11.287v-2.073
					c7.367,0,13.36,5.993,13.36,13.36V326.858z"/>
			</g>
		</g>
	</g>
</g>
</svg>
