<?xml version="1.0" encoding="UTF-8"?>
<!DOCTYPE svg PUBLIC "-//W3C//DTD SVG 1.1//EN" "http://www.w3.org/Graphics/SVG/1.1/DTD/svg11.dtd">
<!-- Creator: CorelDRAW -->
<svg xmlns="http://www.w3.org/2000/svg" xml:space="preserve" width="210mm" height="297mm" version="1.1" style="shape-rendering:geometricPrecision; text-rendering:geometricPrecision; image-rendering:optimizeQuality; fill-rule:evenodd; clip-rule:evenodd"
viewBox="0 0 21000 29700"
 xmlns:xlink="http://www.w3.org/1999/xlink"
 xmlns:svg="http://www.w3.org/2000/svg">
 <defs>
  <style type="text/css">
   <![CDATA[
    .fil0 {fill:#047640}
    .fil1 {fill:#047640;fill-rule:nonzero}
   ]]>
  </style>
 </defs>
 <g id="Layer_x0020_1">
  <metadata id="CorelCorpID_0Corel-Layer"/>
 </g>
 <g id="Layer_x0020_1_0">
  <metadata id="CorelCorpID_1Corel-Layer"/>
  <path class="fil0" d="M9913 16588c7,22 10,48 7,78 -6,79 -4,93 28,127 -87,23 -137,-35 -128,-135 1,-18 2,-33 2,-45 20,-2 38,-10 55,-24l0 0c3,-3 6,-6 10,-9 8,4 17,7 26,8z"/>
  <path class="fil0" d="M9792 16612c0,3 -1,5 -1,7 -13,78 -12,93 18,129 -71,14 -114,-24 -120,-91 14,1 28,0 42,-5 21,-6 39,-20 53,-40l1 -1c2,0 5,1 7,1z"/>
  <path class="fil0" d="M9559 16410c19,-2 36,0 50,4 -11,10 -21,22 -29,37l-1 1c-2,-14 -9,-26 -20,-42z"/>
  <path class="fil0" d="M9444 16341c80,-6 118,46 107,126 -6,1 -11,2 -16,4 -21,7 -39,20 -53,41 -9,13 -16,29 -21,48l-3 8c-4,1 -9,2 -13,4 -10,-27 -10,-62 2,-101 22,-76 22,-91 -3,-130z"/>
  <path class="fil0" d="M9340 16261c89,1 122,71 87,165 -28,74 -30,89 -8,130 -89,-1 -122,-70 -87,-165 28,-74 30,-89 8,-130z"/>
  <path class="fil0" d="M9241 16175c89,8 116,80 74,172 -33,71 -37,86 -18,129 -89,-8 -116,-80 -74,-172 34,-72 37,-86 18,-129z"/>
  <path class="fil0" d="M9148 16083c88,15 110,88 61,176 -39,69 -43,83 -28,128 -88,-15 -110,-89 -60,-177 38,-69 43,-83 27,-127z"/>
  <path class="fil0" d="M9056 15984c88,18 106,93 54,179 -41,67 -46,82 -32,126 -88,-18 -107,-92 -54,-179 41,-67 46,-81 32,-126z"/>
  <path class="fil0" d="M8977 15880c86,24 99,100 40,182 -47,64 -52,78 -42,123 -86,-24 -99,-100 -40,-182 46,-64 52,-78 42,-123z"/>
  <path class="fil0" d="M8904 15770c85,31 92,108 27,185 -51,60 -58,73 -51,120 -84,-32 -92,-108 -26,-185 51,-60 57,-74 50,-120z"/>
  <path class="fil0" d="M8840 15656c81,38 83,114 12,186 -56,57 -63,69 -60,116 -82,-38 -83,-115 -12,-187 55,-56 63,-68 60,-115z"/>
  <path class="fil0" d="M8778 15536c80,41 78,118 5,187 -58,54 -66,66 -65,113 -80,-40 -78,-117 -5,-186 58,-54 66,-67 65,-114z"/>
  <path class="fil0" d="M8729 15414c77,47 70,123 -9,187 -61,49 -71,61 -72,108 -77,-47 -70,-124 9,-187 61,-49 71,-61 72,-108z"/>
  <path class="fil0" d="M8690 15289c73,53 59,128 -24,185 -65,45 -75,56 -81,102 -72,-52 -59,-128 24,-185 65,-44 75,-55 81,-102z"/>
  <path class="fil0" d="M8658 15162c69,58 50,132 -37,183 -69,39 -80,49 -89,95 -68,-58 -49,-132 38,-183 69,-39 79,-49 88,-95z"/>
  <path class="fil0" d="M8631 15030c66,60 44,134 -45,181 -70,37 -81,47 -92,92 -66,-60 -44,-134 45,-181 70,-37 81,-46 92,-92z"/>
  <path class="fil0" d="M8618 14899c61,66 34,138 -59,178 -72,31 -84,39 -99,84 -61,-65 -34,-137 59,-177 73,-31 85,-40 99,-85z"/>
  <path class="fil0" d="M8614 14768c56,70 23,140 -73,172 -75,26 -87,34 -105,77 -56,-70 -23,-140 73,-172 74,-26 87,-33 105,-77z"/>
  <path class="fil0" d="M8613 14634c54,72 18,140 -79,169 -76,22 -89,29 -108,72 -53,-72 -17,-140 79,-169 76,-23 89,-30 108,-72z"/>
  <path class="fil0" d="M8630 14505c46,77 3,141 -96,161 -77,15 -91,21 -114,61 -46,-77 -4,-141 95,-160 77,-16 91,-22 115,-62z"/>
  <path class="fil0" d="M8649 14373c42,79 -3,141 -103,155 -78,12 -92,17 -118,56 -42,-79 4,-141 103,-156 79,-11 92,-16 118,-55z"/>
  <path class="fil0" d="M8681 14248c35,82 -17,140 -117,144 -79,4 -94,8 -123,44 -34,-83 17,-140 118,-144 79,-4 93,-8 122,-44z"/>
  <path class="fil0" d="M8719 14119c30,85 -24,139 -125,139 -79,0 -93,3 -124,38 -30,-85 24,-139 125,-139 79,0 93,-3 124,-38z"/>
  <path class="fil0" d="M8765 13993c26,86 -31,138 -132,133 -79,-4 -93,-2 -126,32 -26,-86 31,-138 132,-133 78,4 93,2 126,-32z"/>
  <path class="fil0" d="M8823 13877c17,88 -44,135 -144,120 -78,-12 -93,-11 -128,19 -18,-88 43,-134 143,-119 78,12 93,11 129,-20z"/>
  <path class="fil0" d="M8885 13759c14,89 -50,132 -149,112 -77,-15 -92,-15 -129,14 -13,-89 50,-132 149,-112 78,15 92,15 129,-14z"/>
  <path class="fil0" d="M8958 13652c5,89 -62,127 -159,97 -76,-22 -90,-24 -130,1 -5,-89 63,-126 159,-97 76,23 91,24 130,-1z"/>
  <path class="fil0" d="M9037 13543c0,90 -69,124 -164,90 -74,-26 -89,-28 -130,-5 0,-90 69,-123 164,-90 74,27 89,28 130,5z"/>
  <path class="fil0" d="M9122 13440c-4,90 -74,120 -168,82 -73,-30 -87,-32 -129,-11 3,-90 74,-120 167,-82 73,29 88,32 130,11z"/>
  <path class="fil0" d="M9216 13350c-12,89 -86,113 -175,66 -70,-37 -84,-41 -128,-24 12,-89 85,-112 175,-66 70,37 84,41 128,24z"/>
  <path class="fil0" d="M9314 13259c-16,88 -90,109 -177,58 -68,-40 -83,-45 -127,-30 16,-88 90,-108 178,-57 68,39 82,44 126,29z"/>
  <path class="fil0" d="M9419 13182c-25,87 -100,100 -182,41 -64,-46 -78,-52 -124,-41 25,-87 101,-100 183,-41 64,46 77,52 123,41z"/>
  <path class="fil0" d="M9529 13106c-28,85 -105,95 -184,32 -62,-49 -75,-55 -121,-47 28,-85 105,-95 184,-32 62,49 75,55 121,47z"/>
  <path class="fil0" d="M9644 13037c-33,83 -109,89 -185,23 -60,-52 -73,-59 -119,-53 32,-83 109,-89 185,-23 59,52 73,59 119,53z"/>
  <path class="fil0" d="M9763 12984c-41,80 -118,78 -187,5 -54,-57 -67,-65 -113,-64 40,-80 117,-78 186,-5 54,57 67,65 114,64z"/>
  <path class="fil0" d="M9886 12931c-44,78 -121,73 -187,-3 -51,-60 -63,-69 -110,-69 44,-79 121,-74 187,3 51,60 63,69 110,69z"/>
  <path class="fil0" d="M10010 12894c-51,74 -127,61 -185,-21 -46,-65 -57,-75 -103,-80 51,-73 127,-61 185,22 46,64 57,74 103,79z"/>
  <path class="fil0" d="M10140 12860c-55,71 -131,54 -185,-31 -42,-66 -52,-77 -99,-84 55,-71 131,-55 185,30 42,67 52,77 99,85z"/>
  <path class="fil0" d="M10271 12833c-59,68 -133,49 -183,-39 -38,-69 -48,-80 -94,-89 58,-68 132,-49 182,39 39,69 49,80 95,89z"/>
  <path class="fil0" d="M10400 12824c-65,62 -137,35 -177,-58 -32,-72 -41,-84 -86,-98 65,-62 137,-35 178,58 32,72 41,84 85,98z"/>
  <path class="fil0" d="M10534 12816c-68,59 -138,28 -175,-66 -28,-74 -36,-86 -80,-102 68,-59 138,-28 174,66 29,74 37,86 81,102z"/>
  <path class="fil0" d="M10668 12817c-71,55 -140,21 -171,-74 -25,-75 -32,-88 -75,-107 70,-55 139,-21 171,75 24,75 32,88 75,106z"/>
  <path class="fil0" d="M10796 12834c-75,48 -141,7 -162,-91 -17,-77 -24,-91 -65,-113 76,-48 141,-7 163,91 17,77 23,91 64,113z"/>
  <path class="fil0" d="M10929 12854c-78,44 -141,0 -158,-100 -13,-78 -19,-91 -59,-116 78,-44 142,0 158,100 13,77 19,91 59,116z"/>
  <path class="fil0" d="M11054 12887c-82,36 -140,-14 -147,-115 -6,-79 -10,-93 -47,-121 82,-36 140,14 147,114 6,79 10,93 47,122z"/>
  <path class="fil0" d="M11183 12924c-84,32 -140,-20 -142,-121 -2,-79 -5,-94 -41,-124 84,-32 140,21 142,122 1,79 5,93 41,123z"/>
  <path class="fil0" d="M11309 12970c-86,28 -139,-27 -136,-128 2,-79 0,-94 -35,-125 85,-28 139,27 136,128 -3,79 0,93 35,125z"/>
  <path class="fil0" d="M11424 13029c-87,19 -135,-41 -122,-141 10,-78 9,-93 -22,-128 87,-20 135,41 122,141 -10,78 -9,93 22,128z"/>
  <path class="fil0" d="M11543 13092c-89,15 -133,-48 -116,-147 14,-78 13,-92 -16,-129 88,-15 133,47 116,147 -14,77 -13,92 16,129z"/>
  <path class="fil0" d="M11650 13165c-89,7 -128,-60 -101,-157 21,-76 22,-91 -4,-130 90,-7 128,60 101,157 -21,76 -22,91 4,130z"/>
  <path class="fil0" d="M11759 13243c-90,3 -125,-65 -94,-161 25,-75 26,-90 2,-130 90,-3 125,66 94,161 -25,75 -26,90 -2,130z"/>
  <path class="fil0" d="M11862 13329c-89,-2 -122,-72 -86,-166 28,-74 31,-88 9,-130 89,2 122,72 86,166 -29,74 -31,89 -9,130z"/>
  <path class="fil0" d="M11952 13423c-89,-10 -114,-83 -70,-173 35,-71 39,-85 21,-128 89,10 114,82 70,173 -35,70 -39,85 -21,128z"/>
  <path class="fil0" d="M12043 13522c-89,-14 -111,-88 -62,-176 39,-69 43,-84 27,-128 88,15 110,88 62,177 -39,69 -43,83 -27,127z"/>
  <path class="fil0" d="M12120 13627c-87,-23 -102,-98 -45,-181 45,-65 50,-79 38,-125 87,23 102,98 45,182 -44,65 -50,79 -38,124z"/>
  <path class="fil0" d="M12196 13737c-86,-26 -97,-102 -36,-183 47,-63 54,-76 44,-122 86,26 97,102 36,183 -47,63 -54,76 -44,122z"/>
  <path class="fil0" d="M12265 13852c-84,-30 -92,-107 -27,-184 50,-61 57,-74 50,-120 84,30 92,107 27,184 -50,61 -57,74 -50,120z"/>
  <path class="fil0" d="M12318 13971c-81,-38 -81,-115 -10,-186 56,-56 64,-68 62,-115 81,39 81,115 9,187 -56,55 -64,68 -61,114z"/>
  <path class="fil0" d="M12371 14095c-79,-43 -76,-119 -1,-187 58,-53 67,-65 66,-112 79,43 76,119 1,187 -58,53 -67,65 -66,112z"/>
  <path class="fil0" d="M12407 14220c-74,-50 -64,-126 17,-186 64,-47 74,-58 78,-105 74,50 63,126 -18,186 -63,47 -73,58 -77,105z"/>
  <path class="fil0" d="M12442 14349c-72,-53 -58,-129 26,-185 66,-44 76,-54 82,-101 72,54 58,129 -26,185 -66,44 -76,55 -82,101z"/>
  <path class="fil0" d="M12468 14481c-69,-57 -51,-132 35,-184 68,-40 79,-50 87,-96 70,56 52,131 -35,183 -68,40 -79,50 -87,97z"/>
  <path class="fil0" d="M12477 14610c-63,-63 -38,-136 53,-179 72,-33 84,-42 97,-87 63,63 38,136 -54,179 -71,33 -83,42 -96,87z"/>
  <path class="fil0" d="M12485 14744c-61,-66 -32,-138 62,-176 73,-30 85,-38 100,-83 60,67 31,138 -62,176 -73,30 -85,39 -100,83z"/>
  <path class="fil0" d="M12478 14874c-54,-72 -18,-140 78,-169 76,-23 89,-31 108,-73 54,72 18,140 -78,169 -76,23 -89,30 -108,73z"/>
  <path class="fil0" d="M12469 15009c-51,-74 -13,-141 84,-167 77,-20 90,-27 111,-68 51,73 13,140 -85,166 -76,20 -90,27 -110,69z"/>
  <path class="fil0" d="M12446 15139c-45,-78 -3,-141 97,-160 77,-14 91,-20 115,-60 45,77 2,141 -97,159 -78,15 -91,21 -115,61z"/>
  <path class="fil0" d="M12414 15267c-39,-81 9,-141 109,-152 78,-8 93,-13 119,-52 40,81 -8,141 -108,152 -79,9 -93,14 -120,52z"/>
  <path class="fil0" d="M12374 15393c-33,-84 19,-140 120,-144 79,-2 93,-6 123,-42 33,83 -19,140 -120,143 -79,3 -93,6 -123,43z"/>
  <path class="fil0" d="M12326 15515c-27,-85 29,-138 130,-134 79,3 94,1 126,-33 27,85 -29,138 -130,134 -79,-3 -94,-1 -126,33z"/>
  <path class="fil0" d="M12272 15639c-24,-86 34,-137 135,-129 79,6 93,4 127,-29 24,87 -34,137 -135,129 -79,-6 -93,-4 -127,29z"/>
  <path class="fil0" d="M12207 15754c-17,-88 44,-134 144,-119 78,12 93,11 129,-19 17,88 -44,134 -144,119 -78,-12 -93,-11 -129,19z"/>
  <path class="fil0" d="M12134 15865c-10,-89 54,-131 153,-109 77,18 91,18 129,-9 11,89 -53,130 -152,108 -77,-18 -92,-18 -130,10z"/>
  <path class="fil0" d="M12055 15970c-5,-90 63,-127 159,-97 76,23 91,24 130,0 5,89 -63,126 -159,96 -76,-23 -91,-24 -130,1z"/>
  <path class="fil0" d="M11968 16069c2,-89 72,-121 166,-84 74,28 88,30 130,9 -2,89 -72,121 -166,85 -74,-29 -89,-31 -130,-10z"/>
  <path class="fil0" d="M11875 16163c8,-89 81,-116 172,-73 71,34 86,38 129,19 -9,89 -81,116 -173,72 -71,-33 -85,-37 -128,-18z"/>
  <path class="fil0" d="M11776 16255c12,-89 85,-113 174,-66 70,36 85,40 128,23 -12,89 -85,113 -174,66 -70,-36 -85,-40 -128,-23z"/>
  <path class="fil0" d="M11670 16335c19,-88 93,-107 179,-53 67,41 81,46 126,32 -18,88 -93,106 -179,53 -67,-41 -81,-46 -126,-32z"/>
  <path class="fil0" d="M11560 16407c24,-86 100,-99 182,-40 64,47 78,52 123,42 -25,86 -101,99 -182,40 -64,-47 -78,-53 -123,-42z"/>
  <path class="fil0" d="M9984 16574c45,12 68,59 63,128 -6,73 -5,87 26,118 -81,21 -127,-33 -120,-126 6,-62 5,-81 -14,-105 15,-1 29,-6 43,-14l2 -1z"/>
  <path class="fil0" d="M10028 16598c77,-34 131,13 138,106 5,73 9,87 44,113 -76,34 -131,-13 -138,-106 -5,-73 -9,-87 -44,-113z"/>
  <path class="fil0" d="M10795 16384c65,-54 131,-24 163,65 26,70 33,82 74,98 -64,54 -130,24 -163,-65 -25,-70 -33,-82 -74,-98z"/>
  <path class="fil0" d="M10921 16348c70,-47 133,-11 156,81 18,72 25,85 64,105 -70,47 -133,11 -156,-81 -18,-72 -25,-85 -64,-105z"/>
  <path class="fil0" d="M11053 16324c75,-38 133,6 144,100 7,57 11,78 29,95 -4,4 -8,7 -12,11 -7,6 -12,12 -18,20 -49,0 -85,-43 -93,-114 -9,-74 -14,-88 -50,-112z"/>
  <path class="fil0" d="M11191 16315c81,-25 130,28 126,124 -2,31 -2,51 0,67 -14,-5 -28,-6 -42,-5 -14,2 -28,6 -40,13 -10,-21 -15,-48 -13,-80 3,-74 1,-88 -31,-119z"/>
  <path class="fil0" d="M11334 16331c75,-7 112,41 103,116 -14,-3 -28,-4 -41,-2 -23,3 -43,13 -60,31l-2 2c1,-8 3,-16 5,-24 19,-73 20,-87 -5,-123z"/>
  <path class="fil0" d="M11475 16379c9,2 17,4 25,7 -7,2 -14,5 -20,8 -1,-4 -3,-9 -5,-15z"/>
  <path class="fil0" d="M11649 16586c-9,18 -23,38 -42,56 -54,52 -62,64 -60,109 -31,-16 -50,-37 -56,-62 9,-9 18,-20 25,-33 14,3 27,4 40,2 23,-3 43,-13 60,-31 11,-11 21,-25 29,-42l4 1z"/>
  <path class="fil0" d="M11696 16580c64,56 45,127 -40,173 -65,36 -76,46 -85,89 -65,-56 -45,-126 39,-173 66,-36 76,-46 86,-89z"/>
  <path class="fil0" d="M11751 16704c56,65 26,132 -64,166 -71,26 -82,34 -98,76 -56,-66 -26,-133 64,-166 71,-27 83,-34 98,-76z"/>
  <path class="fil0" d="M11791 16843c40,76 -4,135 -100,148 -74,10 -88,15 -112,53 -40,-76 4,-135 99,-149 75,-10 88,-15 113,-52z"/>
  <path class="fil0" d="M11512 17472c-51,70 -124,57 -179,-23 -43,-63 -53,-73 -98,-78 51,-70 124,-57 179,23 42,63 53,73 98,78z"/>
  <path class="fil0" d="M11386 17543c-65,57 -134,29 -170,-62 -28,-71 -36,-83 -79,-98 65,-57 134,-28 170,62 28,71 36,83 79,98z"/>
  <path class="fil0" d="M11255 17578c-73,48 -137,9 -159,-86 -18,-74 -24,-87 -64,-108 73,-48 136,-9 159,86 17,74 23,87 64,108z"/>
  <path class="fil0" d="M11124 17592c-78,39 -137,-7 -149,-104 -9,-76 -14,-89 -51,-115 78,-39 137,7 148,104 9,76 14,89 52,115z"/>
  <path class="fil0" d="M10992 17590c-82,30 -136,-22 -136,-120 -1,-77 -4,-91 -38,-121 82,-30 135,22 136,120 0,77 3,91 38,121z"/>
  <path class="fil0" d="M10860 17573c-85,20 -132,-38 -121,-136 5,-37 7,-60 4,-77 7,1 14,2 21,2 20,1 39,-5 56,-15 16,24 22,59 17,102 -9,76 -7,90 23,124zm-132 -262c23,-4 43,-1 59,6 -7,3 -15,5 -22,5 -12,-1 -24,-4 -37,-11z"/>
  <path class="fil0" d="M10734 17540c-84,11 -125,-47 -109,-137 10,2 21,3 31,2 22,-1 43,-10 61,-26 4,-4 8,-8 12,-12 0,14 -2,30 -6,47 -16,75 -16,90 11,126zm-100 -177c4,-24 6,-40 4,-53 10,10 20,18 29,24 9,5 17,9 27,11 -2,1 -3,2 -4,3 -11,10 -24,16 -37,17 -7,0 -13,0 -19,-2zm18 -97c29,4 50,18 63,41 -11,-1 -19,-3 -27,-8 -10,-6 -20,-16 -36,-33z"/>
  <path class="fil0" d="M10614 17493c-39,2 -67,-10 -85,-32 5,0 10,0 14,-1 19,-1 38,-9 54,-21 -1,20 4,33 17,54z"/>
  <path class="fil0" d="M10423 17239c7,-36 2,-51 -17,-79 38,-4 66,6 85,26 -16,4 -30,12 -43,24 -9,8 -17,18 -25,29z"/>
  <path class="fil0" d="M10379 17390c-33,-3 -57,-20 -70,-48l10 -1c6,0 11,0 15,0 13,10 26,23 39,40l6 9zm-82 -108c0,-12 2,-24 4,-38 14,-76 13,-91 -16,-126 81,-14 124,38 116,123 -3,0 -6,0 -9,0 -22,2 -43,12 -61,29 -5,4 -10,10 -15,16 -6,-1 -13,-3 -19,-4zm98 0c-2,15 -4,26 -5,36 -2,-2 -5,-3 -8,-5 -9,-5 -17,-8 -26,-10 1,-1 2,-2 3,-4 11,-10 23,-15 36,-17z"/>
  <path class="fil0" d="M10310 17345c-17,5 -32,6 -46,4 -7,-5 -14,-8 -21,-10 1,-1 2,-2 4,-3 12,-9 25,-14 39,-13 2,0 4,0 6,0 4,7 10,14 18,22zm-103 -29c-17,-25 -25,-62 -20,-107 9,-77 7,-91 -24,-125 86,-21 133,37 123,136 -3,27 -5,47 -5,62 -20,0 -40,7 -59,21 -5,4 -10,8 -15,13z"/>
  <path class="fil0" d="M10209 17309c-83,31 -138,-22 -139,-121 -1,-78 -4,-92 -39,-122 83,-31 137,22 139,121 0,78 4,92 39,122z"/>
  <path class="fil0" d="M10108 17281c-77,43 -139,0 -156,-98 -13,-77 -19,-90 -58,-115 77,-43 139,0 156,98 13,77 19,91 58,115z"/>
  <path class="fil0" d="M10001 17271c-71,53 -138,18 -167,-77 -23,-75 -30,-88 -72,-107 71,-53 138,-18 167,78 23,75 30,87 72,106z"/>
  <path class="fil0" d="M9542 17462c-6,89 -77,118 -169,77 -73,-32 -87,-35 -129,-15 6,-89 77,-118 169,-77 72,32 87,35 129,15z"/>
  <path class="fil0" d="M9473 17545c3,78 -35,98 -86,101 -35,2 -77,0 -114,-6 -45,-8 -85,-31 -99,-27 6,-68 73,-98 169,-68 75,23 90,25 130,0z"/>
  <path class="fil0" d="M11075 16614c50,-75 126,-64 186,17 47,63 59,73 105,77 -49,75 -125,64 -186,-17 -47,-63 -58,-73 -105,-77z"/>
  <path class="fil0" d="M10957 16629c58,-69 133,-50 183,37 40,69 50,80 96,89 -58,68 -132,49 -183,-38 -40,-68 -50,-79 -96,-88z"/>
  <path class="fil0" d="M10840 16628c1,-2 3,-3 4,-4 18,2 36,-1 54,-9 9,-5 19,-10 28,-18 36,7 68,39 90,92 31,72 39,85 84,99 -66,61 -138,33 -177,-60 -30,-73 -39,-85 -83,-100z"/>
  <path class="fil0" d="M10856 16624c15,18 26,42 34,72 21,76 28,89 70,110 -74,51 -141,13 -167,-84 -7,-28 -13,-47 -19,-61 7,-3 14,-5 21,-9 13,-7 25,-17 37,-31l2 1c8,2 15,2 22,2z"/>
  <path class="fil0" d="M10761 16663c2,7 3,14 4,22 11,78 16,92 55,117 -76,40 -135,1 -153,-90 7,-2 14,-5 21,-9 13,-8 26,-18 38,-32l6 -8c10,2 19,2 29,0z"/>
  <path class="fil0" d="M10642 16716c1,31 10,45 32,67 -46,14 -83,4 -105,-25 13,-6 26,-15 38,-27l18 -16 0 0c6,1 11,1 17,1z"/>
  <path class="fil0" d="M10421 16454c39,-5 69,5 88,25 -12,2 -24,6 -35,13 -11,6 -22,14 -32,24 2,-25 -5,-39 -21,-62z"/>
  <path class="fil0" d="M10292 16400c81,-20 130,30 127,119 -15,0 -30,3 -45,9l0 0c-13,6 -26,15 -38,26 -7,-2 -13,-3 -20,-4 0,-7 1,-15 1,-23 8,-78 7,-93 -25,-127z"/>
  <path class="fil0" d="M10151 16370c83,-36 141,14 147,115 2,28 3,49 7,64 -11,0 -22,2 -33,5 -13,4 -26,11 -39,21 -2,-2 -5,-3 -8,-4 3,-1 5,-3 8,-4 -10,-6 -18,-11 -24,-17 -6,-17 -10,-37 -12,-59 -5,-79 -9,-93 -46,-121z"/>
  <path class="fil0" d="M10013 16355c77,-45 141,-2 159,97 15,77 20,91 61,115 -3,1 -5,3 -8,4 -17,-6 -35,-8 -54,-4 -10,2 -21,5 -32,10 -32,-15 -56,-52 -66,-107 -14,-77 -20,-91 -60,-115z"/>
  <path class="fil0" d="M9872 16362c71,-55 140,-21 171,75 24,75 32,87 75,106 -71,55 -140,21 -171,-75 -24,-75 -32,-88 -75,-106z"/>
  <path class="fil0" d="M9331 16821c-17,-88 45,-133 144,-117 78,13 93,12 129,-18 16,89 -45,134 -145,118 -78,-13 -92,-12 -128,17z"/>
  <path class="fil0" d="M9308 16975c-40,-80 7,-140 107,-152 78,-9 92,-14 119,-53 40,80 -7,141 -107,153 -79,9 -93,14 -119,52z"/>
  <path class="fil0" d="M9352 17137c-67,-59 -46,-133 43,-181 69,-38 80,-47 90,-93 67,59 46,133 -42,181 -70,38 -81,48 -91,93z"/>
  <path class="fil0" d="M9408 17259c-59,-42 -52,-111 15,-174 57,-54 65,-66 64,-113 80,41 78,117 5,186 -41,38 -57,56 -62,79 -7,5 -14,12 -20,19 -1,1 -2,2 -2,3z"/>
  <path class="fil0" d="M9473 17219c3,-6 7,-12 11,-17 44,-66 49,-79 38,-125 41,11 67,34 75,64 -5,0 -10,0 -15,0 -22,2 -43,11 -62,27 -11,11 -22,25 -31,42l-4 8c-4,0 -8,0 -12,1z"/>
  <path class="fil0" d="M9657 17467c-19,0 -34,-3 -48,-8 5,-5 9,-11 13,-18 4,-6 8,-14 11,-22 3,0 5,-1 8,-1 0,16 5,30 16,49z"/>
  <path class="fil0" d="M9794 17524c-80,17 -126,-32 -123,-117 11,-6 22,-15 31,-26 4,-5 8,-12 12,-18 5,0 10,0 14,0 17,-2 32,-7 47,-16 1,15 0,32 -2,49 -11,78 -9,93 21,128z"/>
  <path class="fil0" d="M9942 17548c-81,37 -140,-12 -148,-112 -4,-48 -8,-72 -18,-90 5,-3 9,-6 14,-10 3,-3 6,-6 9,-9 4,1 8,2 12,2 14,2 29,2 43,-3 22,22 36,56 40,102 6,78 11,92 48,120zm-196 -232l-1 0c3,-1 5,-3 8,-4 -2,2 -5,3 -7,4z"/>
  <path class="fil0" d="M10087 17547c-74,50 -140,12 -165,-85 -20,-77 -27,-90 -68,-111 74,-50 140,-12 165,86 20,76 27,89 68,110z"/>
  <path class="fil0" d="M10227 17529c-66,60 -137,32 -175,-61 -30,-73 -38,-85 -83,-100 67,-60 138,-32 176,61 30,73 38,85 82,100z"/>
  <path class="fil0" d="M10363 17496c-59,68 -133,48 -182,-40 -38,-69 -48,-80 -93,-89 58,-68 132,-48 181,40 39,69 48,80 94,89z"/>
  <path class="fil0" d="M10965 17261c-54,72 -129,57 -184,-27 -43,-66 -54,-76 -100,-82 53,-72 128,-57 184,27 43,65 54,76 100,82z"/>
  <path class="fil0" d="M11083 17247c-61,66 -134,43 -180,-46 -36,-70 -46,-82 -91,-93 61,-65 134,-43 180,47 36,70 46,81 91,92z"/>
  <path class="fil0" d="M11204 17241c-66,61 -137,32 -176,-61 -30,-72 -39,-84 -83,-99 66,-61 137,-32 176,61 30,72 38,85 83,99z"/>
  <path class="fil0" d="M11319 17257c-74,50 -141,11 -165,-86 -20,-76 -26,-90 -68,-111 74,-50 140,-11 165,86 19,76 26,89 68,111z"/>
  <path class="fil0" d="M11336 17286c-29,-18 -49,-55 -56,-107 -11,-78 -16,-92 -55,-117 79,-42 141,4 154,103 7,48 11,72 23,89 -3,0 -5,0 -8,0 -22,4 -41,14 -58,31l0 1z"/>
  <path class="fil0" d="M11404 17239c-1,-11 -1,-24 -1,-38 5,-78 2,-93 -31,-125 58,-18 101,3 120,49 -9,10 -16,22 -21,35 -3,8 -6,17 -7,27 -1,0 -3,0 -4,1 -20,7 -37,21 -50,42 -2,3 -4,6 -6,9z"/>
  <path class="fil0" d="M11721 17470c-52,1 -85,-22 -97,-60 5,-7 10,-16 14,-25l11 -27c3,-1 5,-1 7,-2 20,-8 37,-22 50,-42 8,-13 14,-29 18,-47l7 -28 1 -1c10,27 8,63 -6,103 -26,74 -28,89 -5,129z"/>
  <path class="fil0" d="M11795 17560c-88,-12 -112,-84 -66,-173 36,-70 40,-84 23,-128 89,12 112,85 66,174 -36,69 -40,84 -23,127z"/>
  <path class="fil0" d="M11857 17660c-86,-24 -100,-99 -42,-181 45,-64 51,-78 40,-123 86,23 100,99 42,181 -45,64 -51,77 -40,123z"/>
  <path class="fil0" d="M11894 17653c-18,7 -33,-11 -10,-53 37,-55 65,-90 60,-136 53,22 105,97 98,131 -5,31 -98,46 -148,58z"/>
  <path class="fil1" d="M11944 18154l27 65c-123,-133 -166,-253 -128,-362 96,20 211,0 344,-60 82,96 102,203 61,324l-38 -90 0 92 -36 -94 -12 122 -61 -99 27 121 -54 -57 0 61 -26 -21 0 43 -80 -85 13 73 -37 -33z"/>
  <path class="fil1" d="M9399 17896c-11,-6 -15,-15 -13,-26 -2,-19 -11,-30 -28,-32 -14,-2 -33,-4 -57,-3 -70,-5 -139,-19 -206,-40 -22,-8 -33,-23 -33,-47 -15,22 -33,43 -58,62 -19,15 -35,36 -47,64 -26,72 -27,146 -5,221l41 -79 0 77 48 -83 9 111 55 -101c-7,40 -14,81 -21,121l56 -56 0 62 33 -32 -11 43 91 -74 -12 65 44 -33 -27 59c37,-36 69,-77 95,-124 49,-87 64,-139 46,-155z"/>
  <path class="fil1" d="M12154 17716c13,30 10,50 -10,61 -115,46 -215,60 -301,42 -17,-4 -26,-12 -26,-22 -12,-31 -15,-61 -8,-91 4,-16 22,-25 52,-26 55,-7 105,-19 149,-35 44,-17 76,-17 95,0 19,18 35,41 49,71z"/>
  <path class="fil0" d="M9431 17710c3,17 1,37 -6,61 -16,26 -47,40 -93,40 -70,-5 -139,-19 -206,-40 -22,-8 -33,-23 -33,-47 8,-26 21,-49 38,-68 19,-21 41,-26 66,-15 53,21 107,29 160,25 43,-4 67,11 74,44z"/>
  <path class="fil0" d="M11798 16995c17,84 -42,128 -137,114 -75,-11 -89,-10 -123,19 -17,-84 42,-129 137,-114 75,11 89,10 123,-19z"/>
  <path class="fil0" d="M11765 17135c-1,86 -68,117 -158,83 -71,-27 -85,-29 -125,-8 2,-86 68,-117 159,-83 71,27 85,29 124,8z"/>
  <path class="fil0" d="M11619 17376c-35,80 -108,82 -179,16 -55,-53 -67,-60 -112,-56 34,-79 108,-82 179,-15 55,52 67,60 112,55z"/>
  <path class="fil0" d="M11704 17263c-18,84 -90,101 -172,50 -64,-40 -77,-45 -121,-32 19,-84 90,-102 173,-50 64,40 77,45 120,32z"/>
  <path class="fil0" d="M10494 17445c-49,75 -125,65 -185,-16 -47,-63 -58,-73 -105,-77 49,-74 125,-64 185,17 47,63 58,73 105,76z"/>
  <path class="fil0" d="M10617 17381c-41,80 -117,78 -186,4 -54,-57 -66,-66 -113,-64 41,-80 118,-78 186,-4 54,57 66,65 113,64z"/>
  <path class="fil0" d="M10731 17328c-42,78 -119,75 -186,0 -52,-59 -64,-67 -111,-67 42,-79 119,-75 186,0 52,58 64,67 111,67z"/>
  <path class="fil0" d="M10846 17291c-49,75 -125,65 -185,-15 -48,-63 -59,-73 -105,-76 49,-75 125,-65 185,15 47,63 59,73 105,76z"/>
  <path class="fil0" d="M9428 17271c-80,-40 -78,-117 -5,-186 57,-54 65,-66 64,-113 80,41 78,117 5,186 -57,54 -66,67 -64,113z"/>
  <path class="fil0" d="M9902 17270c-59,67 -132,47 -181,-41 -38,-68 -47,-79 -93,-89 59,-67 132,-46 181,41 37,68 47,80 93,89z"/>
  <path class="fil0" d="M9803 17285c-42,78 -118,75 -185,0 -53,-58 -65,-66 -111,-66 42,-78 118,-75 185,0 53,58 65,66 111,66z"/>
  <path class="fil0" d="M9707 17329c-29,84 -105,92 -183,28 -61,-49 -74,-56 -120,-48 30,-85 106,-93 184,-29 60,50 74,56 119,49z"/>
  <path class="fil0" d="M9620 17389c-17,87 -92,106 -178,54 -67,-41 -81,-45 -125,-31 17,-88 92,-107 178,-55 67,41 81,46 125,32z"/>
  <path class="fil0" d="M9729 16400c58,-68 133,-48 182,40 39,68 49,79 95,88 -58,68 -132,49 -182,-39 -39,-68 -49,-79 -95,-89z"/>
  <path class="fil0" d="M9597 16462c45,-78 122,-72 187,6 50,60 62,69 109,71 -46,77 -122,71 -187,-7 -50,-60 -62,-69 -109,-70z"/>
  <path class="fil0" d="M9480 16565c23,-87 98,-102 181,-45 65,45 79,50 124,39 -22,86 -97,101 -181,44 -64,-44 -78,-50 -124,-38z"/>
  <path class="fil0" d="M9391 16685c3,-90 73,-121 167,-84 73,30 87,32 129,11 -3,89 -73,120 -167,83 -73,-29 -88,-32 -129,-10z"/>
  <path class="fil0" d="M10136 16602c71,-42 131,-3 149,89 14,73 19,85 57,107 -72,43 -132,3 -150,-89 -13,-72 -19,-85 -56,-107z"/>
  <path class="fil0" d="M10675 16429c60,-59 128,-34 167,52 31,67 40,78 82,91 -60,59 -128,34 -167,-52 -31,-67 -40,-78 -82,-91z"/>
  <path class="fil0" d="M10241 16594c66,-51 131,-20 160,70 23,70 30,82 70,99 -66,51 -130,20 -160,-70 -22,-70 -29,-82 -70,-99z"/>
  <path class="fil0" d="M10348 16571c61,-58 128,-33 166,54 29,67 38,78 79,92 -60,57 -128,32 -166,-54 -29,-68 -37,-79 -79,-92z"/>
  <path class="fil0" d="M10451 16537c55,-64 125,-45 171,37 36,64 46,75 88,84 -54,63 -124,45 -170,-37 -37,-65 -46,-75 -89,-84z"/>
  <path class="fil0" d="M10559 16483c56,-63 125,-44 171,39 36,65 45,75 88,85 -56,63 -125,44 -171,-39 -36,-65 -45,-76 -88,-85z"/>
  <path class="fil0" d="M11444 16471c32,-84 108,-91 185,-26 61,51 74,58 120,51 -31,84 -108,91 -185,26 -60,-51 -73,-58 -120,-51z"/>
  <path class="fil0" d="M11325 16528c38,-82 115,-83 186,-12 57,55 69,63 116,59 -38,82 -114,83 -186,13 -57,-56 -69,-64 -116,-60z"/>
  <path class="fil0" d="M11201 16581c41,-80 118,-78 187,-5 54,58 66,66 113,64 -41,81 -117,79 -187,6 -54,-58 -66,-66 -113,-65z"/>
  <path class="fil1" d="M5352 13846c54,514 66,1010 37,1487 45,224 157,314 338,272 -98,-40 -175,-97 -231,-173 -16,-120 7,-251 71,-393 52,-115 142,-182 270,-200l237 -27c202,-20 332,-104 388,-251 19,127 2,239 -50,337 -59,89 -164,140 -316,153l-323 26c-92,6 -156,41 -191,104 36,146 172,229 408,250 234,20 412,-68 534,-266 20,145 -15,268 -106,369 -109,121 -233,203 -373,244 43,127 149,171 319,130 171,-59 263,-148 274,-268l-42 -1344 125 -219c573,216 756,664 550,1343 7,-663 -178,-1021 -558,-1074l21 1338c0,203 -86,355 -259,456 -82,43 -168,60 -256,51 -159,-31 -240,-164 -245,-399 -248,73 -449,42 -604,-93 -10,49 4,99 42,148 57,60 126,99 208,117 43,11 89,28 139,51 119,53 139,160 61,322 -154,-122 -303,-159 -448,-110 -48,19 -96,44 -141,77 -111,74 -218,99 -321,74 -96,-31 -170,-147 -220,-346 -28,-209 -34,-455 -18,-741 32,-710 -17,-1166 -147,-1369l168 -211c100,357 150,707 151,1051l-12 742c-29,383 31,586 181,607 88,10 164,-13 229,-70 64,-57 130,-75 197,-53 -56,-32 -107,-94 -151,-187 -38,-125 -50,-290 -39,-495 23,-405 -1,-818 -71,-1240l174 -220z"/>
  <path class="fil1" d="M4082 16078c93,-146 168,-225 227,-236 3,-1 7,-2 11,-2 79,-18 169,-2 271,48 -24,40 -71,89 -140,146 -99,-57 -189,-59 -271,-6 -8,79 26,128 103,146 130,15 260,-4 389,-58l-52 193c-187,2 -359,72 -517,208 -9,-34 -13,-64 -14,-89 35,-37 74,-67 116,-93 -73,-42 -120,-99 -140,-170 -5,-32 1,-61 17,-87z"/>
  <path class="fil0" d="M16182 15317c217,143 292,310 224,503 -140,226 -308,307 -505,245 -39,187 31,285 211,292 184,-11 364,-80 539,-209 2,-181 -26,-355 -82,-523 -24,-16 -50,-31 -76,-46 59,-104 126,-196 200,-277 82,182 147,372 194,569 -36,-34 -73,-68 -112,-100 30,148 19,282 -34,404 -107,188 -252,323 -433,403 -234,111 -399,82 -495,-85 -72,-123 -64,-274 24,-452 -148,-64 -308,-114 -481,-148 -383,199 -659,258 -828,177 -109,-87 -126,-230 -52,-427 -181,79 -373,119 -575,119 -268,0 -458,-47 -569,-140l-261 198 18 -119 166 -144c-84,-94 -128,-204 -131,-329 -1017,256 -1985,378 -2904,365 -773,-11 -1415,-148 -1925,-412 -238,-144 -392,-174 -461,-92 -69,82 -138,262 -206,541 -65,187 -173,286 -322,296 -223,-28 -335,-339 -336,-933 106,464 223,687 352,667 97,-28 162,-141 196,-340 14,-103 35,-201 65,-293 119,-286 288,-347 507,-183 116,97 249,178 400,244 520,191 1166,293 1938,307 920,17 1888,-135 2905,-457 -31,156 16,299 138,430l432 -376c410,-297 730,-333 962,-107 114,121 93,291 -63,510 -63,80 -140,147 -231,200 -76,291 82,360 474,208 -197,-85 -227,-230 -88,-435 153,-225 339,-375 559,-451l-21 -77c-9,-1 -19,-3 -28,-4 53,-118 110,-223 171,-316l432 508c-106,-53 -212,-95 -317,-128 104,145 247,284 429,417zm-2424 176c-57,-18 -116,-38 -180,-59 244,-221 498,-360 763,-416 178,-39 293,-1 347,114 36,128 -6,225 -126,292 -275,111 -525,139 -751,83 -18,-4 -36,-9 -53,-14zm1470 -290c-90,68 -140,162 -149,282 35,63 128,115 280,155 249,-150 348,-323 296,-519 -157,-29 -299,-2 -427,82zm954 508c-57,-116 -173,-256 -347,-420 -28,158 -107,301 -236,427 165,77 318,127 459,151 114,-2 156,-54 124,-158z"/>
  <polygon class="fil1" points="14097,14371 14292,14566 14097,14760 13902,14566 "/>
  <polygon class="fil1" points="16470,14802 16665,14997 16470,15191 16276,14997 "/>
  <polygon class="fil1" points="8036,14593 7861,14418 7686,14593 7491,14398 7686,14204 7861,14379 8036,14204 8230,14398 "/>
  <path class="fil1" d="M4881 13792c67,86 95,201 85,345 84,-159 87,-311 7,-454 -39,30 -70,66 -92,109z"/>
  <path class="fil1" d="M15405 14598l233 -153c83,-128 151,-260 205,-396 -179,-23 -356,8 -530,94l-89 265c86,-95 193,-139 321,-133 69,21 87,54 55,97 -101,77 -234,152 -400,226l205 0z"/>
  <path class="fil1" d="M14790 14105l-80 104c-116,152 -152,265 -108,341 48,81 112,111 191,88 82,-28 124,-85 125,-171 -99,51 -171,53 -215,4 -46,-50 -12,-155 100,-316l-13 -50z"/>
  <path class="fil1" d="M13647 14602l0 -53c-50,91 -86,167 -107,228 -22,61 -23,108 -4,140 19,32 55,38 110,17 56,-24 81,-63 77,-117 -20,21 -45,33 -74,36 -35,0 -56,-11 -64,-33 -14,-54 6,-126 62,-218z"/>
  <path class="fil1" d="M14520 14159l157 -134 -1055 270c-147,38 -301,93 -462,164 -52,49 -96,100 -131,151 263,-124 532,-218 804,-283l687 -168z"/>
  <path class="fil1" d="M16937 13867c-163,-35 -261,42 -295,229 -25,173 -63,267 -114,281 -56,-244 -153,-375 -291,-393 -59,-4 -95,13 -108,52 -40,92 -52,167 -35,226 36,40 96,53 178,38 96,-4 148,9 156,39 33,48 -23,142 -169,281 171,8 302,-71 393,-237 27,-50 51,-99 71,-149 47,-110 108,-135 182,-75 20,-95 31,-192 32,-292z"/>
  <path class="fil1" d="M16855 13531c-549,106 -1104,236 -1663,390l-198 194c572,-182 1151,-335 1735,-457l126 -127z"/>
  <path class="fil1" d="M4190 14078c-21,52 -24,94 -9,126 19,40 52,52 99,36 50,-20 88,-69 113,-146 -45,22 -83,29 -113,21 -39,-17 -47,-54 -24,-113l48 -105 0 -66 -114 247z"/>
  <path class="fil1" d="M4161 14956c259,-116 530,-209 816,-278l617 -170 104 -104 -739 211c-237,60 -466,136 -688,229l-110 112z"/>
  <path class="fil1" d="M4436 15215c-37,22 -66,50 -88,83 -32,50 -44,94 -35,132 13,61 46,93 100,96 36,1 55,-12 57,-36 -29,-42 -76,-66 -142,-74 2,-26 10,-51 23,-72 73,-2 128,24 167,80 9,39 -11,77 -58,114 -48,33 -94,45 -139,37 -46,-8 -72,-35 -80,-78 -2,-15 0,-42 7,-80 8,-38 26,-79 56,-120 29,-42 73,-73 131,-93l1 11z"/>
  <path class="fil1" d="M4161 14686c259,-122 530,-218 816,-287l617 -170 104 -104 -739 212c-237,59 -466,135 -688,228l-110 121z"/>
  <path class="fil0" d="M6121 14066c-47,51 -89,110 -124,179 -23,50 -23,103 0,156l23 55c-327,275 -655,436 -985,482 229,89 563,-58 1002,-440 30,47 31,103 1,166l71 -69c10,-12 17,-28 22,-49 9,-47 4,-92 -14,-134 53,-44 98,-102 136,-176 35,-85 35,-148 0,-188 -39,-36 -82,-30 -132,18zm20 69c-26,1 -48,22 -67,61 -23,40 -29,74 -18,100l42 79 65 -70c37,-40 50,-79 40,-117 -9,-39 -30,-57 -62,-53z"/>
  <polygon class="fil0" points="10632,10657 10846,11320 11542,11319 10978,11727 11194,12389 10632,11979 10069,12389 10285,11727 9721,11319 10418,11320 "/>
  <polygon class="fil0" points="8975,11794 9087,12140 9450,12139 9156,12352 9269,12697 8975,12483 8682,12697 8795,12352 8501,12139 8864,12140 "/>
  <polygon class="fil0" points="12201,11794 12313,12140 12676,12139 12382,12352 12495,12697 12201,12483 11908,12697 12021,12352 11727,12139 12090,12140 "/>
  <polygon class="fil0" points="13093,12788 13205,13134 13568,13133 13273,13346 13386,13691 13093,13477 12800,13691 12913,13346 12618,13133 12981,13134 "/>
  <polygon class="fil0" points="8043,12788 8155,13134 8518,13133 8224,13346 8337,13691 8043,13477 7750,13691 7863,13346 7569,13133 7932,13134 "/>
  <polygon class="fil0" points="8270,15941 8382,16287 8745,16286 8451,16499 8564,16844 8270,16630 7977,16844 8090,16499 7796,16286 8159,16287 "/>
  <polygon class="fil0" points="12814,15920 12925,16266 13288,16265 12994,16478 13107,16823 12814,16609 12520,16823 12633,16478 12339,16265 12702,16266 "/>
  <polygon class="fil0" points="9642,18096 9875,18375 10211,18238 10018,18546 10252,18823 9900,18735 9708,19043 9683,18681 9331,18594 9668,18458 "/>
  <polygon class="fil0" points="11529,18096 11296,18375 10959,18238 11152,18546 10918,18823 11271,18735 11462,19043 11487,18681 11840,18594 11503,18458 "/>
  <path class="fil0" d="M6961 17190l0 76c70,0 123,35 123,69l0 722c0,32 -41,67 -122,68l0 77c73,-3 139,-4 166,-4 26,0 96,1 209,4l0 -77c-38,0 -81,-4 -94,-12 -13,-9 -19,-39 -19,-56l0 -701 505 846 133 1 -1 -868c-1,-32 40,-67 121,-69l0 -76c-72,3 -138,4 -165,4 -26,0 -96,-1 -209,-4l0 76c37,0 81,4 94,13 12,8 19,39 19,56l1 540 -436 -685 -325 0z"/>
  <path class="fil0" d="M13719 18215c-152,0 -271,-48 -347,-107 -75,-59 -130,-129 -130,-420l0 -353c0,-17 -7,-48 -19,-56 -13,-9 -57,-13 -94,-13l0 -76c113,3 190,4 232,4 42,0 116,-1 187,-4l0 76c-45,1 -75,6 -89,14 -15,9 -22,39 -22,55l0 488c0,193 113,278 293,278 68,0 118,-35 152,-82 33,-47 50,-102 50,-188l0 -496c0,-17 -6,-48 -19,-56 -13,-9 -56,-13 -94,-13l0 -76c113,3 183,4 211,4 27,0 93,-1 165,-4l0 76c-45,1 -75,6 -90,14 -14,9 -22,39 -22,55l0 495c0,256 -213,385 -364,385z"/>
  <path class="fil1" d="M10844 13192l-5 -1 -9 -1c-3,-1 -7,-2 -11,-2l-7 -1 -10 -2 -10 -1 -9 -2c-4,0 -8,-1 -11,-1l-6 -1c-5,0 -10,-1 -15,-2l-3 0 -7 -1c9,39 18,78 26,117 62,-22 122,-49 179,-80 -27,-7 -54,-13 -81,-18l-5 -1 -10 -2 -6 -1zm270 74c43,66 84,134 122,204 39,-28 78,-58 115,-90 -76,-45 -155,-83 -237,-114zm159 277c56,112 104,228 143,348 46,140 80,286 102,436 166,-52 326,-116 480,-193 -78,-195 -195,-371 -341,-517 -71,-71 -150,-136 -234,-192 -47,42 -97,82 -150,118zm65 373c-37,-113 -82,-222 -133,-328 -72,45 -149,83 -228,114 -42,17 -84,32 -128,44 11,69 20,138 28,207 19,164 33,330 41,497 138,-14 273,-38 404,-70 39,-9 78,-19 116,-30 -20,-149 -54,-294 -100,-434zm-171 -401c-46,-85 -96,-168 -151,-247 -73,43 -151,78 -232,107 20,96 37,193 53,290 37,-11 74,-24 110,-39 77,-30 151,-67 220,-111zm361 894c11,95 16,191 16,288 0,122 -8,242 -25,359 204,-63 399,-146 583,-247 1,-4 1,-8 1,-12 2,-32 3,-64 3,-96 0,-7 0,-13 0,-20l0 0c0,-6 0,-13 0,-19l0 -1c-1,-13 -1,-26 -2,-38l0 -1c0,-6 -1,-12 -1,-18l0 -2c0,-6 -1,-12 -1,-18l0 -2c-1,-6 -1,-11 -2,-17l0 -3c-1,-5 -1,-10 -2,-16l0 -4c-1,-5 -1,-10 -2,-15l0 -4c-1,-5 -1,-10 -2,-15l-1 -5c0,-4 -1,-9 -1,-13l-1 -6c-1,-4 -1,-9 -2,-13l-1 -7c-1,-4 -1,-8 -2,-12l-1 -7c-1,-4 -1,-7 -2,-11l-1 -4 -1 -4 -2 -11 -2 -12 -1 -3c-1,-5 -2,-10 -3,-15l-1 -6c-1,-5 -2,-11 -3,-16l0 -1c-12,-51 -26,-102 -43,-151 -159,79 -325,145 -498,198zm-66 288c0,-89 -5,-178 -14,-265 -35,10 -71,19 -107,28 -137,33 -277,57 -419,72 3,88 5,177 5,265 0,129 -4,257 -11,384 156,-17 308,-45 456,-83 20,-5 41,-11 61,-16 19,-126 29,-254 29,-385zm43 449c-21,124 -52,246 -91,364 -17,51 -35,102 -56,152 187,-47 368,-111 540,-190 99,-170 167,-361 194,-565 -186,98 -382,178 -587,239zm-169 338c34,-102 61,-206 82,-313 -9,2 -17,4 -26,6 -156,40 -316,70 -480,87 -7,92 -14,185 -24,277 -7,69 -15,138 -24,206 133,-12 264,-32 393,-61l3 0c28,-66 54,-133 76,-202zm-17 272c-60,134 -131,262 -212,382 209,-77 396,-199 550,-353 35,-35 68,-71 99,-109l1 -1c3,-4 7,-8 10,-12l2 -3c3,-4 6,-8 9,-12l2 -2c3,-4 6,-8 9,-11l3 -5c3,-3 6,-7 8,-10l3 -4c3,-4 5,-7 8,-10l4 -6 2 -3c-160,66 -327,119 -498,159zm-341 424c92,-126 173,-260 240,-402 -120,24 -242,42 -366,52 -19,131 -42,261 -68,390 66,-10 131,-23 194,-40zm-210 -344c-65,4 -132,6 -199,6 -67,0 -133,-2 -200,-6 20,132 43,263 70,392 44,4 89,6 134,6 43,0 84,-2 126,-5 27,-130 50,-261 69,-393zm-199 -76c71,0 142,-2 211,-6 10,-74 19,-147 27,-221 9,-87 16,-174 22,-262 -86,7 -172,10 -260,10 -87,0 -174,-3 -260,-10 6,88 13,175 22,261 8,74 17,148 27,222 70,4 140,6 211,6zm-283 70c-112,-9 -223,-25 -332,-45 95,157 211,300 345,424 18,4 36,7 54,9 -26,-128 -48,-257 -67,-388zm-384 -139c121,26 246,44 372,56 -9,-69 -17,-137 -24,-206 -10,-92 -18,-185 -24,-277 -162,-17 -321,-46 -475,-86 -11,-3 -22,-5 -33,-8 28,140 70,275 127,402 17,41 36,80 57,119zm-55 72c-177,-40 -349,-94 -515,-162 48,65 100,127 157,184 181,180 406,316 658,389 -116,-123 -217,-262 -300,-411zm-596 -286c174,79 357,143 547,190 -10,-20 -19,-41 -28,-62 -64,-145 -112,-299 -140,-460 -201,-60 -393,-138 -575,-233 28,204 96,395 196,565zm366 -422c-11,-84 -17,-170 -17,-258 0,-130 13,-257 36,-380 -179,-53 -352,-121 -517,-203 -51,153 -79,317 -79,487 0,32 1,63 3,95 1,6 1,11 1,18 182,98 373,179 573,241zm65 -258c0,97 7,191 21,284 23,6 45,12 68,18 146,38 297,65 451,82 -7,-127 -11,-255 -11,-384 0,-88 2,-177 5,-265 -141,-15 -279,-39 -415,-71 -29,-7 -57,-15 -86,-22 -21,116 -33,236 -33,358zm-29 -461c43,-181 111,-353 199,-512 21,-37 42,-74 65,-109 -121,-45 -235,-106 -339,-179 -31,26 -60,53 -89,81 -147,147 -264,324 -342,520 162,80 331,147 506,199zm270 -473c-85,154 -150,320 -191,496 29,8 59,15 88,22 130,31 264,55 400,69 8,-167 22,-333 41,-497 6,-51 13,-103 20,-154 -98,-10 -193,-29 -284,-57 -26,39 -51,80 -74,121zm41 -218c51,-72 106,-141 166,-206 -22,-3 -44,-7 -66,-11 -81,-16 -159,-38 -235,-68 -65,37 -127,77 -185,122 98,67 206,122 320,163zm238 -280c59,-59 123,-113 189,-164l6 -23c-165,19 -322,64 -467,131 48,16 98,29 149,38 40,8 81,14 123,18zm380 -197c-41,26 -80,52 -118,80 -8,39 -17,79 -25,118 86,-7 170,-23 250,-46 -10,-50 -22,-100 -33,-150 -25,-1 -50,-2 -74,-2zm-219 160c-16,14 -32,28 -48,43 4,0 7,0 11,0 10,0 19,0 29,0 3,-14 5,-29 8,-43zm-130 122c-68,69 -130,143 -187,221 80,23 162,38 247,47 13,-89 29,-177 45,-265 -4,0 -8,0 -12,0 -31,0 -62,-1 -93,-3zm184 -356l0 0 14 -2c47,-4 94,-6 142,-6 21,0 42,1 63,1l-1 0 38 2c128,8 252,31 370,67l0 0 3 1c149,45 288,111 416,195l23 15 -1 0c83,57 160,121 231,192 152,152 274,335 356,538l1 -1 10 30c46,119 78,245 94,376l1 7c0,4 1,9 1,13l1 8 1 11 1 12 1 7c0,5 1,10 1,15l0 3c1,6 1,12 2,18l0 3c0,6 1,12 1,18l0 2c0,6 1,12 1,19l0 2c0,6 0,13 1,19l0 0c0,14 0,28 0,42 0,5 0,11 0,16 -1,47 -3,93 -7,139l-1 3 0 0c-37,383 -208,727 -465,984 -249,249 -580,417 -948,461l0 1 -8 0c-55,7 -111,10 -168,11 -6,0 -12,0 -18,0 -6,0 -12,0 -18,0 -3,0 -7,0 -10,0l-1 0c-56,-1 -111,-5 -166,-12l-7 -1 0 0c-365,-45 -692,-213 -940,-460 -256,-256 -426,-598 -465,-979l0 0 0 -2c-4,-48 -7,-96 -8,-145 0,-5 0,-11 0,-16 0,-7 0,-14 0,-21l0 0c1,-7 1,-14 1,-20l0 -1c0,-6 0,-13 1,-20l0 -1c0,-6 0,-12 0,-19l1 -2c0,-6 0,-12 0,-17l1 -5c0,-6 1,-11 1,-16l0 -5c1,-5 1,-9 1,-14l1 -9 1 -9c0,-4 1,-8 1,-12l1 -8c15,-138 48,-270 96,-396l9 -26 1 0c82,-204 204,-388 357,-541 26,-25 52,-50 79,-73l-1 -1 21 -17c244,-207 551,-342 887,-374zm5 356c-17,90 -33,182 -47,273 18,1 37,2 56,2 112,0 222,-14 326,-39 -15,-96 -32,-191 -51,-286 -91,26 -186,43 -284,50zm-59 355c-8,52 -14,105 -21,158 -19,163 -33,328 -41,495 89,7 178,11 268,11 90,0 180,-4 268,-11 -8,-167 -22,-332 -41,-496 -8,-65 -17,-130 -26,-195 -109,26 -223,40 -339,40 -23,0 -46,-1 -68,-2zm-65 735c-3,85 -5,171 -5,257 0,132 4,262 11,392 87,7 176,10 265,10 90,0 178,-3 265,-10 7,-130 11,-260 11,-392 0,-86 -2,-172 -5,-257 -89,7 -180,11 -271,11 -91,0 -182,-4 -271,-11zm1787 -95l-2 -11 2 11zm103 272c0,17 -1,34 -2,53l2 -53z"/>
  <path class="fil0" d="M10573 13086c892,0 1615,723 1615,1615 0,892 -723,1615 -1615,1615 -892,0 -1615,-723 -1615,-1615 0,-892 723,-1615 1615,-1615zm-2 2013l-5 1 -6 4 -5 2 -2 1 -2 -1 0 2 -1 2 -1 2 -1 2 0 3 2 3 1 2 1 2 5 -2 4 -1 9 2 9 -1 10 2 9 3 2 0 2 0 2 -1 2 0 6 1 4 -5 3 0 4 1 1 1 2 2 3 -1 5 -1 10 -5 4 0 6 0 4 0 2 0 4 -2 3 -2 6 -1 2 -1 1 -1 -2 -4 4 -2 1 -2 1 -1 3 -1 -2 -7 -2 -2 -3 -1 -2 2 -2 2 7 2 -3 3 -4 2 -6 2 -2 1 -2 2 -1 2 -1 2 -1 1 -5 2 -3 -1 -8 -5 -2 -1 -2 -1 -2 1 -2 1 -5 0 -3 0 -3 1 -3 2 -2 1 -2 -1 -3 -1 -4 -3 -7 -2 -4 -2 -5 -2 -6 0 -2 -1 -4 -3 -3 1 -2 0 -3 0 -3 0zm1086 -1482c-138,-138 -302,-249 -484,-327l0 1 3 1 -8 4 -8 6 -3 4 -2 4 -2 4 -1 5 -2 -2 -7 -8 -5 -2 -7 -1 -2 0 -14 7 -2 5 -4 8 -2 3 -2 0 -2 2 -1 6 -5 4 -3 1 -4 -2 -2 1 2 -6 -4 -1 -5 0 0 -4 -2 -3 2 -3 0 -2 1 -2 0 -2 0 -2 -3 0 -1 -1 0 -5 -2 0 -4 1 -8 3 -2 0 3 -2 8 -4 3 -2 7 -5 5 -3 2 -5 1 -3 1 -2 2 -4 2 -2 4 -3 2 0 3 5 3 3 3 0 4 -2 2 -1 5 1 5 -2 2 -3 1 -3 -2 -5 2 0c-5,-2 -11,-4 -16,-6l-3 1 -2 2 -6 -1 -10 3 -5 1 -5 -2 -5 -3 -4 1 -3 5 -2 9 -2 4 0 5 -3 -1 -13 -9 -1 0 -11 2 -3 0 -4 2 -4 1 -3 -1 -3 -3 -4 1 -3 2 -1 -14 1 -2 2 -2 2 -2 5 -1 6 1 3 -1 4 -3 3 -3 4 -3 5 -3 6 -3 3 -3c-35,-11 -71,-22 -107,-31l-3 6 -5 7 -5 3 -4 1 -8 0 -7 -1 -5 1 -2 1 -2 3 1 4 0 3 -2 -1 -5 -1 -5 -1 -3 0 -2 -5 -3 1 -4 2 -7 1 -2 1 -1 2 1 2 4 3 -1 3 -4 1 -3 -4 -2 -3 -1 0 -4 1 0 4 1 2 3 3 -4 4 -1 2 -2 2 -6 -4 1 -3 2 -3 1 -2 -1 -2 -9 7 -6 8 -3 -1 -1 -2 -2 -1 -6 6 -1 4 -2 0 -1 -2 0 -4 -1 -3 -7 -4 -2 -4 1 -2 5 1 4 0 0 -2 -2 -1 3 -1 2 -2 -2 -1 -2 1 -3 0 -1 -5 -3 -6 -1 -5 3 -3 1 -4 3 -7 1 -2 4 -2 1 -2 -2 0 -3 -1 0 -2 2 -1 3 -2 5 -3 1 -5 -1 -1 -3 -1 0 -2c-79,-14 -160,-22 -243,-23l-1 1 -1 -1 -3 0 -2 2 -1 3 0 8 -2 2 -5 1 -5 3 -2 -2 -1 -1 1 -4 -1 -2 -2 0 -4 2 -3 2 -1 2 4 4 3 1 1 1 -3 2 -6 4 -2 3 -2 2 -2 3 -2 2 -3 1 -4 2 -4 5 -4 6 -4 2 -3 9 -6 5 -2 8 2 4 6 0 3 2 7 6 8 4 8 2 10 6 3 3 2 5 4 14 3 7 0 3 5 7 5 12 6 10 1 8 -2 4 0 5 6 4 13 5 2 2 2 2 0 8 2 2 2 2 8 3 3 3 3 4 1 4 1 5 -5 0 -3 0 -14 -7 -3 0 -6 1 -7 -2 -7 -7 -6 -2 -6 -2 -14 7 -4 -1 -1 1 -1 1 6 2 7 -2 6 -4 9 2 2 3 1 5 7 3 5 1 6 4 6 7 13 8 5 7 2 5 2 6 -4 2 -4 1 -7 1 -4 2 -5 4 -13 7 -2 4 -2 3 -3 2 -8 -2 -8 0 -8 5 -3 2 2 0 1 -1 4 1 6 -3 6 8 11 -1 11 -7 4 0 4 1 4 3 10 11 5 1 6 3 3 0 3 1 -8 4 -9 9 -5 2 -2 2 7 -1 6 -4 3 -1 2 1 1 5 -2 16 -3 1 -2 -5 -4 -1 -2 1 -5 0 -2 2 -2 2 3 1 6 5 1 3 -2 1 -4 0 5 3 -1 4 -2 1 -3 1 -2 4 3 5 3 7 0 3 -4 -1 -7 4 -3 1 -3 -6 -3 1 -2 2 -2 5 -3 6 -3 1 -4 0 -2 0 0 2 3 1 0 2 -6 7 -1 3 0 2 -3 2 2 5 -1 3 -3 4 -3 3 -4 5 -4 2 -6 10 -2 4 0 5 -2 2 -3 2 -4 -1 0 -3 -1 -1 -1 -2 0 -2 0 -3 -2 1 -1 3 -2 2 -2 -1 -3 -2 0 3 1 2 1 2 4 1 2 3 2 4 1 2 1 2 0 1 -3 2 -5 3 -5 4 -4 4 -4 0 -3 -1 -3 -2 -4 0 5 6 3 1 4 0 3 -2 5 0 2 4 -2 4 -3 5 0 5 3 7 0 2 -1 1 -4 -2 -3 -2 -3 1 -4 -1 -3 1 -2 1 1 3 4 2 1 3 -2 1 -9 0 -2 0 -2 4 1 5 -2 4 -3 0 -5 3 -3 1 0 1 2 1 1 2 -2 5 -4 2 -6 -1 -5 1 -5 -2 -4 0 -3 3 0 3 -4 1 -1 -1 -2 1 0 2 1 1 6 1 1 2 1 4 -7 6 -2 4 -5 0 -3 3 -1 5 -2 -1 -5 1 -2 2 2 1 0 1 -2 5 -2 2 -1 -2 -1 -4 -2 0 -2 3 -4 2 -2 1 -2 -2 -6 -1 -2 9 -4 3 -2 1 -3 0 2 1 1 2 -2 3 -3 0 -2 2 -1 7 -2 3 -5 0 -4 -2 -1 2 -1 1 -2 2 -4 0 -9 3 -4 -1 -5 -1 -3 1 -1 3 -2 2 -5 0 -4 -3 -4 -1 -4 1 -3 3 -4 1 -1 2 -2 1 -4 0 -2 -5 -2 -1 -3 3 -1 2 -1 1 0 4 -2 0 -3 -2 -4 -1 -3 3 1 2 0 1 2 1 0 2 -2 1 0 2 -1 1 -5 -2 -4 -1 -4 0 -2 -1 0 -1 4 -3 1 -1 -4 -1 -4 -3 -3 -6 -4 -3 -2 -2 0 -5 -1 -2 0 -3 1 -2 -4 1 -3 2 1 3 -1 2 -5 2 0 0 1 2 3 3 1 3 2 1 2 4 0 9 2 2 -1 2 -1 4 -2 1 -3 1 -2 0 -2 1 -3 3 -5 0 -2 -6 -4 4 -1 8 -1 1 -2 2 -4 -3 -3 2 -3 2 -1 1 -2 2 -4 -2 -3 -2 1 -2 -1 -2 -1 -1 -2 0 1 3 0 5 -1 2 -2 1 -5 -1 -3 -2 -4 -2 -3 0 -1 3 -2 3 -2 0 -2 0 -3 2 -1 2 -4 3 -8 1 -4 2 -4 -1 -3 1 -2 0 -1 -1 -2 0 -1 3 -5 2 -5 0 -5 5 -3 3 -3 0 -2 -1 -1 -4 -1 -1 0 4 -1 3 -2 2 -6 4 -1 4 1 4 7 1 1 2 0 2 -2 1 -1 2 9 7 0 2 -1 2 -2 3 -4 3 -10 1 -8 -1 -2 -3 0 -3 2 1 2 0 0 -2 -1 -1 -4 -2 -3 -5 1 -4 -2 -3 -1 -2 -2 -2 -1 -1 2 -6 -1 -4 3 -4 1 -5 6 -1 0 -5 -4 0 -3 -3 -1 1 -2 0 -4 -6 -1 -1 -2 0 1 7 -5 2 -3 1 -6 1 -3 0 -3 0 1 -2 2 -3 -2 -2 -3 -1 -4 0 -3 -1 -4 1 -1 -1 -3 -4 -2 -2 -1 -2 1 -2 -1 -1 -5 0 0 3 1 4 1 3 -1 1 -2 1 -3 -3 -1 0 -1 0 -1 3 -3 3 -4 -1 -3 2 -4 1 -2 0 -5 0 -4 4 -3 2 -5 1 -5 3 -1 4 0 2 -1 4 -8 4 -2 0 -2 -2 -2 0 -2 1 -2 0 -2 1 -3 0 -2 -2 -2 0 -1 0 -1 2 3 6 1 3 -9 10 1 5 -2 5 -5 3 -10 10 -4 0 -4 2 -7 15 0 5 -1 4 0 4 -3 7 -3 3 -1 4 5 8 0 1 3 5 1 3 2 3 8 8 3 2 4 2 7 7 4 5 -2 3 1 7 -5 -2 1 0 6 4 9 13 8 6 8 7 3 7 7 4 8 7 0 1 2 2 5 3 4 4 1 3 2 1 2 -1 3 0 1 0 3 4 3 3 2 3 1 0 1 0 1 3 0 2 5 5 2 4 5 8 4 4 3 3 4 2 3 8 2 8 3 8 3 4 0 7 2 7 2 5 1 5 0 2 1 2 3 8 -1 4 -2 -4 1 12 1 6 -1 7 2 2 3 9 2 3 0 10 1 5 -3 -3 -2 -4 -2 2 -3 3 4 10 -4 -1 0 15 2 3 0 2 -1 2 -1 -2 0 -3 -1 1 0 1 -1 3 0 3 1 2 0 3 -1 2 -1 3 -4 0 -1 5 -2 6 -6 1 -6 5 -6 2 -5 4 -7 5 -4 0 -3 1 -4 8 -7 1 -11 6 -4 3 -4 1 -5 2 -1 -1 -2 -2 -4 -1 -3 -2 0 -3 -1 -2 -1 2 0 8 -1 1 -2 1 -4 -2 -3 -4 -6 3 2 0 2 0 2 0 2 3 0 2 -1 2 -5 0 -6 -1 -2 1 6 2 6 2 2 2 0 1 -3 3 -2 2 0 2 0 2 -3 2 -2 0 -4 -3 -13 -12 2 3 13 14 3 4 0 3 -1 2 -3 2 -4 0 -7 -5 -12 -12 -4 -2 12 14 2 3 2 4 -1 2 -1 2 -28 13 -4 6 -4 6 -5 4 -3 4 -10 2 -5 -1 6 -6 -4 -3 0 -16 1 -17 3 -9 3 -2 5 -2 0 -2 -1 -2 -2 -3 -2 -1 -4 -1 -3 -3 -3 0 -3 1 -2 -2 -1 -2 -3 -3 -4 -3 -7 -6 -14 -2 -1 -2 -2 0 -1 3 -7 3 -3 -2 -3 -2 1 -3 2 -2 4 -2 1 -5 -3 -7 -2 -2 -3 -2 -2 3 -3 4 -2 2 -4 1 -5 0 -2 -7 0 -6 0 -6 1 -4 -5 -6 0 -5 -2 -3 -1 2 0 1 -1 0 -1 -3 -4 -4 -1 -6 -5 -5 -2 -3 -1 2 -1 2 -5 -3 -4 -3 -3 -6 -1 2 0 1 -4 -5 -5 -4 -3 -1 -3 -1 -2 -2 -5 -2 -11 3 -15 -3 -6 3 -2 -2 -2 -2 2 -5 0 -9 2 -6 -1 -5 1 -2 0 -4 -2 -1 -11 -2 -2 -2 -3 2 -12 1 -5 2 -4 4 -2 4 3 3 2 6 -5 11 -1 4 2 14 -1 8 -2 5 -4 5 -2 8 -3 3 -4 9 -3 10 -2 5 -1 9 -8 13 -2 8 -3 3 1 2 0 4 -1 10 0 8 1 5 4 9 -1 2 -1 4 4 2 2 0 14 -4 5 1 2 4 1 3 2 19 1 3 3 4 3 3 1 -1 0 -1 1 -1 2 3 3 7 7 34 2 5 2 4 -5 -2 -1 -8 -1 -3 -2 0 -2 0 0 -2 1 -2 0 -3 -2 -3 -5 2 1 6 1 4 7 9 3 4 2 1 4 -1 5 4 4 4 10 6 5 -1 7 -1 4 0 4 2 5 4 7 12 13 10 7 1 3 1 8 13 11 9 5 4 3 2 5 4 4 6 9 18 2 7 1 12 -2 17 -3 9 1 4 3 6 -1 6 1 5 -1 14 2 4 3 2 11 8 1 3 6 11 10 22 3 10 0 3 -2 1 -3 1 -2 -2 -1 -2 0 -1 -1 -2 -2 -2 -2 -2 1 3 0 4 -4 0 -4 -1 -5 1 -6 5 -3 0 -2 -4 -1 -3 -2 -2 -19 -10 -8 -3 -7 -7 -17 -9 -11 -8 -4 -6 -11 -4 -5 -5 -2 -2 -3 -1 3 -6 -1 -5 -2 -5 -7 -9 -4 -6 -7 -7 -3 -3 -3 -5 2 -1 1 -1 -1 -3 -4 -5 -2 -6 0 -12 -6 -16 -5 -23 1 -8 -2 -9 -3 -8 -5 -6 -1 -5 -11 -13 -7 -5 1 -10 -2 -1 -3 -1 -2 -2 2 -6 -3 1 -4 0 -3 -2 -3 -8 -1 -2 -3 -4 -5 0 -1 -2 0 -5 -3 -3 -5 -3 -3 -1 -4 -9 -2 -2 -3 -1 -3 1 -1 3 -3 3 -2 -1 -2 -1 -3 -9 -1 -5 1 -9 3 -9 2 -13 3 -9 3 -2 2 -12 6 -15 -2 1 -4 6 -1 -3 -1 -4 1 -7 -3 -13 2 -2 1 -1 3 -5 3 -5 0 -7 3 -4 -1 -4 1 -4 0 -4 0 -3 2 -3 4 -2 -2 -1 -1 -2 -5 3 -2 -1 -1 -3 1 -3 0 -1 2 -2 0 -4 -1 -3 1 -5 -3 0 -1 0 1 -3 2 -2 -2 -4 2 -4 0 -5 -1 -5 0 -3 -2 -6 -1 -7 -4 -6 -3 -8 -7 -10 0 -5 0 -4 -2 -2 -2 14 -2 -3 0 -7 -1 -4 1 -8 -4 -7 -1 -5 -3 -8 1 -2 4 2 -4 -5 -3 1 -2 -5 -1 -14 -2 -5 1 -6 -2 -19 -6 -6 1 -5 2 -5 -1 -8 2 -3 2 -2 -2 1 -2 0 -5 1 -5 0 -2 -6 -3 -4 -2 -6 -2 -7 1 -2 -4 -3 -1 -1 -4 -5 -5 -4 1 3 1 1 -3 5 3 7 -2 5 -2 6 -2 3 -6 6 -5 2 -3 1 -3 -1 -3 -3 -1 -3 -1 -4 -1 -1 -1 0 2 6 0 3 3 5 -1 2 -7 3 -2 -1 -1 1 -1 2 -1 1 -10 4 -2 4 -2 4 -5 6 -7 5 -2 0 -2 -1 1 -6 2 -4 -1 -5 0 3 -5 6 -2 3 -4 -1 -6 1 -2 -7 0 -2 0 -3 0 -2 0 -2 -1 4 -1 3 -2 2 -6 3 0 -3 0 -4 1 -3 0 -4 2 -7 0 -2 -1 -3 -1 4 0 4 -2 1 -2 1 -3 4 -3 4 -6 4 -3 -1 0 -4 2 -17 2 -2 2 -3 2 -10 2 -4 1 -7 0 -2 3 -6 1 -11 -1 -6 -3 -5 -2 -16 -7 -13 -1 -5 -3 -5 3 0 -6 -5 -1 -2 -2 -11 1 -6 -1 1 -1 4 -3 1 1 7 0 1 -1 3 -6 -3 -4 -3 -4 -7 -5 -7 2 -2 2 0 6 6 4 1 3 -1 3 -3 2 -4 -2 -2 -3 -1 -2 -2 -3 -3 0 -1 -1 -3 -3 -1 -3 -2 2 -3 2 -3 -5 0 -6 -4 -1 -1 -2 -1 -5 -1 -4 2 2 6 0 2 -3 -1 -5 -9 1 -2 3 -3 -1 0 -3 0 3 -8 -2 -1 -1 2 -1 3 -4 6 -3 -1 -1 -2 2 -3 1 -1 1 -1 -2 -4 -2 -2 -2 -4 -2 0 1 5 0 7 -5 -8 -9 -11 -3 -3 0 0 -3 -4 -2 -4 -6 -9 -2 -15 0 -7 -4 -9 -3 -11 -1 -4 2 -3 0 -2 -1 0 -2 2 -3 -4 -1 -5 -7 -9 -2 -3 0 -4 -3 4 -4 2 -4 4 -3 2 -9 0 0 0 -4 4 1 1 0 4 -2 10 -2 3 -7 2 -3 0c-175,249 -278,552 -278,879 0,423 172,807 449,1084 227,227 524,383 856,432l0 0 1 -14 4 3 4 3 7 0 7 -5 4 -7 3 -9 -1 -9 -2 -15 2 -4 2 -1 1 -8 0 -23 -1 -9 -11 -18 -6 -16 -5 -7 -5 -11 -3 -16 -1 -8 -1 -14 1 -9 -1 -5 -4 -13 -9 -12 -2 -5 0 -4 -2 -6 -8 -11 -8 -10 -1 -4 -2 -20 -3 -9 -13 -22 -16 -19 -4 -8 -2 -3 1 0 2 1 2 2 1 0 1 -2 0 -3 0 -2 1 1 2 4 5 11 2 5 6 2 2 -2 2 -3 1 -7 -3 -3 -3 -2 -5 -5 -3 -9 -5 -9 0 -3 2 -2 4 2 3 4 4 5 -1 7 0 2 0 2 2 2 1 1 2 -2 2 -4 1 0 3 11 2 2 4 4 4 -3 1 -2 0 -7 1 -7 -1 -5 -9 -14 -9 -17 -5 -8 -4 -13 -3 -4 -3 -7 0 -8 0 -6 3 -11 2 -6 9 -14 0 -6 0 -4 2 -7 0 -5 -2 -5 -3 -7 5 -14 6 -17 3 -2 4 -3 1 4 -2 12 3 6 -1 7 3 -1 4 -2 3 -3 2 -4 7 -14 5 -5 6 -4 13 -4 12 -6 6 -6 8 -5 5 -6 5 -3 25 -14 4 -3 5 0 7 0 6 0 7 3 4 0 12 -3 6 -3 11 -7 5 -2 11 -2 12 -3 15 -11 10 0 10 2 8 -4 18 -2 10 -3 18 -8 5 -2 8 -6 6 -6 7 -10 4 -8 2 -4 4 -7 2 -5 2 -3 8 -3 10 -10 4 -3 1 -3 -3 -2 -3 -1 -2 -10 -1 -8 -1 -5 1 -5 4 -7 3 -4 4 -3 4 -2 3 -3 6 -3 2 -4 3 -6 3 -5 2 0 4 12 3 6 6 7 4 11 4 5 2 4 2 1 0 -2 0 -2 2 -9 -1 -6 0 -2 1 -1 2 1 4 3 2 1 1 0 0 -5 2 -4 -1 -2 -3 0 -1 -3 -3 -3 -3 -2 -4 -6 -1 -2 1 -1 3 0 2 -2 1 -3 -2 -5 2 -2 3 0 5 8 3 0 2 -4 3 -1 4 1 2 2 5 3 6 -1 4 1 6 0 4 0 -1 -1 -3 -1 -5 -1 -5 0 -2 -1 0 -4 1 -3 1 -2 3 1 3 0 0 -4 1 -4 2 -2 0 -3 -2 1 -4 6 -2 -5 -4 -4 1 -6 2 -6 3 0 2 1 3 -4 2 -2 0 -2 1 -2 2 1 9 5 2 2 2 -1 1 -3 -1 -2 -2 0 -4 0 -2 -2 1 -1 -2 -4 3 -2 2 0 2 -2 0 -2 1 0 1 1 5 0 5 3 2 1 1 -2 1 -3 -6 -3 -1 -3 -2 -3 0 -4 4 -2 0 -3 3 -1 4 0 3 -3 3 -1 1 -5 -1 -3 2 -1 3 1 -1 4 0 4 -1 2 1 0 1 -1 1 -2 4 1 1 3 0 2 2 1 2 -4 3 -1 0 -5 1 -4 1 -3 2 -1 0 -3 -1 -2 -1 -4 2 -1 3 2 2 5 1 2 2 -1 1 -3 3 -2 4 2 3 4 5 -3 4 -6 0 -3 0 -4 5 -2 5 1 4 4 8 3 7 4 3 3 6 4 4 5 5 8 12 9 1 2 -2 3 -1 4 -2 7 -1 10 2 0 2 -4 2 1 2 2 0 -2 -1 -1 -2 -5 0 -3 2 -2 2 -2 4 -2 1 -1 1 -2 3 -2 4 0 2 0 18 5 4 4 1 5 2 2 1 -3 -1 -8 2 -1 5 1 3 2 4 4 1 3 2 1 1 -2 -1 -3 -1 -4 1 -3 6 0 3 -1 -2 -1 -2 0 -4 -3 -2 -4 4 -3 0 0 -4 0 -5 -3 -5 -4 4 -8 7 -7 3 -3 1 -2 1 -5 2 -4 0 -3 2 -3 4 -3 6 -1 2 -1 3 -3 2 -4 -5 -6 1 -4 1 -4 6 -3 3 -9 3 -1 5 0 1 0 0 -7 1 -2 2 -1 2 0 2 3 4 3 1 -2 0 -2 -1 -4 4 -1 3 0 0 -3 -1 -3 1 -1 8 0 2 -3 1 -2 1 1 1 5 4 3 12 0 7 -2 3 1 4 1 5 -2 3 -2 5 2 2 3 1 -5 3 -2 3 -1 4 1 2 0 -4 -4 0 -4 0 -5 1 -4 1 -3 -8 -7 -9 -1 -6 1 -2 -1 -6 -5 -5 -2 0 -1 6 -4 2 0 4 4 2 1 2 0 1 -3 2 -1 3 1 9 6 5 5 3 -1 5 -3 4 0 3 2 3 7 3 4 8 1 3 1 4 3 5 -1 11 1 9 5 5 3 4 0 3 2 5 0 8 -3 4 3 2 2 7 4 8 1 5 -4 9 -3 5 -5 5 -2 4 -3 1 0 -3 3 0 2 2 1 0 1 -4 3 -4 4 0 2 2 2 2 -1 3 -2 3 -1 3 1 1 6 2 4 5 1 3 0 2 -6 -1 -4 -2 -1 1 -2 7 -8 4 1 3 7 5 4 5 0 2 1 2 4 -17 19 -1 2 3 3 1 4 -6 9 -2 1 -2 -3 -3 -2 -3 2 -2 0 -10 5 0 14 2 8 -1 5 -3 9 -3 4 -3 2 -9 13 -2 3 -3 4 1 4 1 3 3 3 13 7 5 5 10 6 3 4 1 3 7 3 5 3 2 -1 1 -1 1 0 1 1 0 2 0 2 0 2 4 3 5 -1 4 0 3 3 4 1 5 4 10 4 7 3 9 10 7 6 7 5 11 3 5 -1 8 4 8 1 4 5 2 4 0 3 4 7 8 2 11 7 8 3 3 2 3 2 8 0 12 -3 6 -4 8 -5 3 -10 2 -8 11 -15 3 -8 3 -11 2 -6 -1 -7 3 -13 5 -17 2 -6 -1 -9 -3 -16 1 -6 2 -8 -3 -5 -2 -4 0 -6 2 -10 3 -5 2 -7 -1 -14 5 -4 2 -3 4 0 1 1 1 -2 -2 -3 0 -3 -1 -1 -3 -1 -2 -1 -3 -2 1 -6 5 -11 2 -5 2 2 2 2 0 -4 0 -3 4 -11 4 -15 1 -14 7 -3 3 -3 2 -4 4 0 2 2 -1 3 -1 2 7 6 3 4 1 4 1 4 1 5 0 9 0 8 3 2 2 2 4 0 4 1 -1 6 -2 3 0 3 0 3 4 3 3 1 1 4 5 6 0 4 2 6 2 10 1 8 2 6 -1 13 2 5 2 4 3 9 2 8 2 2 6 3 6 -3 5 -4 4 -1 7 -2 4 5 3 6 11 8 7 5 4 2 5 4 0 4 -2 3 1 4 1 5 -1 7 4 9 1 8 3 7 0 8 -1 3 0 4 2 6 3 4 4 4 5 7 3 1 3 0 0 7 6 13 3 11 -2 15 -2 8 0 4 8 11 5 1 -1 5 -1 8 4 6 4 4 5 3 4 2 6 2 7 1 4 3 2 3 6 1 2 -1 4 -1 2 2 1 2 4 7 6 6 5 1 2 3 4 1 3 1 5 2 7 6 7 1 3 1 7 6 2 4 3 5 -3 0 -3 -1 -2 5 4 7 5 5 7 5 4 4c203,-260 324,-587 324,-943 0,-423 -172,-806 -449,-1084zm-1118 2617c11,0 23,0 34,0 188,0 367,-34 533,-95l-14 -8 -4 0 -14 3 -4 -1 -21 -14 -14 -7 -4 -1 -6 -1 -5 1 -4 2 -7 2 -27 -1 -24 2 -16 1 -10 2 -17 9 -20 8 -16 4 -15 5 -10 2 -13 0 -27 -2 -9 2 -15 9 -4 3 -8 2 -22 13 -10 2 -6 1 -5 3 -5 5 -7 15 -4 7 -9 11 -6 4 -6 -1 -7 4 -6 -4 -4 -1 -8 1 -26 4 -4 -5 -5 -1 -9 0 -14 -1 -24 2 -12 2 -5 2 -9 -1 -15 2 -5 3 -4 3 -2 3zm37 -1219l0 7 1 2 1 -7 1 -14 0 -2 -3 -6 -1 4 0 10 0 3 1 3zm-54 131l-6 3 -2 1 -1 2 0 2 2 2 1 2 2 2 12 3 2 -1 2 0 6 1 8 6 5 2 3 3 2 3 4 4 5 1 6 1 2 1 5 -2 3 0 3 -1 4 -4 1 -3 -2 -4 -3 -2 -3 -4 -3 -4 -3 -2 -2 -1 -3 1 -3 -1 -2 -2 0 -2 -1 -2 -7 -3 -2 -2 -2 -2 -1 -1 -4 2 -2 1 -8 -1 -8 1 -5 0 -5 0zm169 -343l-2 0 -8 1 -3 0 -3 4 -1 6 2 5 2 2 4 -4 5 -7 2 -1 1 8 -2 2 0 1 2 2 2 -1 0 -1 2 -6 2 1 2 2 3 0 3 -2 1 -5 0 -2 -2 -1 -2 -1 -4 1 -5 5 -1 -4 1 -2 -1 -3zm-154 310l1 -2 0 -1 -1 -2 -2 0 0 0 -1 -1 -1 -1 -1 1 0 4 -2 2 1 2 -1 4 2 1 2 -1 -1 -3 2 -1 2 -2zm115 -137l1 3 3 0 1 -2 3 2 2 0 2 0 2 -2 1 -3 -1 -5 6 -9 -1 -11 -1 -2 -2 1 -6 3 -6 2 -2 3 3 7 0 3 -3 3 -2 7zm-63 75l0 -2 -1 0 -5 -2 0 4 2 1 4 -1zm44 -80l-1 3 2 3 5 5 3 -1 1 -9 -1 -2 -2 -1 -1 -3 -2 0 -2 1 0 2 -1 0 -1 2zm-250 148l-1 2 1 2 6 2 9 1 2 0 4 1 9 -2 -1 -1 -2 -1 5 -9 4 -10 -1 -2 -1 -1 -2 -1 -10 -3 -4 1 -4 3 -6 6 0 7 0 5 -1 1 -5 0 -2 -1zm-30 -28l-7 5 -2 0 -5 0 -9 -2 -5 -1 -1 0 0 2 0 2 1 2 3 4 2 1 5 1 5 1 4 3 4 3 3 3 1 2 0 3 -2 3 2 1 2 -1 1 0 1 -1 1 -2 2 -4 1 -2 10 -4 4 -3 2 -2 -1 -2 -6 -6 -4 -2 -5 -2 -6 -2 -1 0zm100 13l1 0 4 -8 0 -2 -5 1 -2 1 -1 2 2 3 -1 2 2 1zm-89 -60l5 0 -1 -2 -2 -1 -2 -1 -3 0 -5 1 0 1 -1 2 4 2 3 -1 2 -1zm56 84l1 2 4 2 3 1 5 1 4 -1 2 -1 2 -1 3 1 3 -1 5 -1 9 -3 3 0 2 0 9 -3 3 0 2 -1 2 -1 6 -6 1 2 0 4 1 2 2 0 9 -2 2 0 3 1 1 0 0 -1 0 -1 -3 0 0 -2 3 -1 3 0 2 0 1 1 2 1 3 -1 1 -1 1 -2 -1 -1 -2 -2 -1 -1 0 -5 -2 -5 -3 -1 -3 0 -2 0 -2 1 -2 4 -1 -1 -1 -3 -2 -2 -3 0 -2 0 -3 1 -4 2 -1 0 -3 -1 -1 -3 -2 -4 -2 -2 -8 -1 -2 0 -5 2 -1 3 1 3 2 3 7 4 2 1 2 0 1 0 4 2 2 3 -1 3 -4 0 -6 3 -3 -1 -4 0 -4 -5 -1 -1 -2 -1 -1 -4 -2 -1 -6 0 -3 0 -5 -2 -3 0 -4 3 -5 2 -3 1 -2 0 -1 3 -1 3 1 6 -1 4 -1 2zm-61 505l1 2 2 0 3 -3 0 -3 -1 -2 -3 3 -2 3zm7 -515l1 1 4 3 1 -2 0 -2 -2 -2 -1 1 -3 1zm32 -228l-5 4 -2 5 -2 6 0 4 2 5 0 7 1 2 9 -7 -1 -2 2 -3 -1 -2 -1 -7 1 -2 -1 -2 -1 -2 1 -6 -2 0zm8 6l-1 1 -3 5 2 4 2 -7 0 -3zm464 -141l-1 -3 0 -3 -1 0 -1 5 1 0 1 2 1 -1zm-7 20l3 5 4 1 -1 4 1 3 1 0 6 -2 0 1 2 2 3 2 4 -1 1 -2 0 -2 -1 -1 -2 -1 -6 -1 -2 -3 3 -6 -5 -6 -1 -1 -2 2 -1 3 -4 -4 -2 1 0 2 -1 3 0 1zm-80 -137l-1 2 1 5 1 -1 -1 -2 2 -2 0 -1 -2 -1zm163 -1086l-1 -1 -2 -1 1 4 4 1 0 -1 -2 -2zm-158 1548l3 1 3 -7 -2 1 -1 1 -3 4zm178 -267l6 4 8 2 2 2 5 -1 1 -2 3 -1 1 1 2 -1 -1 -2 0 -1 1 -1 0 -3 -2 -3 -1 -2 -1 0 -5 2 -4 0 -5 1 -11 4 1 1zm32 -1376l5 -1 2 -5 -1 -1 -7 -3 -4 3 2 6 3 1zm-290 1643l-2 0 -1 -1 -3 0 -3 1 0 1 1 0 2 1 -1 1 -5 4 -4 3 1 1 3 0 4 2 1 -1 2 -2 3 2 1 -1 0 -1 0 -1 0 -1 2 -2 3 0 3 -5 6 -1 -1 -2 -2 -1 -3 -1 -7 4zm268 -1734l1 1 3 -1 5 -5 0 -7 -1 -3 -7 1 0 3 -1 5 1 2 0 1 -2 2 1 1zm-37 1511l-1 -2 -1 -2 -3 -1 -3 1 -5 1 -10 -1 -15 1 -4 3 -10 12 1 2 1 3 0 2 -1 4 1 1 2 -3 3 -4 0 -2 1 -3 1 -2 2 -1 2 1 2 1 2 2 6 7 2 1 2 0 5 0 2 -2 3 -4 2 -1 3 -2 2 0 2 1 0 1 0 1 0 1 6 1 4 2 5 1 6 1 2 0 0 -3 0 -2 1 0 4 0 9 0 5 3 1 2 1 1 11 5 4 2 9 5 9 4 3 -12 -1 -1 -3 -5 -2 0 -2 -1 -2 -4 0 -3 -3 -4 -8 -6 -3 0 -8 0 -5 0 -10 -5 -6 -3 -3 0 -2 0 -3 0 -2 1 -4 3 -4 2 -3 0zm50 -118l0 2 -3 2 5 3 6 0 3 4 1 0 1 -2 3 -1 1 4 2 2 6 -1 0 -3 -2 -2 -2 0 -1 0 -3 -5 -3 -1 0 -3 2 0 5 6 4 2 2 3 3 1 4 -2 3 1 2 1 1 0 4 -3 -2 -2 1 -2 -2 -2 -10 -5 -2 1 -7 -2 -4 1 -6 1 -1 1 -2 -1 -3 2 -3 -1 -3 1zm-262 245l-2 -3 -2 -1 0 2 2 1 1 2 1 -1zm-15 152l-2 4 -1 5 -2 6 1 2 4 2 -1 3 -1 1 -2 2 0 2 1 2 5 2 4 0 5 -2 9 -5 6 -1 4 -1 4 -2 4 -4 4 -3 6 -7 5 -4 1 -4 9 -7 9 -5 13 -5 5 -1 2 0 2 -1 6 -3 3 -2 5 -1 5 -1 4 -2 3 -3 4 -2 6 -1 5 -2 8 -5 8 -7 -2 -1 -2 -1 -6 -1 -4 -2 -3 2 -2 1 -5 2 -5 1 -3 1 -15 1 -12 0 -4 0 -18 3 -2 1 -6 2 -3 3 -3 6 -6 5 -8 4 -2 2 -3 2 -16 4 -10 5 -4 3 -7 7zm9 -49l4 0 2 4 4 -1 1 -1 2 -4 2 -3 1 -4 -1 -1 0 0 -2 0 -5 6 -1 0 -1 -1 -2 0 -2 1 -2 4zm19 -1l3 1 27 -4 2 -1 0 -5 -3 -1 -6 -1 -7 0 -3 0 -3 2 -1 -3 -3 0 -4 2 -1 3 1 2 -3 3 1 2zm-22 -270l-3 -3 0 1 1 4 3 0 -1 -2zm75 -223l1 -1 -1 -2 -2 -4 -2 -4 -3 -3 0 2 0 2 1 2 1 2 0 4 5 2zm18 244l0 -4 -4 -8 1 -7 -1 -1 -2 0 -2 2 0 2 1 6 2 2 2 6 2 2 1 0zm-12 -393l0 -7 -3 -2 -1 5 1 1 3 6 0 -3zm1 619l0 5 1 -1 5 -2 4 -2 3 0 3 2 6 0 6 1 2 -3 3 -3 5 -2 5 -1 0 -1 -1 -2 -3 0 -5 -4 -6 2 -4 3 -7 1 -5 0 -5 -2 -5 7 -2 2zm-20 -250l0 -3 -1 -1 -2 -1 -2 1 -1 -3 -1 -1 -1 0 -2 2 -1 0 -4 -1 -13 -3 -7 0 -3 1 -2 1 -2 7 4 6 4 0 5 -1 8 -4 8 3 5 -3 8 0zm3 -2l1 2 1 2 2 0 15 -1 5 0 14 -2 1 -2 -13 -1 -12 1 -9 0 -3 0 -2 1zm171 -71l2 3 2 -1 -1 -2 -10 -7 3 4 4 3zm717 84l1 3 1 0 3 -2 2 0 2 -1 8 2 6 0 3 -1 3 0 4 -3 1 -1 2 0 2 -1 1 -2 -1 0 0 0 0 1 -1 0 -14 -3 -9 0 -4 1 -5 0 -2 2 0 3 -3 1 0 1zm-783 -1595l2 -2 2 3 3 0 0 -4 -1 -4 -3 0 -2 -2 -4 2 1 3 1 4 1 0zm59 19l3 1 1 -2 0 -3 3 -6 0 -3 1 -2 -1 -1 -1 -1 -5 4 0 1 0 3 -2 7 1 2zm880 1586l-6 1 -6 3 1 0 3 1 2 4 3 2 3 1 8 -1 1 -1 0 -4 0 -1 -1 -2 -8 -3zm-946 -1220l-3 5 0 2 0 3 3 0 3 -3 0 -1 -1 -1 1 -2 2 -3 3 -1 -2 -2 0 -3 3 0 4 -4 4 -1 1 -2 4 -2 3 -3 0 -4 -3 -3 -1 4 -4 3 -1 2 -3 1 0 0 -2 -1 -3 -1 -1 1 0 2 2 2 -1 1 -4 4 -1 1 -3 1 0 5zm-13 1073l4 9 4 3 0 3 -2 2 -1 2 0 3 1 5 2 5 3 2 1 2 -1 5 0 5 0 5 0 3 0 4 3 2 4 3 2 2 5 10 1 2 8 3 2 4 6 1 -3 -3 -4 -4 -7 -10 -4 -10 -4 -12 1 -5 0 -2 -1 -4 0 -3 1 -3 3 -1 5 0 5 2 4 1 5 0 4 3 15 5 -1 -3 -2 -1 -3 -1 -2 -1 -1 -4 -1 -3 -2 -1 -9 -4 -6 -4 0 -3 2 -3 2 -1 7 -3 7 -4 1 -1 1 -11 -2 -4 1 -3 -1 -2 -6 1 -5 1 -8 5 -3 4 0 3 0 3 -2 2 -2 0 -4 3 -2 5 0 2 -2 2 -3 0 -3 -1 -2 -1 -2 -2 0 -2 1 -2 10 -6 4 -5 1 -2 1 -5 -1 -5 0 -5 -3 -4 -2 -2 0 -3 1 -1 5 -8 0 -1 0 -2 -3 1 -3 2 -7 7 -4 5 -3 6 0 3 -1 2 0 5 -5 9 0 4zm84 -1389l0 1 -2 3 2 0 3 -2 1 -3 2 -4 -1 0 -3 2 -2 3zm-264 1510l-1 1 -1 1 -1 2 1 2 3 -4 -1 -2zm280 -1533l-1 -4 -2 -1 -1 1 -1 5 2 1 3 -2zm-26 -18l2 3 2 -2 3 -5 0 -3 -5 -2 -2 9zm18 37l-1 5 3 2 6 5 4 3 1 2 3 6 -4 0 -3 -2 -2 -4 -4 -4 -1 3 1 3 1 3 4 4 1 3 -1 4 -1 3 3 -2 4 -5 5 -2 4 1 2 2 2 1 2 0 2 -1 1 -3 -1 -2 -1 -2 -2 -1 -2 1 -2 0 0 -4 0 -4 -2 -4 2 -2 2 -1 3 1 4 3 2 6 5 6 0 4 -3 4 3 1 3 1 -3 7 -4 7 -3 4 -3 4 -4 1 -1 1 0 7 0 4 -1 4 2 2 2 1 2 5 -1 5 0 2 -2 0 -4 2 2 5 2 1 3 0 11 4 2 -2 1 -2 -4 -4 -1 -2 0 -3 1 -5 2 -4 2 -3 3 0 2 1 1 1 0 3 -1 1 -1 0 -2 1 0 2 3 7 1 5 -2 5 -1 2 -1 1 -1 2 0 2 9 -5 9 -6 -3 -6 2 -3 2 0 5 2 4 0 5 -12 1 -5 -1 -5 2 -6 1 -5 1 -5 2 -5 2 -6 3 -6 11 -12 1 -1 0 -2 -4 -3 1 -1 0 -2 -2 -2 -2 -1 1 -3 1 -4 -7 0 -8 -1 3 -5 4 -5 1 -3 -1 -2 -2 -2 -3 0 -4 1 -3 2 -2 0 -2 0 -6 -1 -5 -3 -2 -5 -2 -5 -5 -2 -5 0 -2 0 -8 4 -1 2 -1 3 -3 5 -4 1 -4 0 -2 1 -1 2 -1 1 -7 2 -4 2 1 1 1 2 -1 2 -6 -2 -2 0 -2 1zm-14 236l4 3 4 -4 -1 -2 1 -1 2 -1 3 -3 2 -2 3 -1 1 -2 -2 -2 -3 2 -1 1 -1 1 -2 2 -2 0 -6 1 -3 2 0 2 -1 1 -3 0 5 3zm1025 1373l-1 0 -2 2 2 1 1 -1 0 -2zm-172 -112l-1 2 0 3 5 4 1 0 3 1 0 -2 -2 -5 -3 -3 -3 0zm84 -363l0 0 0 1 3 0 0 -1 0 0 0 -1 -1 0 -1 0 0 0 1 0 -1 1 -1 0zm20 431l2 0 0 -2 -1 -1 -4 -3 -1 1 1 1 3 4zm-118 108l-5 -2 -5 -2 -9 1 -3 -1 -2 0 -2 1 -2 0 -6 -1 -4 3 0 5 3 4 4 1 5 2 4 1 4 2 12 8 1 1 6 -2 5 0 4 2 5 6 2 1 4 0 5 0 14 0 10 -1 2 0 5 -4 5 -1 2 -2 2 -1 5 -2 5 -1 2 -1 6 -3 4 -3 4 -4 1 -2 1 -2 0 -2 2 -2 7 0 7 0 5 -1 4 -3 3 -4 -3 -5 -3 -4 -1 -3 2 -3 6 0 2 -1 2 -1 4 -6 2 -3 0 -5 -1 -2 -1 -3 2 -7 -4 -1 -5 -1 -3 -3 -6 4 -3 0 -2 -2 -2 -2 -4 -1 -5 1 -1 1 -1 3 0 2 5 12 1 5 -1 5 -4 2 -6 0 -2 0 -2 1 -8 7 -3 3 -2 5 -3 5 -2 1 -3 0 -2 0 -2 2 -5 1 -4 -3 -5 1 -4 2 -5 0 -4 -4 -1 -5 0 -5 2 -2 2 -3 -2 -2 -1 -1 -2 1 -2 5 -2 13 -5 3 -6 0 -2 -1 -7 3 -5 0 -5 0zm171 242l-4 -1 0 1 1 3 4 2 -2 2 3 -1 1 3 6 1 1 2 6 -1 3 -1 -2 -3 -7 -2 -10 -5zm-55 -360l-2 -2 -1 2 0 3 1 0 2 0 0 -3zm-53 0l5 1 5 0 4 2 14 9 3 3 4 2 9 8 4 2 4 2 2 1 5 1 2 1 4 3 3 3 10 14 3 6 1 6 0 3 -1 3 1 3 2 6 2 2 3 3 1 3 4 -3 2 -4 1 -4 0 -4 3 -4 1 -1 -1 -4 -4 -6 -27 -22 -2 -3 -6 -4 -5 -6 -2 -1 -9 -3 -5 -4 -4 -3 -5 -3 -7 -3 -3 0 -3 -3 -7 -4 -7 -5 0 3 0 3 -4 1zm47 -426l0 1 0 1 0 0 1 0 1 -1 0 0 -1 -1 -1 0zm34 442l-1 -4 -3 1 -1 2 2 3 2 2 1 -4zm-1045 -1634l-3 3 3 2 0 -1 0 -4zm352 1992l7 -3 2 -1 3 -3 1 -2 -1 1 -8 3 -4 5zm-65 -208l1 2 1 -1 2 -3 1 -2 -2 0 -2 1 -1 2 0 1zm5 -23l0 -3 0 -2 -1 -5 1 -2 0 -3 0 -3 0 -2 -2 -4 -2 -1 0 -2 0 -2 -1 -2 -2 0 -3 0 -1 4 -1 1 -5 7 -4 -2 -2 1 1 2 5 4 -2 5 0 2 -3 0 -3 0 0 2 1 1 4 4 0 1 4 3 3 3 8 1 1 -1 1 -1 2 -1 1 -4 0 -1zm2 9l0 2 1 0 3 -5 -2 0 -1 1 -1 2zm-3 5l-2 -2 -2 1 1 3 3 0 0 -2zm-86 -25l1 0 2 1 2 -4 0 -2 -2 -6 -1 0 -1 -2 -3 0 2 6 0 5 0 2zm-4 227l1 -1 1 -6 -1 -2 0 -5 -1 -1 -2 2 -2 1 1 3 -1 2 4 7zm18 -239l-3 2 -1 5 -3 8 4 -3 1 -7 7 -7 2 -10 -2 -1 -1 0 -4 13zm19 -60l-6 -3 1 2 7 4 5 2 -2 -3 -5 -2zm29 96l-2 -1 -2 13 1 2 5 4 5 -3 2 -1 2 -6 4 -4 1 -3 0 -3 -5 -2 -4 -3 -4 -4 -2 -2 -3 1 0 2 1 7 3 2 -1 1 -1 0zm229 418l-1 0 -5 2 -7 1 -3 3 -2 4 -1 4 0 1 4 -1 2 0 3 -1 1 -2 2 0 3 -3 2 -2 6 -1 -4 -5zm-362 -1999l3 -5 1 -7 -1 -2 -1 1 -1 1 -3 5 0 5 -3 6 0 2 4 0 1 -6zm477 1736l-2 -2 -3 0 -1 3 1 1 3 1 2 -3zm-7 -1l1 -3 -2 -2 -2 3 2 3 1 -1zm-438 -128l1 1 2 1 3 0 1 3 2 1 1 -2 -3 -4 -7 0zm288 53l10 1 2 0 0 -3 -4 -6 -1 -1 -4 2 -2 2 -3 2 1 1 1 2zm-88 304l0 2 1 0 2 0 1 -3 -1 -1 -2 1 -1 1zm21 8l2 3 2 -2 -1 -2 -1 -3 -2 -3 -1 2 -1 1 -1 2 2 0 1 2zm-7 -6l1 0 1 -1 -1 -4 -1 2 0 3zm86 -327l4 -7 -1 -5 -2 -3 -5 -4 -1 -1 -9 -1 -11 3 -5 2 -4 3 -3 3 -7 12 -7 14 -1 5 2 1 7 -1 5 0 13 1 10 -5 3 -3 8 -6 4 -8zm-82 268l1 -2 -1 0 -2 0 -4 -1 -2 -2 0 -2 2 -5 1 -2 1 0 3 -3 -1 -2 -1 -1 -1 -1 -2 4 -2 0 -1 -1 -1 -4 0 -2 -2 0 -3 2 -2 3 -4 3 -1 6 1 5 -2 2 -2 2 1 1 4 0 8 2 5 0 5 0 2 -2zm-9 -130l-1 1 -2 1 -4 6 -1 2 0 2 3 -3 6 -8 1 -7 -2 0 0 4 0 2zm-365 -403l-5 -3 -7 -4 -4 -1 -3 1 -5 4 -3 6 0 2 3 2 4 2 8 -2 7 0 6 1 1 -1 3 -1 0 -3 -5 -3zm-21 72l-2 2 2 1 4 1 -1 -1 -2 -3 -1 0zm10 203l2 3 8 3 4 -4 0 -1 -5 0 -7 -2 -2 1zm18 -183l2 -1 1 -1 0 -2 1 -2 1 -1 0 -2 -2 0 -7 3 -4 1 -4 3 0 1 1 1 2 2 3 -3 2 -1 2 0 0 1 -1 1 3 0zm-9 -33l-2 1 -5 2 1 0 4 0 2 -3zm156 175l-2 -1 -4 1 -1 1 0 3 -2 1 -2 3 -1 1 -3 3 -2 1 -1 1 -3 6 0 2 -3 1 0 4 -2 4 2 2 -1 3 3 0 6 1 0 -1 1 -1 0 -1 1 -3 4 -4 1 -2 4 -2 2 -2 3 -8 -2 -7 4 -3 -2 -3zm-300 343l-2 0 0 1 -1 2 1 2 0 1 2 1 2 -1 0 -2 -2 -2 0 -2zm120 -323l2 -1 0 0 0 -2 -4 -1 0 2 -1 3 3 -1zm-95 288l-2 2 -1 4 2 2 3 -2 0 -2 0 -3 -2 -1zm86 -580l-2 6 1 1 5 1 0 -1 0 -1 -2 -5 -2 -1zm-178 142l0 2 1 3 4 4 2 0 5 -5 0 -3 -2 -2 -8 -1 -2 2zm314 -130l-2 1 18 -2 2 -2 2 -2 -5 -1 1 2 -4 1 -4 -1 -2 1 -1 0 0 0 -1 0 -2 0 -1 1 -1 2zm8 -15l2 -3 -1 -1 -2 -1 0 0 -2 1 -1 0 -3 2 4 2 3 0zm3 24l2 2 1 4 3 2 5 2 2 -2 1 -5 2 -9 -2 -2 -4 0 -2 -1 -9 3 0 1 1 2 0 3zm10 452l15 -9 4 -5 3 0 0 -3 3 -3 0 -1 -3 -2 -1 -3 -5 -2 -2 -3 -2 2 -4 1 -5 3 -1 1 -3 -2 -7 3 -5 0 -3 -3 -2 -1 -4 -4 -1 0 0 0 -1 1 2 4 0 6 4 7 6 5 12 8zm-93 -349l0 -2 -1 -1 -2 0 -3 -1 0 1 2 3 1 0 2 1 1 -1zm57 339l-2 4 2 2 2 0 8 -2 8 2 4 0 0 -2 -1 -2 -2 -1 -3 -1 -1 -4 -2 -3 -1 -4 -1 -4 -2 0 -2 1 -4 5 1 3 1 5 -3 2 -2 -1zm-69 -342l-1 1 -1 4 7 -2 -1 -2 -4 -1zm9 149l-1 -1 -2 1 -2 2 1 1 3 2 2 -1 0 -2 0 -1 -1 -1zm100 47l6 -3 -4 -1 -3 -1 -7 8 -3 3 4 -1 2 -3 5 -2zm-60 -17l0 1 -1 4 6 5 2 0 3 -4 0 -2 -1 -3 -7 -1 -2 0zm4 -1691l-1 4 2 -1 3 -4 0 -2 -4 3zm410 2082l-2 2 0 1 2 0 5 -1 -1 -2 -3 -3 -1 3zm-146 -648l-5 0 -16 -2 -1 1 1 2 16 4 8 3 6 1 1 1 4 0 6 0 7 0 3 -2 8 -1 -3 -2 -4 -1 -14 -1 -8 -2 -9 -1zm7 -28l-3 -4 -8 -6 -2 -1 -4 1 -3 -2 -3 0 -9 -1 0 2 2 3 2 1 0 -1 2 0 5 4 4 -2 3 8 1 4 3 3 4 -1 4 2 3 0 5 -2 3 -3 -3 -1 -6 -4zm85 -437l2 -2 -2 -2 -1 1 -1 1 -2 2 -1 2 1 2 3 -4 1 0zm314 -290l1 1 1 0 1 0 0 -1 -1 -1 -3 0 1 1zm-145 -449l-1 -3 -2 0 -1 0 3 5 1 0 0 -2zm148 346l0 -1 -1 -1 -2 0 0 2 1 1 2 -1zm-21 199l2 -2 0 -1 -1 -1 -4 1 0 1 1 1 2 1zm-22 36l2 0 2 -7 6 -6 -1 -2 -1 0 -2 -1 -2 4 -6 4 0 5 1 1 1 2zm-424 237l-2 1 -2 3 0 4 1 3 3 -1 0 -2 1 -3 1 -7 0 -2 -2 4 0 0zm-114 345l-4 2 -14 3 -7 2 -2 1 0 2 0 2 0 3 -2 6 -2 2 -3 2 -2 1 -1 4 -1 2 3 1 2 0 3 0 3 -1 2 -1 18 6 4 0 5 1 0 6 2 9 2 2 2 2 2 3 3 3 4 3 5 0 4 -1 5 1 10 1 4 0 11 -2 6 0 5 0 9 -1 9 -4 0 2 0 1 -3 2 -2 3 4 1 1 3 -2 1 -1 0 -4 2 -2 4 0 3 -2 -1 -2 -2 -3 -1 -5 -1 -6 -2 -3 -1 -3 1 -4 1 -6 7 -7 6 -3 -1 -3 -2 -11 -2 -4 0 -7 3 -4 2 2 3 2 2 2 1 6 0 4 1 9 7 8 7 3 5 2 5 -5 7 2 5 2 5 1 2 2 3 2 1 5 -1 5 0 2 0 6 -7 1 -2 0 -3 0 -2 4 -5 1 -4 -1 -4 4 0 2 -2 0 -8 1 -2 1 -2 3 -2 3 1 -3 4 -3 4 -1 2 0 7 2 5 4 3 2 1 2 1 1 3 1 2 3 0 3 -1 2 0 1 1 1 2 3 3 5 -2 3 2 4 1 2 0 4 -2 3 0 5 1 -8 0 0 3 -1 2 3 5 19 11 3 0 4 0 4 0 11 1 11 2 5 3 5 2 7 2 10 5 10 3 2 0 3 1 2 1 2 0 3 1 2 1 2 0 1 -1 2 2 19 11 1 2 2 1 2 0 1 1 3 3 3 1 1 4 -1 3 0 2 1 1 2 1 2 0 3 -1 4 -1 -4 2 -2 4 4 1 3 0 -2 2 -1 2 3 8 3 9 4 5 5 4 2 3 1 4 4 3 2 2 -8 2 -3 1 0 1 5 5 5 3 9 3 2 0 3 -1 -5 2 -2 0 -4 -1 -2 0 -3 0 -2 2 2 2 3 2 1 1 2 4 2 2 3 0 1 3 0 2 -1 2 -2 6 -3 4 -1 5 -1 2 -1 2 0 2 1 2 2 1 6 -5 5 -2 2 -4 1 2 0 3 2 2 3 1 6 -1 5 -1 6 -1 6 -1 4 -3 4 -4 -4 7 -2 2 0 1 1 1 4 5 16 13 4 5 4 5 5 5 6 5 8 5 4 0 3 -2 5 -1 5 2 4 1 4 0 11 -1 10 -1 3 1 4 1 2 1 4 3 5 1 9 -5 9 -5 6 -2 6 -4 1 -2 0 -4 0 -2 -3 -4 -4 -4 -4 -4 -2 -1 -3 0 -9 -4 -9 -1 -4 2 -4 -3 -1 -2 -2 -2 -5 -1 3 0 3 -1 2 2 1 2 2 2 3 1 4 -2 4 0 4 0 4 1 8 0 8 -2 7 -1 7 -1 -2 -4 -1 -4 -1 -1 1 0 5 0 5 1 2 0 2 0 -2 -3 2 0 2 0 -8 -17 -4 -3 3 1 3 2 2 3 3 3 3 1 7 2 3 0 2 -2 3 -1 1 -1 2 1 1 0 1 -4 2 -1 4 1 4 2 3 0 4 0 1 4 2 2 2 1 4 1 5 1 4 0 8 3 4 1 6 0 2 1 2 1 9 3 2 2 1 2 2 2 2 2 2 4 2 4 7 8 3 5 4 8 3 3 7 3 2 0 2 -1 -1 4 0 3 4 6 2 2 9 6 5 4 4 5 2 5 3 2 2 3 4 2 5 1 7 2 2 -1 2 0 5 1 5 2 2 0 7 0 2 -1 3 0 5 3 4 1 18 1 8 2 4 0 5 1 3 2 5 3 1 2 2 2 5 2 7 2 5 -1 2 0 6 -3 1 -2 -2 -2 -4 -2 -4 -4 2 -1 8 1 2 -1 7 -3 -8 1 -5 -2 -8 -1 -3 -1 -3 -2 -5 -1 -5 -1 -2 -1 -2 -1 -3 -4 -2 -2 0 -3 4 -2 3 0 2 -1 1 -2 -1 -1 -5 -1 -4 -1 -12 -1 -2 -1 -7 -3 -3 -4 1 -4 2 -5 -1 -5 -2 -2 -2 0 -2 0 -13 3 -5 0 -4 -2 -2 -4 -3 -11 -2 -1 -7 -5 0 -1 0 -3 -1 -5 -3 -7 -1 -2 -8 -6 -5 -1 -4 -3 -7 -7 -4 -4 -4 -3 -4 -3 -3 -4 -4 -9 -6 -10 0 -2 0 -2 7 -4 10 1 15 -1 4 -1 1 -2 1 -4 -1 -8 -1 -2 -2 -1 -1 -1 -4 -5 -3 -4 -2 -2 -4 -2 -2 0 -6 0 -5 -1 -4 -1 -26 -12 -8 -3 -9 -2 -6 -1 -5 -3 2 -10 0 -12 -1 -3 -18 -18 -5 0 -5 -1 -4 -3 -3 -4 -4 -4 -4 -3 -5 -1 -3 -3 -1 -3 -2 -1 -2 -1 -2 0 -6 1 -5 -1 -2 0 -3 -1 -5 -3 -4 -4 -4 -2 -8 -6 -5 -1 -11 -2 -5 0 -4 -1 -15 -5 -14 -5 -10 -5 -2 0 -2 0 -2 -1 -6 -4 -21 -9 -4 -1 -15 0 -1 -4 -2 -2 -2 -1 -14 -1 -2 0 -2 -2 -2 -1 -12 1 -3 -1 -13 -5 -10 -5 -4 -3 -5 -1 -5 -2 -4 -2 -3 -3 -4 -2 -23 -7 -4 -3 -4 -3 -4 0 -8 4 -10 5 -9 5 -2 1 0 2 2 4 0 2 -4 3 -10 4 -10 1 -9 2 -2 2 -2 5 -1 4 -1 2 -10 6 -1 2 -2 5 -3 4 -10 8 -3 4 -3 3 -5 1 -5 0 -6 -1 -3 -1 -5 -3 -1 -2 -2 -4 1 -5 -1 -3 -3 1 -3 0 -2 -10 0 -5 -1 -2 -3 -1 -2 1 -1 2 0 6 -1 5 -4 -9 -7 -13 -2 -5 0 -5 0 -4 -1 -6 -1 -5 2 -4 3 -4 1 -2 1 -5 -1 -2 -2 -4 -3 -4 -2 -5 0 -4 1 -2 -3 -3 -2 -1 -6 -1 -5 0 -11 0 -8 -4 -8 -5 -9 -4 -10 -2 -5 -1 -5 0 -11 5 -2 1 -2 2 -3 2 -3 3zm-30 -154l0 -1 0 0 -1 1 -1 0 0 1 1 0 1 0 0 -1zm59 -1350l-1 -1 -1 -2 0 1 -2 2 -1 1 4 1 1 -2zm-9 13l2 -2 1 -2 0 0 -5 1 -2 -2 -3 0 0 1 0 2 3 0 4 2zm560 830l0 0 2 0 0 -1 2 -2 0 -2 1 -1 -1 0 -3 2 -1 4zm-477 718l0 3 0 2 1 -1 2 -3 -1 -1 -1 0 -1 0zm23 -45l-3 1 0 3 2 3 2 1 2 -1 1 -3 -1 0 -1 -3 -2 -1zm669 401l-1 2 1 1 3 1 1 -3 -1 -1 -3 0zm-210 -1205l-1 1 -3 4 3 -1 2 -2 -1 -2zm-110 1116l3 3 2 1 6 4 6 3 0 -2 -7 -5 -6 -2 -4 -2zm17 2l0 0 -1 -3 -2 -1 -9 0 2 2 8 3 2 -1zm228 503l1 0 0 -1 -2 -2 -1 -3 -2 5 2 1 2 0zm-4 -10l-1 1 -1 2 1 1 1 -1 1 0 1 -4 -2 1zm-113 -80l0 1 -2 1 -4 0 1 1 3 3 2 4 2 1 2 -1 0 -2 -2 -3 0 -4 -2 -1zm195 -369l-4 -4 -2 -1 -3 1 -6 -3 -1 0 -3 0 0 1 0 2 3 5 0 1 -3 2 6 1 4 1 6 0 2 0 -1 2 3 -2 0 -1 -1 -2 0 -3zm-365 52l3 -2 -3 -5 -3 2 0 1 1 3 2 1zm143 -1080l0 2 1 3 2 -2 -1 -4 -1 0 -1 1zm15 820l-2 2 -1 3 1 3 2 1 3 -2 1 -3 -1 -3 -1 -1 -2 0zm77 41l0 4 4 5 4 2 0 2 2 -1 1 -2 1 -5 -1 -2 -9 -5 -2 0 0 2zm139 121l-2 1 -2 3 3 2 1 1 -1 2 -1 4 3 3 0 -3 1 -7 -1 -2 0 -4 -1 0zm-165 -125l2 -2 0 -6 -4 -2 -4 3 -1 2 1 1 4 4 2 0zm133 171l0 -1 1 -4 0 -2 -2 -4 -4 -2 -3 2 -1 4 6 6 3 1zm-106 -303l-1 2 -2 0 1 1 3 0 2 -2 -2 -2 -1 1zm126 312l-1 -1 0 3 3 4 2 4 2 1 0 4 9 3 3 1 2 -10 -1 -1 -3 1 -3 3 -2 0 -1 -2 0 -1 -8 -6 -2 -3zm-2430 -909l-1 1 1 2 3 2 -2 -6 -1 1zm6 160l2 0 -1 -1 -2 -5 -1 1 -1 3 3 2zm-52 -566l3 0 0 -5 -1 -3 0 -1 -1 -1 -2 1 0 6 0 2 1 1zm-14 -38l0 -2 -1 -3 -2 -4 -1 -2 -1 1 -1 6 2 4 2 1 2 -1zm-17 0l-3 -6 -1 18 4 -3 1 -5 -1 -4zm79 111l-1 -4 -2 -6 -2 -1 0 3 3 6 2 2zm-13 294l0 -1 -1 0 -1 1 0 6 2 -3 0 -3zm-3 35l-1 4 -1 3 -1 1 -2 2 1 2 1 5 4 7 1 1 1 -1 2 -4 0 -5 1 -5 0 -2 -1 -1 -1 -2 2 -2 0 -1 3 -5 1 -2 -1 -9 3 0 2 -4 -1 -13 -3 -4 1 -1 2 -4 2 -1 1 -3 1 -3 1 -1 -3 -4 3 -2 -1 -2 0 -4 -1 0 -4 2 -3 5 0 6 -2 8 1 2 -1 5 -3 2 0 2 1 5 -2 2 0 3 0 8 1 1 1 1 1 3 -1 1 -3 0 -1 1 -1 3zm-34 -420l0 1 -1 4 1 2 1 -3 1 -3 -1 -1 -1 0zm281 433l-6 1 1 3 -1 1 2 5 1 0 3 1 1 -8 -1 -3zm443 -333l-7 6 -5 2 -4 4 -1 1 -1 2 0 16 0 1 1 5 1 10 10 5 4 2 7 2 6 1 3 0 5 3 3 0 4 -1 1 -1 2 -3 2 -2 7 -2 2 1 2 -2 0 -1 -1 -1 5 -3 4 -4 1 0 2 0 3 -1 2 -3 1 -2 2 -7 2 -6 0 -1 0 -2 1 -1 2 -4 8 -12 3 -1 5 -3 -1 -4 -1 -6 -2 -2 -2 -2 -3 -1 -3 -2 -2 -4 -2 0 -2 2 0 1 0 4 -7 -3 -1 0 -1 2 1 1 -2 -2 -6 -1 -2 0 -3 3 -8 1 -11 -1 -2 1 -3 2 -4 1 -5 -1 -2 1 -2 2 -1 3 1 1 3 0 -4 3 -5 3zm-36 670l-1 0 -4 2 4 3 5 -2 4 -6 0 -2 0 -4 -6 -7 -1 -3 -1 1 -9 6 0 3 2 4 2 1 6 2 0 1 -1 1zm34 106l-3 3 -1 10 -1 5 1 10 1 8 5 4 3 4 2 2 1 2 1 0 1 1 -3 2 -1 6 -1 1 -1 4 0 5 1 2 1 2 4 4 5 2 -1 1 -2 1 -2 2 0 3 1 2 2 1 5 0 10 3 4 3 4 3 2 4 2 4 2 5 1 5 -1 5 -2 4 -1 5 5 4 1 2 1 10 5 19 0 9 1 2 2 1 2 -2 1 0 8 -2 4 5 2 0 1 -1 3 -2 4 -1 -2 1 -1 2 2 3 2 0 5 0 9 -4 5 -1 5 1 5 0 2 -2 1 -1 3 2 2 3 1 2 0 10 0 5 0 5 1 0 2 1 2 -1 7 -7 7 -2 7 2 6 1 7 -3 9 -6 3 -10 13 13 1 -1 1 0 5 -2 2 0 2 1 1 2 0 3 0 4 3 1 4 1 6 -3 6 -5 1 0 1 2 2 1 2 1 2 -3 3 -3 -2 6 0 2 2 1 2 1 2 1 3 -5 1 5 3 9 0 17 2 1 1 1 24 -11 29 -13 2 -3 1 -3 2 -4 4 -5 0 -2 2 -1 2 -1 -4 -4 0 -2 0 -2 3 2 2 -1 2 -3 1 -2 1 -6 0 -5 -3 1 1 -2 1 -1 2 0 2 0 3 -1 1 -4 1 -5 -2 -3 -4 -1 -2 -2 -3 0 5 -4 1 -5 -1 -3 0 -3 -3 0 -3 0 1 -2 1 -1 6 -3 2 -2 1 -2 0 -3 3 -2 4 -2 2 -2 1 -3 -1 -2 -1 -2 0 -3 0 -2 1 3 2 3 2 1 3 1 3 -2 3 -3 3 -4 4 -4 5 -2 7 -3 2 -1 0 -2 0 -2 -1 -5 -3 -10 0 -5 2 -18 1 -5 9 -16 1 -1 3 -1 3 -2 2 -2 0 -3 -1 -3 -1 -3 4 2 3 5 4 2 5 1 10 2 9 -1 6 -2 4 -4 -1 -3 -5 -2 -9 -9 -7 -4 -13 -10 -3 -2 -7 -7 -2 -4 -2 -2 -2 -1 4 -1 1 -1 2 -3 4 -3 1 -2 0 -2 -1 -2 -7 -7 -3 -5 -1 -4 -1 -1 -4 -1 -1 -1 1 -1 2 -2 -3 -1 -3 0 3 -1 -1 -2 0 -3 -2 -1 -2 -1 -4 -2 -3 -1 -1 -2 2 -5 -1 -3 -8 -7 -2 -1 -2 0 4 -1 5 0 7 1 2 -2 1 -3 2 2 3 2 3 0 3 -2 -1 -2 -1 -1 0 -1 -4 -4 -3 -2 0 -2 -4 -4 1 -2 3 -2 2 -1 2 -5 1 -1 2 0 7 3 5 1 4 -2 5 -1 6 -1 5 -1 2 -1 2 -1 0 -2 -1 -2 -10 -7 -6 -6 3 -7 3 -1 2 0 7 2 5 0 11 -3 9 -3 3 -2 2 -2 0 -2 0 -2 0 -3 -1 -2 -2 -1 -6 1 -2 0 -2 -1 -10 -5 -5 -1 -1 -4 -2 -2 -3 -1 -4 -2 -2 -1 -2 0 -5 3 -4 2 -3 0 -2 -3 0 0 6 -2 2 -2 -2 -5 -3 -3 -4 4 -3 1 -14 2 5 -2 1 -2 1 -3 -2 -6 3 -3 0 -3 -1 -3 -1 -2 -1 -2 -5 -2 -5 -2 -3 -3 -2 -4 0 -2 0 -4 -1 -1 -4 -1 -2 2 -3 5 -4 6 -5 2 -1 0 1 -3 2 -4 0 -2 -1 -5 -2 -2 -1 1 -9 16 -2 3 -15 16 -1 6 -2 5 -6 6 -2 5 -3 3 -3 0 -2 0 -3 -1 0 -2 -2 2 -6 6 0 4 2 3 5 2 -2 4 -1 2 -4 4 -2 1 -10 2 -5 0 1 -3 0 -2 -2 -1 -7 4 -4 2 -4 4 -4 3 -5 3 -5 2 -5 0 -6 0 -1 1 -2 1 1 3 0 3 -2 5 -1 2 -9 10 -11 11 -5 7 -8 9 -4 6 -2 2 -3 1 -8 3 -26 6 -16 3 -5 1 -4 3 -3 5 0 6 0 3 0 2 -2 0 -2 0 -2 -1 -3 -2 -1 3 -1 3 1 4 2 3 0 3 -3 3 -1 3 0 7 -2 3 -3 2 -1 3 2 3 2 1 4 3 -3 0 -2 -1 -6 -5 -2 0 -5 0 -5 -1 -11 -6 -2 -1 -2 1 -3 0 -5 0 -6 -1 -5 -2 -6 -4 -1 -1 -3 -6 -10 5 -3 4 -1 5 -5 4 -4 4 -1 3 -2 8 3 0 1 -1 2 0 -2 2 -3 0zm59 -839l-2 -1 -3 1 -2 2 1 1 2 0 4 0 3 1 2 -2 0 -1 -1 -2 -4 1zm150 -50l0 -3 2 -2 -7 2 -2 2 1 1 1 0 5 0zm-269 1062l0 1 0 4 2 3 -1 3 2 0 7 -2 0 -2 1 -1 4 2 1 1 0 3 3 0 2 -1 3 -3 1 -1 1 -5 3 -7 -3 -5 -6 -4 -8 -2 -2 -1 -7 1 -1 7 -2 3 0 3 -1 2 1 1zm279 -1062l0 -1 1 -1 -3 -2 -2 1 0 1 3 3 1 -1zm-67 22l-3 2 -2 2 1 0 4 -1 0 -3zm5 6l1 -1 1 -4 0 -1 2 -2 -1 0 -2 -1 -1 2 -2 2 1 1 0 2 1 2zm-59 797l-1 -1 -1 1 0 13 2 2 1 -1 0 -2 0 -5 0 -5 -1 -2zm-271 128l1 0 1 -2 2 0 -2 -1 -2 -2 -3 -3 -1 3 -1 -1 -3 -3 -3 -1 1 -1 -1 -2 -4 -1 -2 6 -2 3 1 0 4 2 5 -2 9 5zm-13 -61l0 -3 -4 2 -3 -1 -3 0 -5 4 0 1 1 2 1 0 6 -1 1 2 -1 2 2 1 0 1 0 1 1 1 3 1 1 -1 2 -4 1 -4 -1 -2 -2 -2zm3 43l-5 -5 -2 0 4 6 1 0 1 1 2 1 0 -1 -1 -2zm-13 21l-1 0 -1 -1 0 1 -2 3 3 3 1 5 2 -3 3 1 1 -1 2 -3 2 -2 -1 -1 -4 -4 -5 2zm131 104l1 -2 -1 0 -2 0 -1 1 0 1 1 1 2 -1zm-91 -43l-5 2 -2 3 0 3 4 1 2 2 2 0 9 -2 2 1 5 1 3 2 1 6 2 4 2 2 1 1 -1 7 1 4 3 3 5 1 5 2 4 2 3 1 2 1 2 2 2 1 3 0 2 0 0 -2 -2 -3 0 -2 2 -8 2 -2 1 -1 3 -2 -19 -5 -6 -11 -2 -14 -2 -2 -2 -3 -1 -3 -1 -3 -2 -2 -3 -2 -4 0 -4 1 2 6 -3 3 -1 -2 -1 -3 -2 -4 -6 2 -2 2 -1 2 -1 2 1 1 0 3 -3 2zm533 -464l-3 1 -2 0 -5 6 -7 5 -2 3 -5 6 -3 2 -4 7 -1 4 -1 4 4 -3 5 -3 2 0 2 -2 1 -2 1 -2 5 -1 4 -3 5 -2 4 -4 3 -4 3 -5 4 -3 5 -1 4 -3 2 -3 3 -4 9 -14 -1 -4 1 -2 2 -2 5 -2 10 -2 1 -2 1 -2 2 -4 4 -4 2 -1 5 -1 2 -1 4 -4 0 -2 -3 -7 -4 -10 2 -4 -1 -2 0 -3 1 -4 -1 -2 -2 -2 -1 3 -5 11 -2 2 -2 6 2 4 0 2 -1 5 -2 4 -2 2 -2 1 -2 1 -3 1 -7 10 -1 1 -4 3 -8 10 -8 8 -10 11 -4 3 -1 0zm-454 -50l-1 0 -1 1 -3 2 1 2 3 -3 1 -2zm-7 687l-4 3 -2 0 -2 1 -7 -3 -4 -1 -5 0 -4 -1 -8 -1 -4 -2 -2 1 -4 3 -3 4 -3 15 -1 1 -2 0 -2 -1 -2 6 -2 3 -4 4 -1 0 -2 0 -1 -1 0 -4 -2 1 -3 2 -1 2 1 3 2 0 2 -1 3 0 2 1 5 1 5 -1 5 0 5 1 10 2 14 6 -1 2 -2 3 -2 2 0 3 2 3 3 1 4 1 19 1 9 1 11 3 2 1 4 3 5 2 5 2 12 2 5 1 5 0 3 -3 2 -1 7 -2 5 0 5 2 9 -1 4 1 24 5 8 3 24 10 9 3 9 1 12 1 8 2 25 1 10 1 10 2 4 0 4 0 5 -2 5 -2 5 -1 5 0 18 8 11 4 9 2 5 0 2 1 2 3 3 1 6 1 0 -1 0 -2 -5 -3 -1 -2 -3 -7 0 -3 0 -3 3 -11 0 -4 -2 -4 -1 -1 -13 -6 -1 0 -7 2 -5 1 -11 1 -10 -1 -10 -2 -9 -5 -1 -5 1 -5 -2 -2 -5 -1 -1 -2 -1 -6 -2 -5 -5 -1 -5 0 -7 0 -2 0 -4 -4 -11 -1 -2 -1 -2 -2 -4 -2 -3 0 -4 2 -2 0 -6 -1 -1 0 -7 -9 -1 -1 -6 -1 -2 1 -2 1 -1 2 -2 2 -1 5 -2 5 -3 4 -4 2 -2 0 -2 0 -3 -1 -3 -1 -5 0 -6 1 -4 -1 -10 -2 -4 -2 -4 3 -5 0 -11 -2 -5 -1 -5 0 -4 0 -4 -3 -2 -9 -1 -2 -4 -3 -4 -4 -2 -1 -1 0 -3 1 -2 0 -6 -1 -5 -2 -4 0 -5 0 -4 -2 -4 -2 -4 -5 -2 -1 -7 -1 -5 -2 -1 4zm-31 -379l0 -3 -1 -2 -2 -1 -1 1 1 3 3 2zm12 -234l1 1 1 -1 1 0 0 -1 1 -2 -4 3zm-36 244l2 -1 2 -1 1 -3 0 -1 -2 0 -1 -1 -1 -1 -2 -1 0 2 1 2 0 1 0 2 0 2zm-91 128l-3 3 -1 3 6 1 6 -2 1 -1 -2 -2 -4 -2 -3 0zm852 -1039l3 -1 1 -2 1 -1 -7 -3 -1 1 0 2 -3 2 0 1 3 0 3 1zm-60 -250l0 -2 0 -3 -2 0 -1 1 2 4 1 0zm-20 665l1 0 2 0 1 -4 -2 -6 2 -3 1 0 1 0 -1 -1 -3 -2 -5 0 -1 3 2 2 1 4 1 1 1 3 -1 1 0 2zm2 22l9 6 0 -2 -9 -7 -1 1 0 1 1 1zm88 23l5 3 3 -2 2 0 1 1 1 -3 2 -2 0 -3 1 -5 -3 -3 -2 0 -3 -6 -2 1 -1 1 -1 2 0 8 -4 6 1 2zm58 -481l-2 -2 -3 -1 0 -2 -2 -1 0 6 4 1 3 -1zm-306 13l1 -2 -1 -1 -2 -2 -1 1 -1 2 1 0 0 2 3 0zm338 -404l-2 3 1 1 2 3 1 0 1 1 2 -1 11 -1 5 -2 7 -3 1 -2 2 -3 -2 -3 -6 -2 -2 0 -15 5 -6 4zm-80 916l1 7 3 7 2 3 4 4 1 1 5 1 3 4 2 1 1 2 3 3 2 1 2 0 0 2 0 3 -3 4 1 3 4 6 2 2 3 1 3 5 4 0 5 1 8 0 2 0 2 3 1 -1 -2 -4 -3 -3 -3 0 1 -2 1 -2 -1 -2 -3 -7 -1 -2 0 -3 0 -2 -1 -2 0 -8 2 -4 0 -4 1 -2 -2 -3 -3 -1 -3 0 -1 -2 0 -2 -1 -3 -2 -3 -4 -2 -13 1 -12 1 -11 -2zm-5 -507l2 -1 3 -7 1 -2 -1 -1 -4 5 -1 1 -3 -1 -1 1 2 4 2 1zm-123 -170l-1 -2 -1 -1 -3 4 0 3 1 0 4 -1 0 -3zm28 407l3 -3 -2 -2 -2 1 -2 2 0 1 -1 3 1 1 3 -3zm-146 -242l-2 -3 -2 2 -3 0 1 1 5 1 1 -1zm144 158l-1 0 -2 4 0 2 1 0 2 -4 0 -2zm-75 -104l-1 3 1 3 1 2 2 3 3 11 2 4 2 4 0 -1 3 3 3 2 5 4 1 2 3 6 0 6 2 3 5 2 1 -5 0 -5 0 -5 1 -5 2 -6 3 -5 6 -7 6 -8 2 -4 2 -5 3 -11 2 -11 3 -8 1 -9 1 -3 4 -7 4 -11 0 -5 -1 -4 1 -4 1 -3 3 -3 -1 -4 -2 -2 -5 -2 -2 -2 -2 -2 -2 -2 -3 0 -3 1 -3 4 -12 5 -2 1 -3 5 -3 5 -3 4 -3 3 -5 8 -20 33 -1 3 0 5 0 6 -1 4 -1 4zm55 166l-1 1 0 1 0 1 4 3 3 0 -1 -4 -5 -2zm27 -457l2 1 3 2 1 0 -1 -1 -2 -4 -2 0 -1 2zm-86 594l-3 -1 -1 -2 -3 -2 -1 1 -1 2 -1 9 1 2 1 2 2 2 1 2 1 1 1 17 2 4 2 5 1 5 0 6 2 5 2 2 3 0 2 1 1 4 4 3 1 5 2 2 2 1 3 0 1 -2 0 -5 -2 -7 2 -5 2 3 3 1 4 1 4 2 2 3 0 4 -1 2 -10 9 -2 2 -1 2 0 8 1 9 4 -4 5 0 3 5 4 1 3 3 5 2 6 -1 4 -2 0 -4 2 -2 6 -3 2 -1 3 0 1 0 12 6 6 6 7 6 1 1 4 5 1 2 0 3 4 2 3 -2 -1 -6 -2 -5 -1 -2 -3 -4 -1 -2 1 -3 -1 -2 -1 -3 1 -2 2 0 2 1 8 7 4 6 1 1 11 6 1 2 1 2 4 6 0 4 0 3 4 0 10 5 4 1 3 0 3 -1 2 -1 1 1 -2 5 -1 5 4 4 4 1 3 -10 0 -10 -1 1 -2 -1 -5 -3 -3 0 -4 0 2 -3 0 -4 -3 -3 -2 -4 -4 -4 -3 -5 3 -2 8 -1 2 -3 -1 -2 -4 -2 -2 0 -2 0 -8 -3 -3 -3 -2 -1 -2 1 -1 2 2 2 0 4 -3 4 -5 0 -2 -2 0 -2 0 -3 0 -2 -2 -5 -3 -5 -4 -2 -4 -2 -5 -1 -6 0 -5 2 -4 3 -2 1 -1 1 0 2 3 2 0 2 -2 1 -1 2 -3 0 -2 0 -7 -4 -3 -1 -2 -3 -1 -2 -1 -3 -4 -10 -1 -4 0 -5 3 -2 -1 -1 -1 -1 -5 -9 -4 -9 -2 -3 0 -2 1 -2 1 -2 2 -4 4 -5 1 -2 0 -2 -1 -2 -1 -2 1 -5 4 -3 4 -3 8 -4 7 -1 3 -7 1 -3 8 -17 2 -7 1 -3 1 -3 -2 -1 -3 -1 0 -3 0 -3 -1 -1 -4 -2 -2 -2 -2 -6 -1 -4 0 -4 1 -13 2 -4 3 -4 1 -3 -1 -4 -1 -2 -2 -2 -3 1 -3 5 -2 2 -4 1 -4 0 -6 -2 -5 -2 -14 -8 -6 -2 -3 0 -5 1 -2 0 -3 0 -4 2 -5 2 0 6 -2 4 -1 5 -7 22 1 5 2 4 0 2 0 5 0 8 -1 5 -3 9 -1 5 0 5 1 5 3 8 0 2 -1 3 -2 1 -2 1 -5 0 -1 -1 -4 -5 -2 -1zm84 -183l-2 1 -1 4 1 0 1 -1 3 -4 -2 0zm13 -421l1 -3 -2 -2 -7 -3 -6 0 0 3 2 2 6 1 5 3 1 -1zm-1241 899l-1 0 -1 2 0 1 1 2 2 -1 1 -1 -1 -3 -1 0zm1194 -420l0 1 1 2 2 2 0 -3 0 -3 -2 -1 -1 2zm-969 292l-1 0 -1 0 -1 0 -1 2 2 3 1 1 1 0 1 0 -1 -2 0 -2 0 -1 0 -1zm-115 306l2 5 3 4 3 5 17 16 10 8 4 4 5 7 4 2 11 2 4 3 3 3 10 12 2 4 3 5 3 4 9 5 1 3 1 4 1 8 1 5 4 4 5 0 4 1 3 2 20 12 2 2 4 7 4 8 6 20 5 14 3 10 2 4 3 3 4 3 11 4 3 3 2 3 6 12 3 3 4 3 3 4 8 10 1 1 3 11 4 9 16 26 -1 9 2 4 3 4 7 10 3 3 5 3 2 4 2 3 7 11 3 4 7 5 13 9 3 4 8 12 6 8 16 13 10 5 4 3 4 4 3 2 15 9 3 2 10 13 3 3 4 3 5 7 5 4 5 5 1 0 3 -1 -1 -3 -2 -7 0 -3 1 -2 12 6 4 2 2 1 2 -1 8 -6 2 -1 7 5 1 2 1 2 2 1 2 1 3 0 3 -4 0 -2 3 -28 0 -9 0 -5 0 -5 -2 -16 0 -2 4 -10 0 -2 -1 -2 -2 -2 -1 -5 2 -7 1 -1 5 -7 1 -1 0 -3 0 -2 -6 -9 -14 -17 -3 -2 -4 -2 -5 -1 -11 0 -2 0 -3 1 -1 1 -6 7 -2 1 -2 0 -1 -3 1 -4 1 -2 5 -4 2 -2 0 -3 0 -3 -2 -2 -5 -3 -4 -2 -2 -5 0 -5 -2 -4 -1 -10 -1 -4 -2 -8 -1 -1 -4 0 -3 1 -6 -2 -5 -2 -9 -3 -6 -4 -2 -2 -4 -7 0 -2 3 -3 0 -2 -4 -2 2 -4 -2 -1 1 -2 7 -6 5 -2 3 -2 -2 -6 -3 -4 -4 -5 -4 -3 -3 -1 -3 -1 -2 1 -8 4 -4 3 -4 2 -5 1 -10 2 10 -4 9 -5 3 -3 -2 -3 -3 -4 -4 -2 -12 -2 -4 -1 -4 -2 -6 -7 -1 -1 -1 -5 -2 -5 -2 -4 -3 -3 -10 -8 -4 -2 -5 0 -4 -1 -3 -3 -2 -5 -3 -5 -3 -4 -7 -6 -5 -2 -2 1 -2 1 -1 2 0 3 3 3 0 5 -3 -2 -5 -6 -4 0 -3 -2 -3 -3 -2 -3 -2 -4 -2 -2 -8 -8 -4 -6 -2 -4 -3 -4 -7 -8 -9 -5 -16 -11 -12 -6 -3 -2 -4 -3 0 -2 -2 -2 -5 -3 -9 -4 -3 -4 1 -5 -1 -4 -9 -9 -1 -2 -2 -4 -2 -5 -9 -6 -5 -6 -1 -1 -2 -1 -2 0 -11 1 -5 -1 -5 -2 -5 0 -9 2 -6 0 -10 -2 -5 -1 -4 -2 -8 -7 -4 -3 -5 -1 -5 -1 -5 0 -5 2 -2 1 0 2 1 2 0 2 -1 3 -1 3 8 12zm92 -475l1 -6 0 -1 0 -1 -1 -2 -1 0 -2 0 -2 2 1 6 2 3 2 -1zm-94 442l1 -2 0 -1 0 -1 -3 -1 -2 0 -1 0 3 4 2 1zm1320 -1247l-2 -2 -2 0 0 2 1 2 4 1 -1 -3zm-1195 1109l-1 -3 -1 1 0 1 -1 2 3 0 0 -1zm-1 -41l-3 0 -3 3 -1 4 0 0 2 -2 2 -1 3 -2 0 -2zm13 -80l-3 -2 -3 -4 0 1 1 7 1 0 3 -1 1 -1zm-8 -27l-1 -2 -3 -2 -1 3 2 4 -1 8 1 0 2 -1 3 -5 0 -4 -1 0 -1 -1zm-6 -25l0 -1 -1 1 0 3 1 4 2 3 0 -7 -1 -2 -1 -1zm231 515l-1 0 0 2 4 2 0 -1 -1 -2 -2 -1zm-423 -272l-2 1 -1 1 -1 2 2 2 3 -4 -1 -2zm-53 -145l-3 3 -1 2 2 4 -1 4 5 1 1 -1 3 -6 -1 -5 -2 -4 -3 2zm9 -27l-1 3 -1 2 2 1 2 -1 0 -1 0 -2 -2 -2zm35 138l-1 2 0 2 0 2 0 1 1 1 0 0 2 -1 -1 -5 1 -2 -2 0zm-6 9l-1 2 1 1 1 2 3 0 1 -1 -1 -2 -3 -3 -1 1zm12 -462l-6 1 4 5 4 4 1 -1 1 -1 1 -4 0 -3 -5 -1zm40 123l2 -5 -1 -3 -2 3 -3 3 -4 3 1 7 3 -4 4 -4zm-46 -166l-3 -3 0 4 1 3 3 2 -1 -6zm55 175l2 -3 -1 -2 -3 5 0 0 2 1 0 -1zm-46 372l6 10 2 -3 2 -6 -3 -10 -2 -1 -6 2 -1 2 0 5 2 1zm369 229l-18 -5 -1 1 0 1 0 1 2 2 4 2 4 0 4 2 3 2 3 1 0 -5 -1 -2zm3 16l-2 1 0 5 -1 1 -1 3 2 1 2 1 7 2 3 0 8 2 1 1 1 -1 -1 -5 -2 -2 -7 -2 -3 -2 -4 -2 -3 -3zm19 2l-9 -4 -3 0 -1 5 1 0 3 1 4 1 3 2 3 3 3 1 2 1 1 -2 -4 -6 -3 -2zm7 22l5 0 0 -3 -2 -3 -2 0 -2 2 0 4 1 0zm-34 -33l-3 -2 -1 -1 -1 3 0 3 1 5 1 3 2 3 2 2 2 -2 0 -3 1 -3 -1 -4 -1 -1 -2 -3zm65 -3l-4 -2 -4 1 -3 4 7 3 7 -3 1 -1 -2 -1 -2 -1zm8 20l0 0 0 1 3 4 3 -1 -1 -2 -2 -1 -2 -2 -1 1zm-3 -11l-1 2 -2 0 0 2 -1 1 0 1 1 1 5 1 2 -4 1 -1 0 -2 -2 1 -3 -2zm-26 5l-1 -3 -1 1 -2 2 2 3 3 0 0 -2 -1 -1zm-3 12l4 6 1 -1 2 -2 -1 -3 -2 -2 -2 -2 -1 1 -1 3zm-222 -485l-3 -1 -2 2 1 1 2 2 2 -3 1 -2 -1 0 0 1zm23 182l-3 -3 2 9 1 -1 0 -5zm122 263l4 1 5 -3 1 -4 1 -2 0 -2 -2 -4 -3 -2 -4 3 -4 0 -2 1 0 5 3 6 1 1zm-132 -266l-2 -2 -1 1 -1 9 1 6 1 0 2 -2 2 0 0 -3 0 -3 1 -5 -3 -1zm-13 -153l-2 -4 1 7 2 2 0 -2 0 -2 -1 -1zm4 34l-3 3 3 -1 3 3 1 4 1 0 1 -1 0 -1 -3 -7 -2 -1 -1 1zm2 -26l0 4 1 1 0 0 0 -1 2 -2 1 -3 1 -5 -1 -3 0 1 -2 5 -2 3zm90 258l-1 -1 -3 -1 -2 1 0 7 3 0 1 -1 2 -5zm42 99l-1 -1 -2 1 0 2 0 1 2 -1 1 -2zm-73 -148l2 3 1 0 1 -2 -2 -6 -2 5zm2 9l2 2 2 3 2 -1 1 -1 2 0 1 0 1 -2 -3 -5 -1 1 -3 2 -1 -1 -3 0 0 2zm-24 -51l-1 -2 -1 1 0 3 2 2 1 1 -1 -5zm-25 -142l1 1 1 0 1 0 -1 -6 -2 5zm67 55l0 -1 0 -2 -1 -2 -3 0 1 2 1 1 2 2zm-266 -410l3 1 4 -2 1 -1 0 -2 0 -1 -3 -2 -1 0 -5 -4 -1 1 -2 2 1 2 2 2 1 4zm1234 1159l-3 2 -1 3 12 0 1 -2 1 -4 -5 -1 -4 1 -1 1zm-974 -744l0 3 1 2 4 -1 1 -3 0 -2 -1 0 -4 0 -1 1zm103 -106l-3 -3 -1 0 -1 1 2 6 2 0 1 0 2 0 0 -1 -1 -1 -1 -2zm190 -374l4 3 1 0 1 -1 1 -1 0 -1 -1 -1 -4 -1 -2 2zm28 -18l-4 -2 -1 2 -2 6 2 0 6 -5 -1 -1zm-34 16l2 1 2 2 0 -1 0 -2 -3 -3 -1 3zm27 -2l3 0 2 -1 1 -2 0 -3 -1 1 -2 3 -3 2zm-176 433l3 4 1 -2 -4 -3 0 1zm-28 -38l-1 2 3 2 0 -4 -1 -1 -1 1zm19 13l0 3 0 0 1 0 1 0 -1 -4 -1 0 0 1zm440 -495l-3 0 1 2 2 1 1 0 3 3 -1 -2 -1 -2 -2 -2zm-395 538l0 -2 -2 -2 -2 0 -3 3 -2 0 0 1 4 4 3 9 1 -1 -1 -3 2 -4 0 -5zm2 316l1 2 1 0 2 0 0 -2 -1 -4 -1 1 -2 3zm734 -1246l-2 -2 -2 -1 -1 -2 -5 -2 -6 -1 1 3 4 5 8 4 11 4 4 -1 -1 -2 -2 -1 -9 -4zm7 1379l-3 3 -1 2 1 -1 2 -1 1 0 4 0 1 1 1 -3 -1 -1 -3 0 -2 0zm-77 -455l3 -3 1 -1 -3 -1 -4 -2 -4 4 2 4 5 -1zm57 187l-3 1 -2 -4 -5 0 -6 3 -1 3 2 2 4 -1 3 1 5 -2 4 3 5 -3 0 -1 -1 -1 -5 -1zm-39 -254l-4 -3 -1 -3 -2 2 -1 1 -2 -1 -1 -1 -5 -3 -2 -3 -1 1 -1 0 0 1 1 0 -1 2 0 2 1 0 2 5 3 3 4 0 3 -1 3 1 3 -1 1 -2zm-16 293l2 -3 4 -1 0 -2 2 2 1 0 2 -1 1 -2 -1 -1 -1 -3 -2 1 -3 2 -4 2 -7 4 0 2 2 1 4 -1zm-7 -878l-1 -1 -2 0 -1 2 1 2 -1 3 0 2 2 1 3 -2 0 -1 -1 -1 2 -2 0 -2 -1 0 -1 -1zm-12 1127l-7 14 -2 7 0 4 1 4 -1 3 2 7 -1 4 -4 4 -3 5 -1 5 0 5 -2 4 -5 5 -3 1 -2 1 -2 1 -1 2 0 2 2 3 1 4 -1 4 -1 5 1 5 2 5 2 4 3 2 10 -3 5 0 3 0 2 2 1 2 0 2 -1 2 0 3 1 2 5 9 0 2 0 16 -1 4 -2 4 -1 5 0 6 -3 8 -2 5 -2 5 1 5 4 4 4 3 6 4 2 0 3 -1 3 -3 2 -1 6 0 5 -1 2 0 2 -1 5 3 0 -5 -1 -4 -5 -10 0 -2 1 -6 4 -10 1 -4 -2 -9 0 -13 0 -10 3 -4 0 -2 -2 -15 -2 -4 -2 -4 -2 -4 0 -5 4 -3 8 -6 5 -2 4 -1 5 0 5 1 3 3 0 6 0 5 0 6 -1 2 -6 8 0 3 0 2 1 2 16 15 5 3 5 1 3 3 0 3 -1 2 -1 1 -1 2 -2 12 1 5 3 3 2 1 5 1 7 2 5 -1 1 -2 -1 -5 1 -2 2 -3 4 -2 11 -3 6 0 3 0 2 -1 -1 -1 1 -2 4 2 2 0 1 -1 0 -5 0 -3 -1 -2 -1 -2 -2 -1 -1 2 -1 0 -3 0 -1 -3 -2 -1 0 -3 -1 -2 -2 -1 -4 -5 -2 -1 -3 -1 -2 -1 -1 -2 0 -2 0 -2 2 -6 1 -4 3 -3 -1 -3 -3 -3 0 -2 0 -2 0 -2 -9 -7 -3 -4 -2 -5 -5 -8 -3 -4 -2 -1 -5 -2 -2 -1 -3 -4 -4 -3 -2 -1 0 -3 2 -2 5 2 2 1 4 0 3 -2 2 -4 3 -3 13 -4 4 -2 3 -2 8 -6 6 -7 3 -5 3 -4 2 -2 2 -1 6 -1 5 1 3 4 3 1 3 -1 1 -1 2 -8 -1 -3 -2 -2 -4 -3 -4 -1 -7 2 -6 1 -2 1 1 1 2 2 0 1 -10 1 -5 -1 -11 0 -4 2 -2 2 -2 1 -5 2 -5 1 -5 -1 -2 -1 -2 -2 -3 -1 -2 1 -4 4 -6 7 -3 4 -2 5 -5 3 -5 -1 -5 -1 -3 1 -3 0 -2 -5 -4 -9 -4 -3 -6 -3 -2 -1 -6 -9 -1 -4 -1 -5 -1 -6 0 -4 1 -5 2 -5 2 -5 2 -5 5 -5 2 -2 5 -3 5 0 5 0 8 3 5 0 17 -2 4 0 4 0 5 2 5 0 9 -1 9 0 27 -1 3 0 4 0 4 3 3 4 2 0 9 1 5 0 5 0 15 -3 4 0 3 -1 5 -2 1 -1 4 -4 3 -4 2 -3 3 -4 8 -7 3 -3 3 -4 3 -9 1 -1 4 -3 0 -1 -3 -6 -2 -2 -5 0 -2 1 -3 4 -4 5 -1 1 -5 1 -1 1 -1 3 -2 3 -5 2 -6 7 -15 7 -3 1 -24 -4 -9 -1 -2 1 -2 0 -3 3 -2 0 -2 0 -6 -4 -5 -1 -4 -2 -14 0 -10 -3 -12 1 -2 0 -1 -1 -2 -2 -1 -3 -2 -1 -2 -1 -3 1 -3 -1 -5 -3 -3 0 -2 1 -2 1 -2 2 -3 4 -2 5 -2 2 -2 1 -1 2 -1 2 -4 2 -4 -2 -2 -1 -2 -4 -1 0 -1 0 -2 5 -3 3 -2 2 -2 2 -1 5 -2 2 -3 3 -5 9 0 2 3 6 -1 3 -3 1 -2 0 0 1 2 17 2 8 1 4 0 4 -3 -5 -3 -3 -2 2 -6 7zm32 -610l0 -3 -3 -3 -4 -2 0 1 -1 1 1 2 7 4zm-887 647l4 -2 0 -5 -2 -2 -4 -5 1 -1 -1 -2 -1 -2 -1 -4 -5 -7 -1 -5 -3 -1 -8 2 -3 9 1 3 8 12 1 3 2 2 8 5 4 0zm868 -556l-3 2 -1 0 0 2 3 1 1 1 1 0 1 -4 -1 -2 -1 0zm245 46l0 0 -2 2 -1 1 -3 2 0 5 -1 3 2 1 2 4 3 2 1 3 0 -1 1 -1 -1 -1 1 -5 -2 -7 1 -6 -1 -2zm-68 -35l-3 3 0 2 -1 3 -1 1 0 4 -4 9 -4 8 -1 3 -5 7 -3 7 -5 8 0 3 -3 13 0 4 0 2 2 -1 5 -6 6 -14 0 -4 3 -4 4 -4 3 -2 3 -2 3 -4 2 -8 -1 -7 1 -7 0 -4 -1 -1 0 -2 1 -5 -1 -2zm2 51l-1 2 -6 3 -2 2 -2 3 0 2 2 4 3 2 8 1 10 -1 1 -1 3 -4 2 0 3 0 0 -2 0 -2 -1 -2 1 -6 -4 -2 -4 -2 -1 0 -1 -1 0 -1 -7 1 -4 4zm-70 6l-1 4 1 5 6 9 2 1 2 2 5 2 4 2 3 9 2 2 3 0 3 -1 2 -1 2 -1 3 -4 1 -2 0 -2 -1 -2 -6 -10 0 -3 0 -2 0 -6 1 -3 4 -5 1 -3 2 -9 2 -5 4 -5 2 -4 1 -5 0 -1 -2 -5 -11 -3 -1 1 -9 3 -1 1 -1 2 0 3 0 3 -3 4 -2 2 -1 2 1 4 1 5 0 7 -1 1 -6 5 -2 0 -6 0 -2 1 -2 2zm52 26l-1 1 -4 2 -2 0 0 1 2 3 3 1 4 -2 0 -4 -2 -2zm-75 114l0 2 4 4 1 0 4 0 5 -3 2 -4 3 -1 -2 -1 -9 -4 -6 2 -4 1 -1 2 3 2zm10 -256l-5 3 0 7 -2 2 -1 2 1 2 2 2 -1 2 2 3 3 -10 2 -8 0 -3 0 -2 -1 0zm46 -10l-7 -9 -1 0 -2 0 -1 2 1 1 4 2 4 5 5 3 4 4 -4 -6 -3 -2zm26 74l-3 -6 0 0 -2 2 1 4 4 0zm-52 29l1 0 2 -1 1 -1 2 -6 0 -3 -1 -1 -1 0 -1 1 -1 1 -4 4 -1 4 1 3 2 -1zm-399 1535l-5 -13 -1 0 -2 2 3 9 8 14 1 -1 -2 -4 0 -1 0 -3 -2 -3zm176 -1445l0 2 0 3 3 -1 0 -3 -1 -1 -2 0zm-634 567l-2 0 -1 1 1 2 6 5 3 0 2 -3 -1 -2 -8 -3zm191 -98l0 1 2 1 1 1 3 1 0 -1 1 -3 -5 -2 -2 2zm-62 149l-2 1 -1 0 -3 3 1 1 2 1 3 -1 1 -3 -1 -2zm-232 -181l-2 -4 -3 -2 -2 0 -1 1 0 3 -1 2 3 4 4 1 6 3 0 -1 -1 -2 -3 -5zm249 346l-1 0 -2 0 -1 3 3 0 2 2 1 -3 0 -3 -2 1zm-219 -307l1 -3 -1 -1 -9 -10 -2 1 -1 1 1 7 3 3 3 2 0 2 0 3 5 4 -1 -6 0 -2 1 -1zm-19 -12l5 0 3 -3 0 -3 -8 -7 -1 1 0 3 0 0 1 2 0 5 0 2zm603 177l-1 1 -1 0 2 3 2 1 0 -2 -1 -2 -1 -1zm134 -435l1 2 3 3 1 -1 1 -5 -2 -1 -4 0 0 2zm8 -26l8 -2 0 -2 -2 -4 -5 -2 -2 -1 -2 1 0 2 -1 3 4 5zm-31 -169l-1 1 0 5 2 4 3 -3 -1 -8 -3 1zm3 33l0 3 1 3 2 -2 4 -1 1 -1 1 -3 -1 -3 -5 1 -3 3zm305 -140l2 -1 0 -2 0 -1 -2 -1 -1 5 1 0zm-650 318l-3 5 2 1 2 -2 0 -4 -1 0zm-2 190l1 4 5 -2 0 -2 -3 -1 -3 1zm34 -25l-6 1 -1 2 -1 8 2 2 1 0 9 -4 2 -2 0 -1 -1 -3 -2 -1 -3 -2zm144 260l3 1 1 -1 1 0 1 0 12 1 3 -2 5 -3 7 0 1 0 1 -3 9 -2 -1 -1 -4 -4 -38 0 -8 1 -5 4 -1 3 1 3 12 3zm-17 -62l-2 3 0 2 4 0 1 -1 1 -3 -2 -1 -2 0zm373 -765l1 -2 -3 -8 0 -4 1 -4 2 -3 -1 -2 -3 -2 -4 -4 -3 -4 -3 -3 -4 3 -1 -2 -3 -1 -1 -2 -3 -1 -7 2 -2 -1 -2 0 -8 -1 -3 0 -2 2 0 2 2 1 2 0 0 0 2 3 1 3 2 2 4 1 1 2 3 7 1 5 0 2 1 2 2 2 2 3 1 2 0 3 2 3 3 4 2 1 1 1 0 2 2 1 3 1 2 -3 2 -1 1 0 2 0 0 -2 1 -2 0 -1 2 -4 2 -3zm373 -871l1 -2 2 -2 -4 -1 -5 3 0 1 2 1 4 0zm-72 -121l-4 4 -4 3 1 2 6 4 4 -3 -1 -10 -2 0zm19 91l-1 -3 -3 7 -2 1 1 2 2 4 1 -1 1 -4 2 0 1 -3 -1 0 -1 -3zm-34 1325l-4 7 1 9 2 2 7 -1 4 -2 3 -5 2 -10 -3 -6 -2 1 -4 1 -6 4zm-40 75l0 1 1 0 1 0 1 -2 0 -2 -1 0 -1 0 -1 3zm62 -1386l-2 -1 -2 1 -2 0 -2 -1 0 6 0 1 2 1 2 1 2 -2 1 -1 3 0 -1 -2 -1 -3zm4 222l-1 0 -1 3 0 5 3 1 1 -1 1 -2 -1 -2 -2 -4zm-227 1411l0 1 1 2 1 1 2 0 0 -4 -3 -1 -1 1zm1 -155l-1 -2 0 0 -2 2 0 6 2 1 2 0 1 -4 -1 -1 -1 -2zm-3 361l-1 -2 -3 1 -3 4 0 3 4 -1 -1 -3 4 -2 0 0zm-23 -71l-2 1 0 3 2 1 1 -3 3 -2 5 -1 -1 -1 -2 0 -3 0 -3 2zm-5 97l0 4 1 0 4 0 3 -1 8 -3 4 -5 5 -1 0 -2 -2 -2 0 -4 -1 0 0 1 -4 1 -5 5 -3 2 -9 3 -1 2zm1 -250l-1 5 -1 2 0 2 -1 5 0 2 -2 2 -3 3 -1 2 0 2 -2 2 0 3 2 5 2 0 2 -2 3 2 2 -1 3 -5 0 -2 1 -2 1 -1 1 -1 2 1 3 -1 3 -2 1 -3 -2 -2 -4 -3 -2 1 -1 1 -1 -2 1 -8 1 -2 0 -3 2 -4 1 0 1 0 0 -1 1 1 3 3 0 -2 -1 -9 -5 -5 0 -2 -1 1 -4 2 -4 7 0 9zm1267 180l0 -1 -2 -2 -2 -1 -2 -1 -2 -2 -5 0 -2 -1 -3 1 -2 2 5 2 3 2 0 2 2 1 4 2 3 -1 2 0 -1 -2 1 -1 1 0zm-708 194l-1 0 0 2 0 1 4 1 1 0 1 -2 -1 -3 -1 -2 -3 3zm-603 -137l-4 2 1 1 4 1 2 0 5 -3 0 -3 -2 -1 -3 1 -3 2zm122 -824l-2 1 -1 2 1 2 5 2 1 -3 0 -2 -3 -2 -1 0zm-235 729l1 -2 0 0 -2 -2 0 0 -2 1 -1 2 1 1 1 0 2 0zm147 -857l2 -1 1 -3 0 -2 -3 -3 -6 0 -2 2 1 1 2 2 5 4zm40 -7l-4 -2 -5 -2 -5 -2 0 4 2 4 -1 3 -2 9 -2 6 0 2 6 -5 5 -6 2 -1 3 1 3 4 2 1 1 1 2 2 0 2 1 1 4 1 6 4 2 2 1 -2 -1 -7 -5 -8 -9 -5 -6 -5 0 -2zm-66 -46l-1 0 -2 0 -2 -1 -2 6 0 4 2 2 6 3 1 -1 1 -2 2 -4 0 -2 0 -2 -5 -3zm13 43l-1 -3 0 0 -1 1 0 3 1 0 1 -1zm-11 26l-3 0 -2 2 -1 3 2 1 5 2 2 1 0 2 -2 13 -1 10 -1 5 -2 4 -1 5 1 3 0 2 -1 6 0 1 0 1 2 0 3 -2 2 -3 4 -2 13 -3 7 -5 4 -1 1 -2 -1 -2 1 -3 2 -1 4 -1 3 -3 3 -3 1 -4 1 -3 1 -4 0 -3 -2 -1 -9 4 0 -1 1 -2 -3 -3 -5 -1 -5 2 -5 -2 -4 -4 -4 -2 -9 -4 -2 -2zm116 15l2 0 0 -2 -1 -1 -1 -3 -3 -1 1 2 1 4 1 1zm16 59l-2 0 1 3 5 6 0 -2 -2 -6 -2 -1zm-29 -56l5 -1 1 -2 -3 -4 -2 -2 -3 0 -3 1 2 6 3 2zm-30 -38l0 -3 -3 -7 -4 -3 -1 2 1 3 6 7 1 1zm22 38l1 2 2 2 2 10 1 9 3 1 4 -2 2 0 3 3 2 4 1 2 0 2 -3 11 3 4 0 3 -1 4 2 1 4 2 5 3 -1 -4 0 -3 -1 -7 2 2 3 4 1 1 0 -2 1 -1 4 0 1 -2 -1 -2 -2 -4 -1 -5 -1 -3 -1 -2 -2 -1 -2 -1 -1 -2 1 -7 0 -8 0 -3 -2 -2 -3 -5 -4 -1 -4 4 -4 0 -2 -1 -2 -3 -1 -1 -3 -1 -3 -3 -2 0 -1 2zm98 311l1 5 3 4 0 -2 0 -1 -2 -4 -2 -2zm6 9l0 1 1 1 2 1 0 0 1 -1 -1 -1 -2 -2 -1 1zm-3 -10l0 2 3 1 2 -1 1 -6 3 -5 -1 -3 -1 -5 -2 -2 -3 -1 -1 6 0 3 2 2 2 1 -2 4 -3 4zm26 134l-1 1 -1 1 1 2 2 0 1 -1 -1 -3 -1 0zm-8 47l-1 6 0 4 3 0 3 -1 1 -4 -1 -3 2 -2 -5 -1 -2 1zm-3 123l-1 -3 -7 -3 -3 -1 -10 0 -11 2 -3 2 -6 -2 -1 1 -1 2 0 7 1 3 4 4 1 3 1 1 9 4 5 3 6 2 3 -1 2 -1 3 0 3 -1 6 -4 3 -1 3 0 1 -7 -1 -3 -3 -2 -1 -2 -2 -1 -1 -2zm-47 -541l-1 5 1 2 1 -1 1 -4 -1 -3 -1 1zm-13 4l-5 -5 -2 0 -2 4 4 17 1 5 -2 6 -5 0 -5 -1 -2 0 -1 4 -2 3 -4 -1 -4 -3 -3 -1 -3 2 -1 2 -1 8 -1 5 -4 2 -8 -3 -2 0 -2 2 -1 2 -2 5 -2 5 -1 1 -2 2 -7 1 -3 2 -5 3 -2 0 4 -4 1 -2 0 -8 -1 -2 -3 -5 -4 -3 -5 -1 -3 -2 -2 0 -3 3 -1 2 -2 1 -6 1 -3 2 -1 2 -2 1 -1 2 0 3 0 3 -3 2 -5 1 -5 0 -4 2 -8 2 -2 1 -4 3 -5 6 -1 2 0 4 -3 13 -2 3 -3 4 -1 5 3 4 2 2 3 0 2 -1 2 -2 3 -7 3 -7 5 -10 1 -3 1 -1 5 -4 4 -1 4 3 1 7 1 1 3 0 3 -1 2 -3 2 -3 1 1 1 2 1 2 1 2 4 2 5 3 3 -11 1 -2 -1 -2 1 -2 3 -1 2 0 2 1 3 1 1 2 9 3 4 4 5 6 1 1 0 3 -1 3 -1 2 -2 2 -3 2 -2 5 0 3 0 3 2 8 0 5 2 6 5 7 8 5 10 5 12 5 2 0 3 0 2 -1 4 -6 0 -1 2 0 2 1 0 5 -2 5 1 2 1 5 3 1 5 -2 6 -9 2 -4 1 -11 -4 -10 -1 -1 -3 -3 -2 -2 -3 -3 1 -5 3 -4 3 -5 4 -4 1 -2 1 -2 0 -2 4 -3 2 0 3 9 3 3 1 4 2 4 2 5 1 10 1 4 2 4 2 -8 1 -10 -3 -5 2 -2 3 1 6 -6 4 -7 2 -2 0 -4 0 -9 -1 -5 -1 -2 -2 -2 -2 -3 -1 -4 2 -9 0 -2 -4 -6 0 -6 -4 -3 -4 0 -2 -2 0 -1 4 -3 1 -2 3 -4 -1 -5 -4 -5 -1 -2 1 -6 -5 0 -3 -2 -2 -5 -4 -3 -10 -6zm26 -1095l-1 1 -4 5 -1 2 1 0 2 2 2 -1 5 -3 1 -3 -1 -2 -4 -1zm-142 1189l-2 -1 -1 1 0 4 2 0 4 -2 0 -1 0 -1 -1 -1 -2 1zm135 -1206l-3 3 2 1 0 3 2 3 2 0 1 -1 0 -4 -4 -5zm-4 1104l2 3 1 0 3 0 2 -1 -3 -3 1 -1 0 -2 -2 -5 -4 5 0 4zm-250 -88l-2 0 -2 -1 -1 -1 -3 1 3 7 0 2 1 2 1 1 3 -2 1 -3 0 -2 0 -1 -1 -3zm1450 711l1 2 0 3 1 4 1 5 1 0 2 -2 2 -7 -2 -3 0 -4 -2 -2 -1 1 -3 3zm-2406 -262l3 6 2 4 2 0 6 5 3 8 1 2 5 1 3 -3 1 -10 1 -4 -1 -2 -5 -5 -4 -2 -9 -11 -5 -3 -1 0 -1 2 -3 2 -7 0 9 10zm2455 342l-1 3 2 1 4 -1 1 -2 -5 -3 -1 2zm-2453 -379l0 -3 -2 -2 -2 -1 -4 0 -2 0 5 3 5 4 0 -1zm43 102l-1 4 -1 3 4 2 2 -2 3 -7 1 -5 -3 -3 -3 -7 -1 -1 -3 1 5 9 -1 3 -2 3zm-80 -114l0 -2 -1 -2 -1 -2 -10 -6 -2 -3 -1 -1 -4 -1 -5 -5 -3 -1 -2 3 -2 1 1 2 3 5 3 1 2 1 4 1 11 6 2 3 3 1 2 -1zm2464 333l-4 -4 -5 0 -3 -1 -1 -2 -2 -1 0 5 -1 8 0 3 2 5 1 1 4 4 3 2 2 4 2 1 7 3 1 5 -1 5 2 4 4 4 3 2 4 2 4 1 4 1 2 -2 2 -1 4 -2 1 2 0 -1 1 -4 -1 -5 -2 -4 -2 -4 -4 -3 -4 -3 -3 -1 -2 -1 -2 -1 -4 -7 -2 -2 -4 -3 -2 -2 0 -2 -4 -6zm-45 241l2 2 2 0 5 -1 1 1 1 -3 -2 -1 -6 -1 1 3 -4 -1 0 1z"/>
 </g>
</svg>
